<svg xmlns="http://www.w3.org/2000/svg" xmlns:xlink="http://www.w3.org/1999/xlink" width="1080" viewBox="0 0 810 809.999993" height="1080" preserveAspectRatio="xMidYMid meet"><defs><clipPath id="75e1e6ceb1"><path d="M 332 115 L 497 115 L 497 224 L 332 224 Z M 332 115 " clip-rule="nonzero"></path></clipPath><clipPath id="8984f6347b"><path d="M 69.851562 621.957031 L 305.546875 18.339844 L 740.09375 188.023438 L 504.398438 791.636719 Z M 69.851562 621.957031 " clip-rule="nonzero"></path></clipPath><clipPath id="77dc0e4c6b"><path d="M 69.851562 621.957031 L 305.546875 18.339844 L 740.09375 188.023438 L 504.398438 791.636719 Z M 69.851562 621.957031 " clip-rule="nonzero"></path></clipPath><clipPath id="8882f08449"><path d="M 69.851562 621.953125 L 305.546875 18.34375 L 740.09375 188.023438 L 504.398438 791.636719 Z M 69.851562 621.953125 " clip-rule="nonzero"></path></clipPath><clipPath id="135e0f94d5"><path d="M 69.851562 621.953125 L 305.546875 18.34375 L 740.09375 188.023438 L 504.398438 791.636719 Z M 69.851562 621.953125 " clip-rule="nonzero"></path></clipPath><clipPath id="f8bd62f2cd"><path d="M 326 109 L 503 109 L 503 230 L 326 230 Z M 326 109 " clip-rule="nonzero"></path></clipPath><clipPath id="f560e27221"><path d="M 69.851562 621.957031 L 305.546875 18.339844 L 740.09375 188.023438 L 504.398438 791.636719 Z M 69.851562 621.957031 " clip-rule="nonzero"></path></clipPath><clipPath id="74758415af"><path d="M 69.851562 621.957031 L 305.546875 18.339844 L 740.09375 188.023438 L 504.398438 791.636719 Z M 69.851562 621.957031 " clip-rule="nonzero"></path></clipPath><clipPath id="efe26cda03"><path d="M 69.851562 621.953125 L 305.546875 18.34375 L 740.09375 188.023438 L 504.398438 791.636719 Z M 69.851562 621.953125 " clip-rule="nonzero"></path></clipPath><clipPath id="d606979ce5"><path d="M 69.851562 621.953125 L 305.546875 18.34375 L 740.09375 188.023438 L 504.398438 791.636719 Z M 69.851562 621.953125 " clip-rule="nonzero"></path></clipPath><clipPath id="dc17d289ed"><path d="M 386 461 L 434 461 L 434 562 L 386 562 Z M 386 461 " clip-rule="nonzero"></path></clipPath><clipPath id="fc02381bbf"><path d="M 69.851562 621.957031 L 305.546875 18.339844 L 740.09375 188.023438 L 504.398438 791.636719 Z M 69.851562 621.957031 " clip-rule="nonzero"></path></clipPath><clipPath id="595ddb05b5"><path d="M 69.851562 621.957031 L 305.546875 18.339844 L 740.09375 188.023438 L 504.398438 791.636719 Z M 69.851562 621.957031 " clip-rule="nonzero"></path></clipPath><clipPath id="0726cfaf81"><path d="M 69.851562 621.953125 L 305.546875 18.34375 L 740.09375 188.023438 L 504.398438 791.636719 Z M 69.851562 621.953125 " clip-rule="nonzero"></path></clipPath><clipPath id="dabb94c111"><path d="M 69.851562 621.953125 L 305.546875 18.34375 L 740.09375 188.023438 L 504.398438 791.636719 Z M 69.851562 621.953125 " clip-rule="nonzero"></path></clipPath><clipPath id="487efe7de7"><path d="M 380 455 L 440 455 L 440 568 L 380 568 Z M 380 455 " clip-rule="nonzero"></path></clipPath><clipPath id="74f0f39d82"><path d="M 69.851562 621.957031 L 305.546875 18.339844 L 740.09375 188.023438 L 504.398438 791.636719 Z M 69.851562 621.957031 " clip-rule="nonzero"></path></clipPath><clipPath id="544ae2eafd"><path d="M 69.851562 621.957031 L 305.546875 18.339844 L 740.09375 188.023438 L 504.398438 791.636719 Z M 69.851562 621.957031 " clip-rule="nonzero"></path></clipPath><clipPath id="1f396ac653"><path d="M 69.851562 621.953125 L 305.546875 18.34375 L 740.09375 188.023438 L 504.398438 791.636719 Z M 69.851562 621.953125 " clip-rule="nonzero"></path></clipPath><clipPath id="aaa03aa68a"><path d="M 69.851562 621.953125 L 305.546875 18.34375 L 740.09375 188.023438 L 504.398438 791.636719 Z M 69.851562 621.953125 " clip-rule="nonzero"></path></clipPath><clipPath id="7e841b8fdc"><path d="M 466 465 L 521 465 L 521 557 L 466 557 Z M 466 465 " clip-rule="nonzero"></path></clipPath><clipPath id="552456526c"><path d="M 69.851562 621.957031 L 305.546875 18.339844 L 740.09375 188.023438 L 504.398438 791.636719 Z M 69.851562 621.957031 " clip-rule="nonzero"></path></clipPath><clipPath id="47cab7c79d"><path d="M 69.851562 621.957031 L 305.546875 18.339844 L 740.09375 188.023438 L 504.398438 791.636719 Z M 69.851562 621.957031 " clip-rule="nonzero"></path></clipPath><clipPath id="87d207d362"><path d="M 69.851562 621.953125 L 305.546875 18.34375 L 740.09375 188.023438 L 504.398438 791.636719 Z M 69.851562 621.953125 " clip-rule="nonzero"></path></clipPath><clipPath id="61c6543c6a"><path d="M 69.851562 621.953125 L 305.546875 18.34375 L 740.09375 188.023438 L 504.398438 791.636719 Z M 69.851562 621.953125 " clip-rule="nonzero"></path></clipPath><clipPath id="1718db325e"><path d="M 459 459 L 528 459 L 528 563 L 459 563 Z M 459 459 " clip-rule="nonzero"></path></clipPath><clipPath id="905aa9d142"><path d="M 69.851562 621.957031 L 305.546875 18.339844 L 740.09375 188.023438 L 504.398438 791.636719 Z M 69.851562 621.957031 " clip-rule="nonzero"></path></clipPath><clipPath id="348ab80976"><path d="M 69.851562 621.957031 L 305.546875 18.339844 L 740.09375 188.023438 L 504.398438 791.636719 Z M 69.851562 621.957031 " clip-rule="nonzero"></path></clipPath><clipPath id="0681b2e1fa"><path d="M 69.851562 621.953125 L 305.546875 18.34375 L 740.09375 188.023438 L 504.398438 791.636719 Z M 69.851562 621.953125 " clip-rule="nonzero"></path></clipPath><clipPath id="3c30c5790b"><path d="M 69.851562 621.953125 L 305.546875 18.34375 L 740.09375 188.023438 L 504.398438 791.636719 Z M 69.851562 621.953125 " clip-rule="nonzero"></path></clipPath><clipPath id="430983c6e5"><path d="M 299 465 L 355 465 L 355 558 L 299 558 Z M 299 465 " clip-rule="nonzero"></path></clipPath><clipPath id="4e05c1368d"><path d="M 69.851562 621.957031 L 305.546875 18.339844 L 740.09375 188.023438 L 504.398438 791.636719 Z M 69.851562 621.957031 " clip-rule="nonzero"></path></clipPath><clipPath id="1c254997b5"><path d="M 69.851562 621.957031 L 305.546875 18.339844 L 740.09375 188.023438 L 504.398438 791.636719 Z M 69.851562 621.957031 " clip-rule="nonzero"></path></clipPath><clipPath id="2b2e6a7b3a"><path d="M 69.851562 621.953125 L 305.546875 18.34375 L 740.09375 188.023438 L 504.398438 791.636719 Z M 69.851562 621.953125 " clip-rule="nonzero"></path></clipPath><clipPath id="87cc4e28d2"><path d="M 69.851562 621.953125 L 305.546875 18.34375 L 740.09375 188.023438 L 504.398438 791.636719 Z M 69.851562 621.953125 " clip-rule="nonzero"></path></clipPath><clipPath id="906ccd6c6e"><path d="M 293 459 L 361 459 L 361 564 L 293 564 Z M 293 459 " clip-rule="nonzero"></path></clipPath><clipPath id="34f9845e38"><path d="M 69.851562 621.957031 L 305.546875 18.339844 L 740.09375 188.023438 L 504.398438 791.636719 Z M 69.851562 621.957031 " clip-rule="nonzero"></path></clipPath><clipPath id="6814aca579"><path d="M 69.851562 621.957031 L 305.546875 18.339844 L 740.09375 188.023438 L 504.398438 791.636719 Z M 69.851562 621.957031 " clip-rule="nonzero"></path></clipPath><clipPath id="7644cfd1c8"><path d="M 69.851562 621.953125 L 305.546875 18.34375 L 740.09375 188.023438 L 504.398438 791.636719 Z M 69.851562 621.953125 " clip-rule="nonzero"></path></clipPath><clipPath id="871068d9ca"><path d="M 69.851562 621.953125 L 305.546875 18.34375 L 740.09375 188.023438 L 504.398438 791.636719 Z M 69.851562 621.953125 " clip-rule="nonzero"></path></clipPath><clipPath id="8be30a250a"><path d="M 305 110 L 520 110 L 520 555 L 305 555 Z M 305 110 " clip-rule="nonzero"></path></clipPath><clipPath id="48a0c14f93"><path d="M 69.851562 621.957031 L 305.546875 18.339844 L 740.09375 188.023438 L 504.398438 791.636719 Z M 69.851562 621.957031 " clip-rule="nonzero"></path></clipPath><clipPath id="6b95d484a7"><path d="M 69.851562 621.957031 L 305.546875 18.339844 L 740.09375 188.023438 L 504.398438 791.636719 Z M 69.851562 621.957031 " clip-rule="nonzero"></path></clipPath><clipPath id="362b743cb6"><path d="M 69.851562 621.953125 L 305.546875 18.34375 L 740.09375 188.023438 L 504.398438 791.636719 Z M 69.851562 621.953125 " clip-rule="nonzero"></path></clipPath><clipPath id="006c7fdca0"><path d="M 69.851562 621.953125 L 305.546875 18.34375 L 740.09375 188.023438 L 504.398438 791.636719 Z M 69.851562 621.953125 " clip-rule="nonzero"></path></clipPath><clipPath id="9fc4da2860"><path d="M 331 210 L 497 210 L 497 226 L 331 226 Z M 331 210 " clip-rule="nonzero"></path></clipPath><clipPath id="dfca94e3ad"><path d="M 69.851562 621.957031 L 305.546875 18.339844 L 740.09375 188.023438 L 504.398438 791.636719 Z M 69.851562 621.957031 " clip-rule="nonzero"></path></clipPath><clipPath id="456bd13c2a"><path d="M 69.851562 621.957031 L 305.546875 18.339844 L 740.09375 188.023438 L 504.398438 791.636719 Z M 69.851562 621.957031 " clip-rule="nonzero"></path></clipPath><clipPath id="027b81b1ae"><path d="M 69.851562 621.953125 L 305.546875 18.34375 L 740.09375 188.023438 L 504.398438 791.636719 Z M 69.851562 621.953125 " clip-rule="nonzero"></path></clipPath><clipPath id="11f0ba822d"><path d="M 69.851562 621.953125 L 305.546875 18.34375 L 740.09375 188.023438 L 504.398438 791.636719 Z M 69.851562 621.953125 " clip-rule="nonzero"></path></clipPath><clipPath id="646e50462e"><path d="M 356 516 L 393 516 L 393 528 L 356 528 Z M 356 516 " clip-rule="nonzero"></path></clipPath><clipPath id="9e17966740"><path d="M 69.851562 621.957031 L 305.546875 18.339844 L 740.09375 188.023438 L 504.398438 791.636719 Z M 69.851562 621.957031 " clip-rule="nonzero"></path></clipPath><clipPath id="56d1308e06"><path d="M 69.851562 621.957031 L 305.546875 18.339844 L 740.09375 188.023438 L 504.398438 791.636719 Z M 69.851562 621.957031 " clip-rule="nonzero"></path></clipPath><clipPath id="2eefe2f8b2"><path d="M 69.851562 621.953125 L 305.546875 18.34375 L 740.09375 188.023438 L 504.398438 791.636719 Z M 69.851562 621.953125 " clip-rule="nonzero"></path></clipPath><clipPath id="07d338f118"><path d="M 69.851562 621.953125 L 305.546875 18.34375 L 740.09375 188.023438 L 504.398438 791.636719 Z M 69.851562 621.953125 " clip-rule="nonzero"></path></clipPath><clipPath id="808efe5fdd"><path d="M 427 519 L 464 519 L 464 529 L 427 529 Z M 427 519 " clip-rule="nonzero"></path></clipPath><clipPath id="f5e990823b"><path d="M 69.851562 621.957031 L 305.546875 18.339844 L 740.09375 188.023438 L 504.398438 791.636719 Z M 69.851562 621.957031 " clip-rule="nonzero"></path></clipPath><clipPath id="bcd50c400f"><path d="M 69.851562 621.957031 L 305.546875 18.339844 L 740.09375 188.023438 L 504.398438 791.636719 Z M 69.851562 621.957031 " clip-rule="nonzero"></path></clipPath><clipPath id="d8ee082cd5"><path d="M 69.851562 621.953125 L 305.546875 18.34375 L 740.09375 188.023438 L 504.398438 791.636719 Z M 69.851562 621.953125 " clip-rule="nonzero"></path></clipPath><clipPath id="aab14256ab"><path d="M 69.851562 621.953125 L 305.546875 18.34375 L 740.09375 188.023438 L 504.398438 791.636719 Z M 69.851562 621.953125 " clip-rule="nonzero"></path></clipPath><clipPath id="fa17fb9f81"><path d="M 296 461 L 357 461 L 357 561 L 296 561 Z M 296 461 " clip-rule="nonzero"></path></clipPath><clipPath id="41a4f9b84f"><path d="M 69.851562 621.957031 L 305.546875 18.339844 L 740.09375 188.023438 L 504.398438 791.636719 Z M 69.851562 621.957031 " clip-rule="nonzero"></path></clipPath><clipPath id="3de9904d77"><path d="M 69.851562 621.957031 L 305.546875 18.339844 L 740.09375 188.023438 L 504.398438 791.636719 Z M 69.851562 621.957031 " clip-rule="nonzero"></path></clipPath><clipPath id="e3081a0dc4"><path d="M 69.851562 621.953125 L 305.546875 18.34375 L 740.09375 188.023438 L 504.398438 791.636719 Z M 69.851562 621.953125 " clip-rule="nonzero"></path></clipPath><clipPath id="7cded860ff"><path d="M 69.851562 621.953125 L 305.546875 18.34375 L 740.09375 188.023438 L 504.398438 791.636719 Z M 69.851562 621.953125 " clip-rule="nonzero"></path></clipPath><clipPath id="82885c76fd"><path d="M 463 461 L 524 461 L 524 560 L 463 560 Z M 463 461 " clip-rule="nonzero"></path></clipPath><clipPath id="7b1930eb55"><path d="M 69.851562 621.957031 L 305.546875 18.339844 L 740.09375 188.023438 L 504.398438 791.636719 Z M 69.851562 621.957031 " clip-rule="nonzero"></path></clipPath><clipPath id="d9fb91a86d"><path d="M 69.851562 621.957031 L 305.546875 18.339844 L 740.09375 188.023438 L 504.398438 791.636719 Z M 69.851562 621.957031 " clip-rule="nonzero"></path></clipPath><clipPath id="581e6e905c"><path d="M 69.851562 621.953125 L 305.546875 18.34375 L 740.09375 188.023438 L 504.398438 791.636719 Z M 69.851562 621.953125 " clip-rule="nonzero"></path></clipPath><clipPath id="4618a0ed2a"><path d="M 69.851562 621.953125 L 305.546875 18.34375 L 740.09375 188.023438 L 504.398438 791.636719 Z M 69.851562 621.953125 " clip-rule="nonzero"></path></clipPath><clipPath id="dca7f10dc2"><path d="M 385 458 L 435 458 L 435 564 L 385 564 Z M 385 458 " clip-rule="nonzero"></path></clipPath><clipPath id="6a5bc1d2b9"><path d="M 69.851562 621.957031 L 305.546875 18.339844 L 740.09375 188.023438 L 504.398438 791.636719 Z M 69.851562 621.957031 " clip-rule="nonzero"></path></clipPath><clipPath id="ae3cca2aba"><path d="M 69.851562 621.957031 L 305.546875 18.339844 L 740.09375 188.023438 L 504.398438 791.636719 Z M 69.851562 621.957031 " clip-rule="nonzero"></path></clipPath><clipPath id="9b2756699d"><path d="M 69.851562 621.953125 L 305.546875 18.34375 L 740.09375 188.023438 L 504.398438 791.636719 Z M 69.851562 621.953125 " clip-rule="nonzero"></path></clipPath><clipPath id="344c236980"><path d="M 69.851562 621.953125 L 305.546875 18.34375 L 740.09375 188.023438 L 504.398438 791.636719 Z M 69.851562 621.953125 " clip-rule="nonzero"></path></clipPath><clipPath id="27f44ea658"><path d="M 378 258 L 448 258 L 448 332 L 378 332 Z M 378 258 " clip-rule="nonzero"></path></clipPath><clipPath id="56dd54660b"><path d="M 69.851562 621.957031 L 305.546875 18.339844 L 740.09375 188.023438 L 504.398438 791.636719 Z M 69.851562 621.957031 " clip-rule="nonzero"></path></clipPath><clipPath id="96a71efb8d"><path d="M 69.851562 621.957031 L 305.546875 18.339844 L 740.09375 188.023438 L 504.398438 791.636719 Z M 69.851562 621.957031 " clip-rule="nonzero"></path></clipPath><clipPath id="cfb0853f84"><path d="M 69.851562 621.953125 L 305.546875 18.34375 L 740.09375 188.023438 L 504.398438 791.636719 Z M 69.851562 621.953125 " clip-rule="nonzero"></path></clipPath><clipPath id="c636d6c127"><path d="M 69.851562 621.953125 L 305.546875 18.34375 L 740.09375 188.023438 L 504.398438 791.636719 Z M 69.851562 621.953125 " clip-rule="nonzero"></path></clipPath><clipPath id="487d27df70"><path d="M 357 241 L 466 241 L 466 353 L 357 353 Z M 357 241 " clip-rule="nonzero"></path></clipPath><clipPath id="90222f1941"><path d="M 69.851562 621.957031 L 305.546875 18.339844 L 740.09375 188.023438 L 504.398438 791.636719 Z M 69.851562 621.957031 " clip-rule="nonzero"></path></clipPath><clipPath id="409a68e836"><path d="M 69.851562 621.957031 L 305.546875 18.339844 L 740.09375 188.023438 L 504.398438 791.636719 Z M 69.851562 621.957031 " clip-rule="nonzero"></path></clipPath><clipPath id="1ea0be092c"><path d="M 69.851562 621.953125 L 305.546875 18.34375 L 740.09375 188.023438 L 504.398438 791.636719 Z M 69.851562 621.953125 " clip-rule="nonzero"></path></clipPath><clipPath id="33d16a9ea5"><path d="M 69.851562 621.953125 L 305.546875 18.34375 L 740.09375 188.023438 L 504.398438 791.636719 Z M 69.851562 621.953125 " clip-rule="nonzero"></path></clipPath><clipPath id="37b3f92c7e"><path d="M 364 550 L 470 550 L 470 705 L 364 705 Z M 364 550 " clip-rule="nonzero"></path></clipPath><clipPath id="9ef57796d3"><path d="M 69.851562 621.957031 L 305.546875 18.339844 L 740.09375 188.023438 L 504.398438 791.636719 Z M 69.851562 621.957031 " clip-rule="nonzero"></path></clipPath><clipPath id="a99ce98ce1"><path d="M 69.851562 621.957031 L 305.546875 18.339844 L 740.09375 188.023438 L 504.398438 791.636719 Z M 69.851562 621.957031 " clip-rule="nonzero"></path></clipPath><clipPath id="bfddf8ad82"><path d="M 69.851562 621.953125 L 305.546875 18.34375 L 740.09375 188.023438 L 504.398438 791.636719 Z M 69.851562 621.953125 " clip-rule="nonzero"></path></clipPath><clipPath id="191a46c80a"><path d="M 69.851562 621.953125 L 305.546875 18.34375 L 740.09375 188.023438 L 504.398438 791.636719 Z M 69.851562 621.953125 " clip-rule="nonzero"></path></clipPath></defs><g clip-path="url(#75e1e6ceb1)"><g clip-path="url(#8984f6347b)"><g clip-path="url(#77dc0e4c6b)"><g clip-path="url(#8882f08449)"><g clip-path="url(#135e0f94d5)"><path fill="#ffed00" d="M 332.707031 223.554688 C 332.707031 223.554688 369.980469 215.609375 369.980469 215.609375 C 369.980469 215.609375 477.625 220.230469 477.625 220.230469 C 477.625 220.230469 496.347656 223.746094 496.347656 223.746094 C 496.347656 223.746094 477.746094 177.488281 477.746094 177.488281 C 477.746094 177.488281 436.574219 127.574219 436.574219 127.574219 C 436.574219 127.574219 419.359375 115.242188 419.359375 115.242188 C 419.359375 115.242188 392.972656 130.679688 392.972656 130.679688 C 392.972656 130.679688 347.667969 192.464844 347.667969 192.464844 C 347.667969 192.464844 332.707031 223.554688 332.707031 223.554688 Z M 332.707031 223.554688 " fill-opacity="1" fill-rule="nonzero"></path></g></g></g></g></g><g clip-path="url(#f8bd62f2cd)"><g clip-path="url(#f560e27221)"><g clip-path="url(#74758415af)"><g clip-path="url(#efe26cda03)"><g clip-path="url(#d606979ce5)"><path stroke-linecap="butt" transform="matrix(0.159265, -0.401569, 0.401518, 0.159245, 427.88799, 189.964698)" fill="none" stroke-linejoin="miter" d="M -153.505895 -176.163566 C -153.505895 -176.163566 -104.60003 -102.731142 -104.60003 -102.731142 C -104.60003 -102.731142 -22.678951 132.868085 -22.678951 132.868085 C -22.678951 132.868085 -14.265709 176.160569 -14.265709 176.160569 C -14.265709 176.160569 69.395583 96.647751 69.395583 96.647751 C 69.395583 96.647751 141.662608 -34.557878 141.662608 -34.557878 C 141.662608 -34.557878 153.506988 -82.130394 153.506988 -82.130394 C 153.506988 -82.130394 97.770489 -125.739525 97.770489 -125.739525 C 97.770489 -125.739525 -73.840054 -170.502594 -73.840054 -170.502594 C -73.840054 -170.502594 -153.505895 -176.163566 -153.505895 -176.163566 Z M -153.505895 -176.163566 " stroke="#ffffff" stroke-width="1" stroke-opacity="1" stroke-miterlimit="10"></path></g></g></g></g></g><g clip-path="url(#dc17d289ed)"><g clip-path="url(#fc02381bbf)"><g clip-path="url(#595ddb05b5)"><g clip-path="url(#0726cfaf81)"><g clip-path="url(#dabb94c111)"><path fill="#ffed00" d="M 407.75 461.828125 C 407.75 461.828125 391.421875 488.765625 391.421875 488.765625 C 391.421875 488.765625 386.484375 518.964844 386.484375 518.964844 C 386.484375 518.964844 397.710938 542.867188 397.710938 542.867188 C 397.710938 542.867188 412.023438 561.769531 412.023438 561.769531 C 412.023438 561.769531 426.269531 533.816406 426.269531 533.816406 C 426.269531 533.816406 433.207031 505.335938 433.207031 505.335938 C 433.207031 505.335938 424.703125 480.1875 424.703125 480.1875 C 424.703125 480.1875 407.75 461.828125 407.75 461.828125 Z M 407.75 461.828125 " fill-opacity="1" fill-rule="nonzero"></path></g></g></g></g></g><g clip-path="url(#487efe7de7)"><g clip-path="url(#74f0f39d82)"><g clip-path="url(#544ae2eafd)"><g clip-path="url(#1f396ac653)"><g clip-path="url(#aaa03aa68a)"><path stroke-linecap="butt" transform="matrix(0.159265, -0.401569, 0.401518, 0.159245, 408.812479, 511.372602)" fill="none" stroke-linejoin="miter" d="M 105.701402 -44.573258 C 105.701402 -44.573258 33.803666 -56.720539 33.803666 -56.720539 C 33.803666 -56.720539 -35.391687 -41.570855 -35.391687 -41.570855 C -35.391687 -41.570855 -77.243115 2.990045 -77.243115 2.990045 C -77.243115 2.990045 -105.702151 49.924443 -105.702151 49.924443 C -105.702151 49.924443 -33.395848 56.724268 -33.395848 56.724268 C -33.395848 56.724268 33.807971 47.345632 33.807971 47.345632 C 33.807971 47.345632 80.664235 7.580435 80.664235 7.580435 C 80.664235 7.580435 105.701402 -44.573258 105.701402 -44.573258 Z M 105.701402 -44.573258 " stroke="#ffffff" stroke-width="1" stroke-opacity="1" stroke-miterlimit="10"></path></g></g></g></g></g><g clip-path="url(#7e841b8fdc)"><g clip-path="url(#552456526c)"><g clip-path="url(#47cab7c79d)"><g clip-path="url(#87d207d362)"><g clip-path="url(#61c6543c6a)"><path fill="#ffed00" d="M 466.082031 512.039062 C 466.082031 512.039062 493.292969 532.796875 493.292969 532.796875 C 493.292969 532.796875 515.101562 556.683594 515.101562 556.683594 C 515.101562 556.683594 520.992188 526.578125 520.992188 526.578125 C 520.992188 526.578125 515.085938 497.265625 515.085938 497.265625 C 515.085938 497.265625 500.796875 473.730469 500.796875 473.730469 C 500.796875 473.730469 490.246094 465.777344 490.246094 465.777344 C 490.246094 465.777344 466.082031 512.039062 466.082031 512.039062 Z M 466.082031 512.039062 " fill-opacity="1" fill-rule="nonzero"></path></g></g></g></g></g><g clip-path="url(#1718db325e)"><g clip-path="url(#905aa9d142)"><g clip-path="url(#348ab80976)"><g clip-path="url(#0681b2e1fa)"><g clip-path="url(#3c30c5790b)"><path stroke-linecap="butt" transform="matrix(0.159265, -0.401569, 0.401518, 0.159245, 500.160218, 510.233898)" fill="none" stroke-linejoin="miter" d="M -32.966853 -71.79681 C -32.966853 -71.79681 -54.410808 4.479173 -54.410808 4.479173 C -54.410808 4.479173 -87.197835 71.799666 -87.197835 71.799666 C -87.197835 71.799666 -17.390806 58.781159 -17.390806 58.781159 C -17.390806 58.781159 40.642404 21.052142 40.642404 21.052142 C 40.642404 21.052142 79.090171 -29.785975 79.090171 -29.785975 C 79.090171 -29.785975 87.199326 -59.279733 87.199326 -59.279733 C 87.199326 -59.279733 -32.966853 -71.79681 -32.966853 -71.79681 Z M -32.966853 -71.79681 " stroke="#ffffff" stroke-width="1" stroke-opacity="1" stroke-miterlimit="10"></path></g></g></g></g></g><g clip-path="url(#430983c6e5)"><g clip-path="url(#4e05c1368d)"><g clip-path="url(#1c254997b5)"><g clip-path="url(#2b2e6a7b3a)"><g clip-path="url(#87cc4e28d2)"><path fill="#ffed00" d="M 329.898438 465.722656 C 329.898438 465.722656 308.929688 489.195312 308.929688 489.195312 C 308.929688 489.195312 299.570312 517.167969 299.570312 517.167969 C 299.570312 517.167969 302.160156 548.695312 302.160156 548.695312 C 302.160156 548.695312 304.917969 557.667969 304.917969 557.667969 C 304.917969 557.667969 327.097656 530.980469 327.097656 530.980469 C 327.097656 530.980469 350.4375 512.285156 350.4375 512.285156 C 350.4375 512.285156 354.425781 510.285156 354.425781 510.285156 C 354.425781 510.285156 329.898438 465.722656 329.898438 465.722656 Z M 329.898438 465.722656 " fill-opacity="1" fill-rule="nonzero"></path></g></g></g></g></g><g clip-path="url(#906ccd6c6e)"><g clip-path="url(#34f9845e38)"><g clip-path="url(#6814aca579)"><g clip-path="url(#7644cfd1c8)"><g clip-path="url(#871068d9ca)"><path stroke-linecap="butt" transform="matrix(0.159265, -0.401569, 0.401518, 0.159245, 325.641784, 514.96065)" fill="none" stroke-linejoin="miter" d="M 109.581306 -32.864698 C 109.581306 -32.864698 41.178762 -57.956061 41.178762 -57.956061 C 41.178762 -57.956061 -26.999209 -54.222814 -26.999209 -54.222814 C -26.999209 -54.222814 -92.628489 -21.740434 -92.628489 -21.740434 C -92.628489 -21.740434 -109.58201 -8.147256 -109.58201 -8.147256 C -109.58201 -8.147256 -33.228452 16.806185 -33.228452 16.806185 C -33.228452 16.806185 26.917874 51.077748 26.917874 51.077748 C 26.917874 51.077748 34.625033 57.953657 34.625033 57.953657 C 34.625033 57.953657 109.581306 -32.864698 109.581306 -32.864698 Z M 109.581306 -32.864698 " stroke="#ffffff" stroke-width="1" stroke-opacity="1" stroke-miterlimit="10"></path></g></g></g></g></g><g clip-path="url(#8be30a250a)"><g clip-path="url(#48a0c14f93)"><g clip-path="url(#6b95d484a7)"><g clip-path="url(#362b743cb6)"><g clip-path="url(#006c7fdca0)"><path fill="#ffffff" d="M 403.773438 554.035156 C 398.449219 553.808594 393.125 553.382812 387.808594 552.585938 C 386.476562 552.382812 385.148438 552.15625 383.820312 551.894531 C 382.484375 551.625 381.136719 551.308594 379.808594 550.917969 C 377.15625 550.144531 374.542969 549.097656 372.089844 547.695312 C 370.871094 546.984375 369.667969 546.21875 368.570312 545.308594 C 367.441406 544.441406 366.402344 543.453125 365.421875 542.417969 C 363.472656 540.332031 361.871094 537.933594 360.621094 535.410156 C 358.097656 530.351562 356.984375 524.871094 355.996094 519.703125 C 355.996094 519.703125 355.617188 517.78125 355.617188 517.78125 C 355.539062 517.425781 355.351562 516.910156 355.113281 516.382812 C 354.636719 515.320312 354.015625 514.195312 353.378906 513.082031 C 352.089844 510.84375 350.710938 508.589844 349.347656 506.328125 C 346.609375 501.796875 343.910156 497.203125 341.363281 492.527344 C 336.25 483.179688 331.667969 473.523438 327.710938 463.617188 C 319.722656 443.824219 314.167969 423.097656 310.609375 402.085938 C 308.839844 391.574219 307.574219 380.984375 306.71875 370.367188 C 306.71875 370.367188 306.421875 366.386719 306.421875 366.386719 C 306.328125 365.058594 306.207031 363.730469 306.160156 362.398438 C 306.160156 362.398438 305.777344 354.421875 305.777344 354.421875 C 305.699219 353.089844 305.695312 351.761719 305.660156 350.429688 C 305.660156 350.429688 305.574219 346.4375 305.574219 346.4375 C 305.574219 346.4375 305.484375 342.445312 305.484375 342.445312 C 305.484375 342.445312 305.5 338.453125 305.5 338.453125 C 305.515625 335.792969 305.496094 333.136719 305.546875 330.46875 C 305.546875 330.46875 305.671875 326.457031 305.671875 326.457031 C 305.710938 325.117188 305.738281 323.78125 305.832031 322.445312 C 305.832031 322.445312 306.0625 318.441406 306.0625 318.441406 C 306.0625 318.441406 306.179688 316.4375 306.179688 316.4375 C 306.179688 316.4375 306.351562 314.4375 306.351562 314.4375 C 306.582031 311.773438 306.777344 309.105469 307.105469 306.449219 C 308.261719 295.816406 310.027344 285.25 312.339844 274.808594 C 312.917969 272.199219 313.5625 269.605469 314.179688 267.003906 C 314.871094 264.421875 315.515625 261.828125 316.246094 259.257812 C 316.246094 259.257812 317.351562 255.402344 317.351562 255.402344 C 317.351562 255.402344 317.910156 253.480469 317.910156 253.480469 C 317.910156 253.480469 318.503906 251.566406 318.503906 251.566406 C 318.503906 251.566406 319.695312 247.738281 319.695312 247.738281 C 320.09375 246.460938 320.535156 245.199219 320.953125 243.933594 C 324.335938 233.792969 328.210938 223.820312 332.578125 214.066406 C 336.953125 204.320312 341.753906 194.761719 347 185.445312 C 352.25 176.128906 357.945312 167.058594 364.167969 158.332031 C 370.382812 149.601562 377.0625 141.171875 384.488281 133.308594 C 384.488281 133.308594 387.292969 130.375 387.292969 130.375 C 388.246094 129.410156 389.234375 128.476562 390.207031 127.527344 C 390.207031 127.527344 391.671875 126.109375 391.671875 126.109375 C 392.164062 125.640625 392.6875 125.195312 393.195312 124.738281 C 394.222656 123.832031 395.230469 122.910156 396.277344 122.019531 C 400.542969 118.519531 404.921875 115.113281 410.5 112.648438 C 411.902344 112.039062 413.398438 111.503906 415.105469 111.160156 C 415.519531 111.066406 415.984375 111.015625 416.421875 110.949219 C 416.871094 110.890625 417.363281 110.875 417.832031 110.847656 C 418.332031 110.851562 418.835938 110.863281 419.351562 110.914062 C 419.351562 110.914062 420.152344 111.035156 420.152344 111.035156 C 420.285156 111.058594 420.417969 111.078125 420.554688 111.105469 C 420.554688 111.105469 420.96875 111.214844 420.96875 111.214844 C 421.242188 111.292969 421.519531 111.375 421.792969 111.460938 C 421.792969 111.460938 422.355469 111.695312 422.355469 111.695312 C 422.355469 111.695312 423.46875 112.167969 423.46875 112.167969 C 424.238281 112.46875 424.867188 112.859375 425.550781 113.21875 C 425.550781 113.21875 426.550781 113.769531 426.550781 113.769531 C 426.550781 113.769531 427.480469 114.367188 427.480469 114.367188 C 427.480469 114.367188 428.402344 114.96875 428.402344 114.96875 C 428.714844 115.167969 429.019531 115.371094 429.300781 115.585938 C 433.964844 118.949219 437.953125 122.722656 441.730469 126.628906 C 445.5 130.539062 449.042969 134.59375 452.46875 138.71875 C 455.890625 142.847656 459.195312 147.046875 462.40625 151.3125 C 468.820312 159.847656 474.929688 168.558594 480.753906 177.519531 C 482.207031 179.769531 483.640625 182.019531 485.046875 184.378906 C 485.222656 184.667969 485.402344 184.972656 485.578125 185.285156 C 485.578125 185.285156 485.84375 185.746094 485.84375 185.746094 C 485.84375 185.746094 485.976562 185.976562 485.976562 185.976562 C 485.976562 185.976562 486.121094 186.242188 486.121094 186.242188 C 486.503906 186.929688 486.855469 187.679688 487.136719 188.304688 C 487.714844 189.59375 488.246094 190.835938 488.757812 192.089844 C 490.808594 197.082031 492.671875 202.082031 494.449219 207.117188 C 498.007812 217.1875 501.164062 227.371094 504.007812 237.648438 C 506.851562 247.921875 509.34375 258.296875 511.464844 268.753906 C 513.589844 279.207031 515.351562 289.742188 516.703125 300.339844 C 518.011719 310.941406 518.882812 321.609375 519.261719 332.308594 C 519.496094 337.65625 519.46875 343.019531 519.445312 348.378906 C 519.445312 348.378906 519.183594 356.417969 519.183594 356.417969 C 519.183594 356.417969 519.148438 357.421875 519.148438 357.421875 C 519.148438 357.421875 519.089844 358.425781 519.089844 358.425781 C 519.089844 358.425781 518.964844 360.429688 518.964844 360.429688 C 518.964844 360.429688 518.714844 364.4375 518.714844 364.4375 C 517.945312 375.117188 516.65625 385.761719 514.808594 396.304688 C 512.964844 406.851562 510.589844 417.296875 507.722656 427.605469 C 507.035156 430.1875 506.234375 432.742188 505.480469 435.308594 C 505.109375 436.59375 504.679688 437.859375 504.277344 439.136719 C 503.867188 440.40625 503.472656 441.683594 503.046875 442.953125 C 502.171875 445.480469 501.34375 448.019531 500.40625 450.527344 C 500.40625 450.527344 499.03125 454.292969 499.03125 454.292969 C 499.03125 454.292969 497.589844 458.035156 497.589844 458.035156 C 493.722656 468.003906 489.347656 477.769531 484.507812 487.304688 C 482.085938 492.070312 479.539062 496.773438 476.871094 501.410156 C 474.203125 506.046875 471.414062 510.617188 468.464844 515.089844 C 468.464844 515.089844 467.355469 516.765625 467.355469 516.765625 C 467.355469 516.765625 466.847656 517.535156 466.847656 517.535156 C 466.757812 517.675781 466.660156 517.839844 466.566406 518.035156 C 466.183594 518.804688 465.851562 519.878906 465.589844 521.011719 C 465.058594 523.324219 464.714844 525.882812 464.34375 528.503906 C 463.972656 531.128906 463.597656 533.824219 462.992188 536.582031 C 462.671875 537.96875 462.339844 539.359375 461.847656 540.769531 C 461.398438 542.175781 460.769531 543.605469 460.007812 545.011719 C 459.570312 545.707031 459.183594 546.414062 458.625 547.078125 C 458.625 547.078125 458.226562 547.578125 458.226562 547.578125 C 458.226562 547.578125 458.027344 547.828125 458.027344 547.828125 C 457.949219 547.917969 457.84375 548.015625 457.75 548.109375 C 457.375 548.472656 456.957031 548.890625 456.589844 549.125 C 455.054688 550.261719 453.621094 550.855469 452.222656 551.386719 C 449.414062 552.421875 446.695312 553.003906 443.976562 553.46875 C 438.550781 554.371094 433.167969 554.675781 427.800781 554.707031 C 427.800781 554.707031 427.484375 554.707031 427.484375 554.707031 C 427.199219 554.707031 426.921875 554.640625 426.683594 554.53125 C 426.683594 554.53125 426.679688 554.527344 426.679688 554.527344 C 426.679688 554.527344 427.796875 554.703125 427.796875 554.703125 C 426.136719 554.664062 424.480469 554.613281 422.828125 554.539062 C 421.171875 554.46875 419.519531 554.390625 417.875 554.265625 C 416.917969 554.195312 416.203125 553.363281 416.273438 552.40625 C 416.335938 551.589844 416.953125 550.949219 417.730469 550.824219 C 417.730469 550.824219 417.816406 550.8125 417.816406 550.8125 C 419.425781 550.554688 421.039062 550.34375 422.644531 550.136719 C 424.25 549.929688 425.851562 549.746094 427.457031 549.574219 C 427.746094 549.542969 428.03125 549.574219 428.292969 549.65625 C 428.292969 549.65625 428.574219 549.75 428.574219 549.75 C 428.574219 549.75 428.578125 549.75 428.578125 549.75 C 428.578125 549.75 427.460938 549.574219 427.460938 549.574219 C 430.046875 549.21875 432.621094 548.859375 435.171875 548.441406 C 437.722656 548.03125 440.25 547.566406 442.71875 547.015625 C 445.179688 546.460938 447.621094 545.816406 449.75 544.96875 C 450.300781 544.769531 450.765625 544.527344 451.25 544.304688 C 451.25 544.304688 451.878906 543.941406 451.878906 543.941406 C 451.878906 543.941406 452.035156 543.855469 452.035156 543.855469 C 452.035156 543.855469 452.148438 543.765625 452.148438 543.765625 C 452.148438 543.765625 452.386719 543.59375 452.386719 543.59375 C 452.585938 543.476562 452.601562 543.390625 452.714844 543.308594 C 452.738281 543.285156 452.757812 543.277344 452.789062 543.242188 C 452.789062 543.242188 452.894531 543.101562 452.894531 543.101562 C 452.894531 543.101562 453.105469 542.820312 453.105469 542.820312 C 453.410156 542.480469 453.640625 542.011719 453.910156 541.59375 C 454.898438 539.777344 455.570312 537.488281 456.074219 535.101562 C 456.578125 532.695312 456.910156 530.152344 457.25 527.542969 C 457.59375 524.933594 457.910156 522.246094 458.527344 519.402344 C 458.855469 517.964844 459.246094 516.476562 460.007812 514.863281 C 460.195312 514.460938 460.417969 514.046875 460.683594 513.628906 C 460.683594 513.628906 461.253906 512.738281 461.253906 512.738281 C 461.253906 512.738281 462.316406 511.101562 462.316406 511.101562 C 465.132812 506.726562 467.800781 502.246094 470.355469 497.703125 C 472.90625 493.15625 475.34375 488.542969 477.652344 483.867188 C 482.273438 474.511719 486.445312 464.933594 490.113281 455.167969 C 497.488281 435.648438 502.972656 415.429688 506.425781 394.875 C 508.152344 384.597656 509.332031 374.234375 510.003906 363.84375 C 510.003906 363.84375 510.21875 359.945312 510.21875 359.945312 C 510.21875 359.945312 510.328125 357.996094 510.328125 357.996094 C 510.328125 357.996094 510.382812 357.019531 510.382812 357.019531 C 510.382812 357.019531 510.40625 356.042969 510.40625 356.042969 C 510.40625 356.042969 510.601562 348.25 510.601562 348.25 C 510.609375 343.046875 510.617188 337.839844 510.371094 332.636719 C 509.96875 322.226562 509.082031 311.824219 507.769531 301.46875 C 506.441406 291.113281 504.707031 280.800781 502.613281 270.558594 C 500.519531 260.3125 498.066406 250.136719 495.308594 240.046875 C 492.542969 229.957031 489.460938 219.949219 486 210.09375 C 484.273438 205.167969 482.457031 200.265625 480.503906 195.484375 C 480.019531 194.292969 479.515625 193.105469 479.015625 191.980469 C 478.753906 191.402344 478.546875 190.957031 478.289062 190.492188 C 478.289062 190.492188 478.195312 190.320312 478.195312 190.320312 C 478.195312 190.320312 478.082031 190.121094 478.082031 190.121094 C 478.082031 190.121094 477.855469 189.726562 477.855469 189.726562 C 477.707031 189.464844 477.550781 189.195312 477.386719 188.921875 C 476.089844 186.746094 474.691406 184.535156 473.285156 182.347656 C 467.617188 173.585938 461.609375 164.980469 455.347656 156.617188 C 449.074219 148.273438 442.550781 140.09375 435.46875 132.65625 C 431.933594 128.953125 428.210938 125.445312 424.3125 122.613281 C 424.070312 122.421875 423.828125 122.257812 423.582031 122.105469 C 423.582031 122.105469 422.847656 121.625 422.847656 121.625 C 422.847656 121.625 422.113281 121.140625 422.113281 121.140625 C 422.113281 121.140625 421.382812 120.742188 421.382812 120.742188 C 420.898438 120.484375 420.402344 120.164062 419.9375 119.996094 C 419.9375 119.996094 419.230469 119.691406 419.230469 119.691406 C 419.230469 119.691406 418.882812 119.535156 418.882812 119.535156 C 418.839844 119.53125 418.796875 119.519531 418.753906 119.507812 C 418.421875 119.386719 417.65625 119.375 416.769531 119.558594 C 415.882812 119.726562 414.871094 120.0625 413.855469 120.503906 C 412.832031 120.941406 411.792969 121.457031 410.761719 122.058594 C 409.726562 122.636719 408.699219 123.300781 407.683594 123.980469 C 406.667969 124.679688 405.652344 125.386719 404.667969 126.171875 C 404.667969 126.171875 401.710938 128.515625 401.710938 128.515625 C 400.746094 129.332031 399.800781 130.191406 398.839844 131.027344 C 398.367188 131.449219 397.878906 131.855469 397.414062 132.296875 C 397.414062 132.296875 396.03125 133.628906 396.03125 133.628906 C 395.109375 134.519531 394.171875 135.390625 393.265625 136.300781 C 393.265625 136.300781 390.585938 139.082031 390.585938 139.082031 C 383.464844 146.546875 376.949219 154.679688 370.878906 163.128906 C 369.390625 165.261719 367.882812 167.386719 366.40625 169.53125 C 366.40625 169.53125 362.097656 176.050781 362.097656 176.050781 C 362.097656 176.050781 357.960938 182.6875 357.960938 182.6875 C 356.605469 184.914062 355.320312 187.183594 353.992188 189.429688 C 348.808594 198.480469 344.054688 207.785156 339.71875 217.277344 C 335.386719 226.777344 331.535156 236.492188 328.164062 246.367188 C 324.792969 256.246094 321.871094 266.277344 319.535156 276.445312 C 317.1875 286.609375 315.375 296.894531 314.152344 307.246094 C 313.808594 309.832031 313.597656 312.429688 313.347656 315.023438 C 313.347656 315.023438 313.164062 316.96875 313.164062 316.96875 C 313.164062 316.96875 313.03125 318.921875 313.03125 318.921875 C 313.03125 318.921875 312.769531 322.820312 312.769531 322.820312 C 312.667969 324.121094 312.632812 325.421875 312.578125 326.722656 C 312.578125 326.722656 312.425781 330.628906 312.425781 330.628906 C 312.351562 333.238281 312.347656 335.867188 312.304688 338.484375 C 312.304688 338.484375 312.253906 342.414062 312.253906 342.414062 C 312.253906 342.414062 312.304688 346.34375 312.304688 346.34375 C 312.304688 346.34375 312.355469 350.269531 312.355469 350.269531 C 312.378906 351.582031 312.371094 352.890625 312.4375 354.199219 C 312.4375 354.199219 312.742188 362.046875 312.742188 362.046875 C 312.777344 363.359375 312.882812 364.664062 312.964844 365.96875 C 312.964844 365.96875 313.214844 369.886719 313.214844 369.886719 C 313.933594 380.332031 315.0625 390.75 316.683594 401.089844 C 318.300781 411.429688 320.449219 421.683594 323.097656 431.800781 C 325.757812 441.914062 328.972656 451.882812 332.722656 461.640625 C 336.464844 471.40625 340.820312 480.933594 345.714844 490.1875 C 348.152344 494.820312 350.742188 499.371094 353.402344 503.921875 C 354.730469 506.199219 356.078125 508.46875 357.390625 510.824219 C 358.042969 512.015625 358.691406 513.210938 359.28125 514.566406 C 359.570312 515.246094 359.859375 515.972656 360.046875 516.910156 C 360.046875 516.910156 360.410156 518.878906 360.410156 518.878906 C 360.875 521.484375 361.335938 524.019531 361.964844 526.480469 C 362.59375 528.9375 363.386719 531.316406 364.453125 533.539062 C 365.511719 535.757812 366.851562 537.816406 368.480469 539.613281 C 369.304688 540.503906 370.171875 541.351562 371.125 542.109375 C 372.042969 542.90625 373.066406 543.582031 374.117188 544.222656 C 376.226562 545.480469 378.53125 546.457031 380.929688 547.203125 C 382.128906 547.578125 383.347656 547.890625 384.59375 548.164062 C 385.851562 548.4375 387.125 548.675781 388.402344 548.894531 C 393.515625 549.757812 398.726562 550.269531 403.945312 550.582031 C 403.945312 550.582031 403.949219 550.582031 403.949219 550.582031 C 404.902344 550.640625 405.628906 551.460938 405.570312 552.414062 C 405.515625 553.355469 404.710938 554.074219 403.773438 554.035156 Z M 403.773438 554.035156 " fill-opacity="1" fill-rule="nonzero"></path></g></g></g></g></g><g clip-path="url(#9fc4da2860)"><g clip-path="url(#dfca94e3ad)"><g clip-path="url(#456bd13c2a)"><g clip-path="url(#027b81b1ae)"><g clip-path="url(#11f0ba822d)"><path fill="#ffffff" d="M 331.101562 222.917969 C 331.101562 222.917969 331.101562 222.914062 331.101562 222.914062 C 331.238281 222.480469 331.554688 222.15625 331.945312 222 C 331.945312 222 332.15625 221.914062 332.15625 221.914062 C 333.761719 221.269531 335.382812 220.640625 337.003906 220.019531 C 337.003906 220.019531 341.933594 218.347656 341.933594 218.347656 C 341.933594 218.347656 346.925781 216.882812 346.925781 216.882812 C 348.59375 216.410156 350.28125 216.003906 351.964844 215.585938 C 358.714844 213.992188 365.550781 212.742188 372.421875 211.898438 C 374.140625 211.648438 375.863281 211.492188 377.585938 211.320312 C 379.304688 211.148438 381.027344 210.96875 382.753906 210.832031 C 382.753906 210.832031 387.929688 210.496094 387.929688 210.496094 C 387.929688 210.496094 390.519531 210.339844 390.519531 210.339844 C 390.519531 210.339844 393.109375 210.25 393.109375 210.25 C 396.5625 210.128906 400.019531 210.023438 403.46875 210.054688 C 403.46875 210.054688 408.648438 210.074219 408.648438 210.074219 C 410.375 210.109375 412.097656 210.175781 413.820312 210.222656 C 413.820312 210.222656 418.992188 210.398438 418.992188 210.398438 C 418.992188 210.398438 424.148438 210.703125 424.148438 210.703125 C 424.148438 210.703125 429.308594 211.035156 429.308594 211.035156 C 429.308594 211.035156 434.453125 211.496094 434.453125 211.496094 C 434.453125 211.496094 439.59375 211.960938 439.59375 211.960938 C 440.453125 212.03125 441.304688 212.140625 442.160156 212.234375 C 442.160156 212.234375 444.722656 212.53125 444.722656 212.53125 C 444.722656 212.53125 449.84375 213.160156 449.84375 213.160156 C 450.695312 213.265625 451.550781 213.359375 452.402344 213.480469 C 452.402344 213.480469 454.953125 213.851562 454.953125 213.851562 C 458.355469 214.339844 461.753906 214.835938 465.144531 215.386719 C 468.53125 215.957031 471.917969 216.53125 475.285156 217.191406 C 482.027344 218.480469 488.742188 219.902344 495.402344 221.546875 C 496.328125 221.773438 496.898438 222.710938 496.667969 223.640625 C 496.457031 224.503906 495.628906 225.054688 494.769531 224.945312 C 481.230469 223.214844 467.726562 221.480469 454.195312 220.25 C 454.195312 220.25 451.664062 219.988281 451.664062 219.988281 C 450.820312 219.902344 449.972656 219.847656 449.125 219.777344 C 449.125 219.777344 444.050781 219.371094 444.050781 219.371094 C 442.359375 219.246094 440.671875 219.054688 438.980469 218.949219 C 438.980469 218.949219 433.90625 218.621094 433.90625 218.621094 C 433.90625 218.621094 428.832031 218.292969 428.832031 218.292969 C 428.832031 218.292969 423.757812 218.078125 423.757812 218.078125 C 423.757812 218.078125 418.683594 217.839844 418.683594 217.839844 C 418.683594 217.839844 413.613281 217.722656 413.613281 217.722656 C 411.921875 217.683594 410.230469 217.625 408.539062 217.601562 C 408.539062 217.601562 403.472656 217.597656 403.472656 217.597656 C 403.472656 217.597656 400.9375 217.582031 400.9375 217.582031 C 400.9375 217.582031 399.671875 217.578125 399.671875 217.578125 C 399.671875 217.578125 398.402344 217.605469 398.402344 217.605469 C 398.402344 217.605469 393.339844 217.703125 393.339844 217.703125 C 393.339844 217.703125 390.808594 217.75 390.808594 217.75 C 390.808594 217.75 388.28125 217.863281 388.28125 217.863281 C 388.28125 217.863281 383.226562 218.0625 383.226562 218.0625 C 383.226562 218.0625 378.179688 218.378906 378.179688 218.378906 C 378.179688 218.378906 375.65625 218.535156 375.65625 218.535156 C 374.8125 218.578125 373.976562 218.683594 373.136719 218.75 C 359.707031 219.847656 346.355469 221.8125 333.261719 225.1875 C 333.261719 225.1875 334.3125 224.1875 334.3125 224.1875 C 334.3125 224.1875 334.3125 224.191406 334.3125 224.191406 C 333.894531 225.054688 332.859375 225.414062 331.996094 224.996094 C 331.214844 224.613281 330.847656 223.722656 331.101562 222.917969 Z M 331.101562 222.917969 " fill-opacity="1" fill-rule="nonzero"></path></g></g></g></g></g><g clip-path="url(#646e50462e)"><g clip-path="url(#9e17966740)"><g clip-path="url(#56d1308e06)"><g clip-path="url(#2eefe2f8b2)"><g clip-path="url(#07d338f118)"><path fill="#ffffff" d="M 358.492188 516.226562 C 361.144531 517.003906 363.796875 517.765625 366.457031 518.484375 C 369.121094 519.1875 371.792969 519.859375 374.476562 520.484375 C 377.164062 521.101562 379.855469 521.6875 382.558594 522.234375 C 385.257812 522.785156 387.96875 523.3125 390.679688 523.839844 C 390.679688 523.839844 390.6875 523.839844 390.6875 523.839844 C 391.625 524.023438 392.234375 524.933594 392.054688 525.871094 C 391.882812 526.746094 391.082031 527.335938 390.214844 527.265625 C 387.402344 527.035156 384.601562 526.675781 381.820312 526.210938 C 379.039062 525.738281 376.269531 525.175781 373.527344 524.507812 C 370.78125 523.855469 368.058594 523.113281 365.363281 522.269531 C 362.667969 521.441406 359.996094 520.527344 357.371094 519.496094 C 356.480469 519.148438 356.042969 518.144531 356.390625 517.253906 C 356.722656 516.414062 357.632812 515.976562 358.480469 516.222656 C 358.480469 516.222656 358.492188 516.226562 358.492188 516.226562 Z M 358.492188 516.226562 " fill-opacity="1" fill-rule="nonzero"></path></g></g></g></g></g><g clip-path="url(#808efe5fdd)"><g clip-path="url(#f5e990823b)"><g clip-path="url(#bcd50c400f)"><g clip-path="url(#d8ee082cd5)"><g clip-path="url(#aab14256ab)"><path fill="#ffffff" d="M 429.007812 524.832031 C 429.007812 524.832031 437.144531 523.53125 437.144531 523.53125 C 437.144531 523.53125 441.199219 522.863281 441.199219 522.863281 C 441.199219 522.863281 445.246094 522.164062 445.246094 522.164062 C 445.246094 522.164062 453.328125 520.6875 453.328125 520.6875 C 456.027344 520.210938 458.722656 519.703125 461.457031 519.300781 C 461.457031 519.300781 461.460938 519.300781 461.460938 519.300781 C 462.410156 519.160156 463.292969 519.820312 463.433594 520.769531 C 463.554688 521.59375 463.074219 522.367188 462.324219 522.648438 C 459.691406 523.632812 456.992188 524.402344 454.273438 525.09375 C 451.550781 525.753906 448.804688 526.328125 446.03125 526.769531 C 444.648438 527.003906 443.261719 527.210938 441.871094 527.386719 C 440.480469 527.574219 439.085938 527.722656 437.691406 527.855469 C 434.898438 528.109375 432.09375 528.277344 429.289062 528.277344 C 429.289062 528.277344 429.28125 528.277344 429.28125 528.277344 C 428.324219 528.277344 427.546875 527.5 427.550781 526.542969 C 427.550781 525.679688 428.183594 524.964844 429.007812 524.832031 Z M 429.007812 524.832031 " fill-opacity="1" fill-rule="nonzero"></path></g></g></g></g></g><g clip-path="url(#fa17fb9f81)"><g clip-path="url(#41a4f9b84f)"><g clip-path="url(#3de9904d77)"><g clip-path="url(#e3081a0dc4)"><g clip-path="url(#7cded860ff)"><path fill="#ffffff" d="M 332.84375 467.214844 C 329.476562 469.703125 326.285156 472.441406 323.316406 475.390625 C 320.359375 478.359375 317.617188 481.53125 315.15625 484.90625 C 310.261719 491.667969 306.523438 499.25 304.316406 507.28125 C 303.207031 511.296875 302.46875 515.414062 302.085938 519.574219 C 301.710938 523.734375 301.738281 527.933594 302.042969 532.117188 C 302.042969 532.117188 302.171875 533.6875 302.171875 533.6875 C 302.21875 534.210938 302.25 534.734375 302.332031 535.253906 C 302.332031 535.253906 302.742188 538.382812 302.742188 538.382812 C 302.886719 539.425781 303.105469 540.457031 303.28125 541.496094 C 303.28125 541.496094 303.5625 543.050781 303.5625 543.050781 C 303.5625 543.050781 303.914062 544.59375 303.914062 544.59375 C 303.914062 544.59375 304.625 547.683594 304.625 547.683594 C 304.625 547.683594 305.472656 550.738281 305.472656 550.738281 C 305.617188 551.25 305.746094 551.761719 305.902344 552.269531 C 305.902344 552.269531 306.394531 553.78125 306.394531 553.78125 C 306.394531 553.78125 307.375 556.804688 307.375 556.804688 C 307.375 556.804688 302.769531 556.199219 302.769531 556.199219 C 304.507812 553.773438 306.261719 551.480469 308.070312 549.183594 C 308.972656 548.039062 309.890625 546.910156 310.808594 545.777344 C 311.742188 544.660156 312.664062 543.53125 313.609375 542.421875 C 317.382812 537.984375 321.3125 533.675781 325.464844 529.570312 C 329.617188 525.460938 333.96875 521.535156 338.609375 517.9375 C 338.609375 517.9375 342.164062 515.324219 342.164062 515.324219 C 343.378906 514.492188 344.632812 513.707031 345.867188 512.898438 C 348.347656 511.300781 350.984375 509.902344 353.722656 508.707031 C 354.597656 508.324219 355.613281 508.722656 355.996094 509.597656 C 356.375 510.457031 355.992188 511.457031 355.148438 511.855469 C 355.148438 511.855469 355.132812 511.863281 355.132812 511.863281 C 352.613281 513.039062 350.167969 514.410156 347.839844 515.996094 C 346.683594 516.800781 345.511719 517.574219 344.367188 518.398438 C 344.367188 518.398438 341.019531 520.996094 341.019531 520.996094 C 336.632812 524.578125 332.5 528.496094 328.558594 532.601562 C 324.609375 536.707031 320.867188 541.027344 317.28125 545.46875 C 316.382812 546.578125 315.507812 547.703125 314.621094 548.820312 C 313.75 549.953125 312.878906 551.082031 312.023438 552.222656 C 310.320312 554.5 308.632812 556.835938 307.066406 559.140625 C 307.066406 559.140625 307.046875 559.171875 307.046875 559.171875 C 306.246094 560.347656 304.640625 560.65625 303.460938 559.855469 C 302.972656 559.523438 302.636719 559.054688 302.464844 558.535156 C 302.464844 558.535156 301.414062 555.378906 301.414062 555.378906 C 301.414062 555.378906 300.890625 553.800781 300.890625 553.800781 C 300.722656 553.273438 300.582031 552.738281 300.425781 552.203125 C 300.425781 552.203125 299.515625 549 299.515625 549 C 299.515625 549 298.742188 545.753906 298.742188 545.753906 C 298.742188 545.753906 298.363281 544.128906 298.363281 544.128906 C 298.363281 544.128906 298.054688 542.488281 298.054688 542.488281 C 297.859375 541.390625 297.621094 540.304688 297.460938 539.199219 C 297.460938 539.199219 297 535.882812 297 535.882812 C 296.914062 535.332031 296.871094 534.773438 296.820312 534.214844 C 296.820312 534.214844 296.671875 532.542969 296.671875 532.542969 C 296.3125 528.085938 296.253906 523.589844 296.625 519.105469 C 297.003906 514.628906 297.765625 510.171875 298.9375 505.816406 C 301.265625 497.105469 305.261719 488.859375 310.484375 481.539062 C 313.109375 477.890625 316.027344 474.460938 319.171875 471.265625 C 322.328125 468.082031 325.714844 465.132812 329.304688 462.445312 C 330.621094 461.460938 332.480469 461.726562 333.464844 463.039062 C 334.449219 464.351562 334.179688 466.214844 332.867188 467.199219 C 332.867188 467.199219 332.851562 467.210938 332.851562 467.210938 C 332.851562 467.210938 332.84375 467.214844 332.84375 467.214844 Z M 332.84375 467.214844 " fill-opacity="1" fill-rule="nonzero"></path></g></g></g></g></g><g clip-path="url(#82885c76fd)"><g clip-path="url(#7b1930eb55)"><g clip-path="url(#d9fb91a86d)"><g clip-path="url(#581e6e905c)"><g clip-path="url(#4618a0ed2a)"><path fill="#ffffff" d="M 467.304688 510.257812 C 467.304688 510.257812 475.125 515.691406 475.125 515.691406 C 475.125 515.691406 474.640625 515.425781 474.640625 515.425781 C 474.640625 515.425781 474.644531 515.425781 474.644531 515.425781 C 474.808594 515.492188 474.960938 515.574219 475.097656 515.671875 C 475.097656 515.671875 475.128906 515.695312 475.128906 515.695312 C 482.933594 521.28125 490.5625 527.140625 497.804688 533.535156 C 501.421875 536.734375 504.941406 540.070312 508.269531 543.644531 C 511.585938 547.222656 514.738281 551.023438 517.367188 555.355469 C 517.367188 555.355469 512.746094 555.523438 512.746094 555.523438 C 512.746094 555.523438 512.886719 555.234375 512.886719 555.234375 C 512.886719 555.234375 513.035156 554.902344 513.035156 554.902344 C 513.136719 554.675781 513.238281 554.453125 513.335938 554.214844 C 513.53125 553.753906 513.71875 553.28125 513.902344 552.804688 C 514.273438 551.855469 514.613281 550.882812 514.9375 549.90625 C 515.574219 547.949219 516.136719 545.957031 516.609375 543.941406 C 517.554688 539.90625 518.15625 535.789062 518.441406 531.648438 C 518.722656 527.507812 518.667969 523.34375 518.273438 519.207031 C 518.273438 519.207031 518.113281 517.65625 518.113281 517.65625 C 518.0625 517.140625 518.003906 516.621094 517.917969 516.109375 C 517.757812 515.082031 517.609375 514.054688 517.441406 513.03125 C 517.441406 513.03125 516.816406 509.972656 516.816406 509.972656 C 516.726562 509.460938 516.582031 508.960938 516.457031 508.457031 C 516.457031 508.457031 516.066406 506.945312 516.066406 506.945312 C 515.933594 506.441406 515.820312 505.933594 515.667969 505.433594 C 515.667969 505.433594 515.203125 503.945312 515.203125 503.945312 C 515.203125 503.945312 514.734375 502.453125 514.734375 502.453125 C 514.65625 502.207031 514.585938 501.957031 514.5 501.710938 C 514.5 501.710938 514.226562 500.976562 514.226562 500.976562 C 514.226562 500.976562 513.136719 498.046875 513.136719 498.046875 C 512.746094 497.078125 512.3125 496.128906 511.902344 495.171875 C 511.691406 494.691406 511.492188 494.210938 511.273438 493.734375 C 511.273438 493.734375 510.574219 492.335938 510.574219 492.335938 C 510.101562 491.402344 509.652344 490.457031 509.160156 489.535156 C 509.160156 489.535156 507.609375 486.808594 507.609375 486.808594 C 507.34375 486.355469 507.101562 485.890625 506.820312 485.449219 C 506.820312 485.449219 505.96875 484.128906 505.96875 484.128906 C 501.476562 477.050781 496.035156 470.558594 489.960938 464.695312 C 489.273438 464.03125 489.253906 462.9375 489.917969 462.25 C 490.570312 461.570312 491.648438 461.542969 492.339844 462.183594 C 498.683594 468.101562 504.4375 474.714844 509.25 482.011719 C 509.25 482.011719 510.160156 483.375 510.160156 483.375 C 510.460938 483.832031 510.726562 484.3125 511.007812 484.777344 C 511.007812 484.777344 512.679688 487.601562 512.679688 487.601562 C 513.210938 488.558594 513.703125 489.539062 514.214844 490.507812 C 514.214844 490.507812 514.972656 491.964844 514.972656 491.964844 C 515.210938 492.457031 515.429688 492.960938 515.660156 493.460938 C 516.109375 494.460938 516.578125 495.453125 517.011719 496.460938 C 517.011719 496.460938 518.210938 499.527344 518.210938 499.527344 C 518.210938 499.527344 518.511719 500.292969 518.511719 500.292969 C 518.605469 500.550781 518.6875 500.8125 518.777344 501.074219 C 518.777344 501.074219 519.296875 502.636719 519.296875 502.636719 C 519.296875 502.636719 519.8125 504.203125 519.8125 504.203125 C 519.984375 504.726562 520.113281 505.261719 520.265625 505.789062 C 520.265625 505.789062 520.703125 507.378906 520.703125 507.378906 C 520.84375 507.910156 521.003906 508.4375 521.113281 508.976562 C 521.113281 508.976562 521.828125 512.199219 521.828125 512.199219 C 522.027344 513.28125 522.203125 514.371094 522.390625 515.453125 C 522.492188 515.996094 522.5625 516.542969 522.625 517.089844 C 522.625 517.089844 522.824219 518.730469 522.824219 518.730469 C 523.320312 523.105469 523.457031 527.527344 523.234375 531.929688 C 523.011719 536.335938 522.445312 540.722656 521.511719 545.042969 C 521.042969 547.203125 520.480469 549.347656 519.832031 551.46875 C 519.5 552.53125 519.152344 553.585938 518.765625 554.636719 C 518.570312 555.164062 518.371094 555.6875 518.160156 556.214844 C 518.058594 556.476562 517.941406 556.742188 517.832031 557.003906 C 517.832031 557.003906 517.65625 557.410156 517.65625 557.410156 C 517.65625 557.410156 517.457031 557.84375 517.457031 557.84375 C 516.824219 559.144531 515.253906 559.683594 513.953125 559.050781 C 513.472656 558.816406 513.09375 558.453125 512.84375 558.023438 C 512.84375 558.023438 512.835938 558.011719 512.835938 558.011719 C 510.566406 554.144531 507.660156 550.511719 504.546875 547.058594 C 501.417969 543.601562 498.050781 540.320312 494.566406 537.152344 C 487.585938 530.816406 480.144531 524.929688 472.515625 519.304688 C 472.515625 519.304688 473 519.570312 473 519.570312 C 473 519.570312 472.996094 519.570312 472.996094 519.570312 C 472.996094 519.570312 472.992188 519.566406 472.992188 519.566406 C 472.824219 519.5 472.65625 519.40625 472.511719 519.304688 C 472.511719 519.304688 464.855469 513.824219 464.855469 513.824219 C 464.855469 513.824219 464.8125 513.792969 464.8125 513.792969 C 463.839844 513.097656 463.617188 511.746094 464.3125 510.773438 C 465 509.8125 466.335938 509.582031 467.304688 510.257812 Z M 467.304688 510.257812 " fill-opacity="1" fill-rule="nonzero"></path></g></g></g></g></g><g clip-path="url(#dca7f10dc2)"><g clip-path="url(#6a5bc1d2b9)"><g clip-path="url(#ae3cca2aba)"><g clip-path="url(#9b2756699d)"><g clip-path="url(#344c236980)"><path fill="#ffffff" d="M 407.257812 458.617188 C 407.734375 458.566406 408.3125 458.613281 408.835938 458.792969 C 409.09375 458.882812 409.335938 458.996094 409.550781 459.125 C 409.550781 459.125 409.675781 459.203125 409.675781 459.203125 C 409.675781 459.203125 409.886719 459.34375 409.886719 459.34375 C 410.027344 459.4375 410.167969 459.53125 410.296875 459.625 C 410.558594 459.808594 410.828125 459.992188 411.078125 460.183594 C 411.59375 460.558594 412.089844 460.941406 412.578125 461.332031 C 413.554688 462.113281 414.492188 462.925781 415.410156 463.761719 C 417.230469 465.4375 418.933594 467.230469 420.542969 469.097656 C 423.714844 472.871094 426.460938 477.011719 428.625 481.445312 C 430.789062 485.875 432.339844 490.597656 433.289062 495.417969 C 434.222656 500.242188 434.496094 505.164062 434.253906 510.019531 C 434.199219 512.457031 433.824219 514.859375 433.542969 517.265625 C 433.542969 517.265625 432.867188 520.824219 432.867188 520.824219 C 432.742188 521.417969 432.660156 522.015625 432.503906 522.597656 C 432.503906 522.597656 432.050781 524.347656 432.050781 524.347656 C 431.738281 525.511719 431.46875 526.6875 431.117188 527.835938 C 431.117188 527.835938 429.996094 531.253906 429.996094 531.253906 C 429.804688 531.824219 429.628906 532.398438 429.425781 532.960938 C 429.425781 532.960938 428.765625 534.628906 428.765625 534.628906 C 428.765625 534.628906 427.441406 537.964844 427.441406 537.964844 C 427.238281 538.527344 426.957031 539.054688 426.714844 539.597656 C 426.714844 539.597656 425.960938 541.222656 425.960938 541.222656 C 425.453125 542.300781 424.972656 543.390625 424.441406 544.457031 C 424.441406 544.457031 422.765625 547.605469 422.765625 547.605469 C 422.765625 547.605469 421.929688 549.179688 421.929688 549.179688 C 421.648438 549.707031 421.378906 550.234375 421.0625 550.738281 C 421.0625 550.738281 419.234375 553.792969 419.234375 553.792969 C 419.234375 553.792969 418.320312 555.316406 418.320312 555.316406 C 418.015625 555.824219 417.722656 556.339844 417.386719 556.828125 C 417.386719 556.828125 413.453125 562.738281 413.453125 562.738281 C 413.453125 562.738281 413.449219 562.75 413.449219 562.75 C 412.925781 563.53125 411.867188 563.746094 411.082031 563.222656 C 411 563.167969 410.917969 563.101562 410.847656 563.035156 C 410.847656 563.035156 410.84375 563.03125 410.84375 563.03125 C 409.914062 562.171875 409.109375 561.339844 408.28125 560.46875 C 407.464844 559.601562 406.667969 558.714844 405.890625 557.816406 C 404.339844 556.019531 402.855469 554.164062 401.445312 552.253906 C 398.625 548.433594 396.078125 544.398438 393.882812 540.160156 C 391.6875 535.921875 389.835938 531.484375 388.4375 526.886719 C 387.046875 522.285156 386.113281 517.519531 385.722656 512.691406 C 385.359375 507.863281 385.507812 502.972656 386.273438 498.171875 C 386.441406 496.96875 386.691406 495.777344 386.925781 494.585938 C 387.207031 493.40625 387.460938 492.214844 387.800781 491.046875 C 388.105469 489.871094 388.488281 488.71875 388.855469 487.558594 C 389.042969 486.984375 389.261719 486.417969 389.464844 485.84375 C 389.664062 485.273438 389.875 484.703125 390.109375 484.140625 C 390.109375 484.140625 390.789062 482.453125 390.789062 482.453125 C 390.789062 482.453125 391.527344 480.792969 391.527344 480.792969 C 391.527344 480.792969 391.898438 479.964844 391.898438 479.964844 C 391.898438 479.964844 392.300781 479.148438 392.300781 479.148438 C 392.300781 479.148438 393.101562 477.519531 393.101562 477.519531 C 394.230469 475.382812 395.40625 473.265625 396.710938 471.238281 C 397.035156 470.730469 397.351562 470.214844 397.6875 469.714844 C 397.6875 469.714844 398.703125 468.222656 398.703125 468.222656 C 399.367188 467.214844 400.105469 466.261719 400.808594 465.289062 C 401.519531 464.316406 402.28125 463.390625 403.019531 462.4375 C 403.019531 462.4375 403.15625 462.261719 403.15625 462.261719 C 403.15625 462.261719 403.378906 461.996094 403.378906 461.996094 C 403.539062 461.8125 403.703125 461.628906 403.875 461.445312 C 404.210938 461.082031 404.574219 460.726562 404.949219 460.390625 C 405.699219 459.714844 406.5 459.125 407.257812 458.617188 Z M 408.246094 465.039062 C 408.246094 465.414062 408.289062 465.703125 408.28125 465.910156 C 408.273438 466.015625 408.257812 466.101562 408.21875 466.179688 C 408.195312 466.21875 408.171875 466.253906 408.140625 466.289062 C 408.140625 466.289062 408.082031 466.359375 408.082031 466.359375 C 408.082031 466.359375 407.945312 466.519531 407.945312 466.519531 C 407.234375 467.390625 406.496094 468.242188 405.804688 469.132812 C 405.125 470.023438 404.410156 470.894531 403.765625 471.8125 C 403.765625 471.8125 402.78125 473.179688 402.78125 473.179688 C 402.457031 473.636719 402.152344 474.105469 401.835938 474.570312 C 400.570312 476.421875 399.433594 478.351562 398.335938 480.296875 C 398.335938 480.296875 397.554688 481.777344 397.554688 481.777344 C 397.554688 481.777344 397.167969 482.519531 397.167969 482.519531 C 397.167969 482.519531 396.804688 483.273438 396.804688 483.273438 C 396.804688 483.273438 396.082031 484.78125 396.082031 484.78125 C 396.082031 484.78125 395.414062 486.316406 395.414062 486.316406 C 395.183594 486.824219 394.980469 487.339844 394.78125 487.859375 C 394.582031 488.378906 394.367188 488.894531 394.179688 489.417969 C 393.816406 490.46875 393.4375 491.515625 393.128906 492.585938 C 392.785156 493.644531 392.527344 494.726562 392.238281 495.800781 C 392 496.882812 391.734375 497.964844 391.550781 499.0625 C 390.730469 503.433594 390.476562 507.90625 390.683594 512.363281 C 390.929688 516.824219 391.667969 521.265625 392.851562 525.609375 C 394.042969 529.949219 395.671875 534.1875 397.648438 538.265625 C 399.625 542.351562 401.953125 546.277344 404.558594 550.015625 C 405.859375 551.886719 407.238281 553.707031 408.679688 555.46875 C 409.402344 556.351562 410.140625 557.21875 410.894531 558.066406 C 411.644531 558.902344 412.441406 559.761719 413.199219 560.503906 C 413.199219 560.503906 410.59375 560.800781 410.59375 560.800781 C 410.59375 560.800781 414.285156 554.910156 414.285156 554.910156 C 414.601562 554.425781 414.871094 553.914062 415.160156 553.414062 C 415.160156 553.414062 416.007812 551.902344 416.007812 551.902344 C 416.007812 551.902344 417.707031 548.878906 417.707031 548.878906 C 418 548.382812 418.25 547.863281 418.507812 547.347656 C 418.507812 547.347656 419.277344 545.796875 419.277344 545.796875 C 419.277344 545.796875 420.816406 542.703125 420.816406 542.703125 C 421.304688 541.660156 421.738281 540.59375 422.199219 539.539062 C 422.199219 539.539062 422.882812 537.957031 422.882812 537.957031 C 423.101562 537.425781 423.359375 536.910156 423.542969 536.367188 C 423.542969 536.367188 424.71875 533.136719 424.71875 533.136719 C 424.71875 533.136719 425.3125 531.523438 425.3125 531.523438 C 425.488281 530.980469 425.640625 530.429688 425.808594 529.886719 C 425.808594 529.886719 426.789062 526.601562 426.789062 526.601562 C 427.09375 525.503906 427.3125 524.386719 427.582031 523.28125 C 427.582031 523.28125 427.964844 521.621094 427.964844 521.621094 C 428.101562 521.066406 428.160156 520.503906 428.261719 519.945312 C 428.261719 519.945312 428.808594 516.589844 428.808594 516.589844 C 429.003906 514.339844 429.296875 512.09375 429.285156 509.84375 C 429.382812 505.347656 429.011719 500.859375 428.046875 496.507812 C 427.066406 492.160156 425.554688 487.949219 423.5 484.019531 C 421.445312 480.085938 418.875 476.433594 415.9375 473.113281 C 414.441406 471.480469 412.871094 469.910156 411.207031 468.460938 C 410.371094 467.742188 409.523438 467.042969 408.648438 466.386719 C 408.214844 466.058594 407.777344 465.734375 407.335938 465.433594 C 407.117188 465.273438 406.898438 465.136719 406.679688 464.988281 C 406.566406 464.914062 406.460938 464.847656 406.359375 464.785156 C 406.359375 464.785156 406.203125 464.683594 406.203125 464.683594 C 406.203125 464.683594 406.183594 464.671875 406.183594 464.671875 C 406.207031 464.6875 406.097656 464.621094 406.230469 464.703125 C 406.414062 464.8125 406.628906 464.910156 406.855469 464.976562 C 407.3125 465.117188 407.828125 465.128906 408.246094 465.039062 Z M 408.246094 465.039062 " fill-opacity="1" fill-rule="nonzero"></path></g></g></g></g></g><g clip-path="url(#27f44ea658)"><g clip-path="url(#56dd54660b)"><g clip-path="url(#96a71efb8d)"><g clip-path="url(#cfb0853f84)"><g clip-path="url(#c636d6c127)"><path fill="#ffffff" d="M 379.03125 288.519531 C 379.617188 286.273438 380.417969 284.132812 381.390625 282.082031 C 382.355469 280.03125 383.472656 278.0625 384.71875 276.179688 C 387.214844 272.417969 390.222656 268.96875 393.769531 266.070312 C 397.304688 263.1875 401.441406 260.859375 406.015625 259.710938 C 408.296875 259.144531 410.667969 258.878906 413.027344 258.945312 C 413.617188 258.957031 414.207031 259.019531 414.792969 259.054688 C 415.382812 259.105469 415.972656 259.199219 416.558594 259.285156 C 417.714844 259.496094 418.859375 259.746094 419.964844 260.082031 C 424.40625 261.394531 428.511719 263.5 432.238281 266.148438 C 435.953125 268.804688 439.300781 272.046875 441.921875 275.871094 C 443.238281 277.777344 444.375 279.820312 445.285156 281.96875 C 446.203125 284.117188 446.839844 286.386719 447.25 288.6875 C 447.480469 289.835938 447.574219 291.003906 447.683594 292.167969 C 447.683594 292.167969 447.742188 293.917969 447.742188 293.917969 C 447.773438 294.5 447.71875 295.078125 447.710938 295.660156 C 447.710938 295.660156 447.679688 296.535156 447.679688 296.535156 C 447.660156 296.824219 447.621094 297.113281 447.59375 297.402344 C 447.53125 297.976562 447.484375 298.558594 447.40625 299.132812 C 447.207031 300.269531 447.046875 301.421875 446.75 302.53125 C 446.613281 303.089844 446.496094 303.664062 446.335938 304.203125 C 446.335938 304.203125 445.863281 305.820312 445.863281 305.820312 C 445.714844 306.359375 445.523438 306.890625 445.351562 307.425781 C 445.171875 307.960938 445.011719 308.5 444.804688 309.027344 C 444.054688 311.15625 443.136719 313.246094 442.089844 315.285156 C 439.988281 319.34375 437.15625 323.207031 433.371094 326.136719 C 431.496094 327.613281 429.371094 328.78125 427.152344 329.671875 C 424.921875 330.535156 422.589844 331.085938 420.261719 331.355469 C 417.933594 331.628906 415.605469 331.640625 413.34375 331.5 C 412.796875 331.472656 412.171875 331.410156 411.578125 331.34375 C 410.988281 331.265625 410.40625 331.179688 409.832031 331.066406 C 409.253906 330.972656 408.699219 330.832031 408.128906 330.710938 C 407.570312 330.570312 407.007812 330.4375 406.457031 330.277344 C 402.042969 329.03125 397.839844 327.148438 393.992188 324.632812 C 392.074219 323.375 390.242188 321.960938 388.558594 320.375 C 386.878906 318.777344 385.355469 317.007812 384.027344 315.097656 C 381.347656 311.289062 379.5625 306.851562 378.792969 302.300781 C 378.4375 300.023438 378.234375 297.722656 378.316406 295.441406 C 378.308594 294.300781 378.429688 293.171875 378.523438 292.039062 C 378.558594 291.472656 378.667969 290.917969 378.746094 290.359375 C 378.746094 290.359375 379 288.683594 379 288.683594 C 379.140625 287.742188 380.023438 287.09375 380.964844 287.234375 C 381.890625 287.375 382.535156 288.226562 382.421875 289.152344 C 382.421875 289.152344 382.414062 289.222656 382.414062 289.222656 C 381.898438 293.378906 381.867188 297.570312 382.695312 301.574219 C 382.695312 301.574219 383.035156 303.0625 383.035156 303.0625 C 383.164062 303.554688 383.320312 304.035156 383.460938 304.523438 C 383.535156 304.765625 383.597656 305.011719 383.683594 305.25 C 383.683594 305.25 383.953125 305.960938 383.953125 305.960938 C 384.136719 306.433594 384.285156 306.917969 384.511719 307.371094 C 385.292969 309.238281 386.339844 310.980469 387.519531 312.613281 C 389.890625 315.894531 392.988281 318.636719 396.441406 320.84375 C 398.171875 321.949219 399.996094 322.917969 401.882812 323.75 C 403.765625 324.585938 405.714844 325.289062 407.691406 325.839844 C 408.183594 325.980469 408.679688 326.09375 409.175781 326.21875 C 409.671875 326.320312 410.171875 326.445312 410.664062 326.523438 C 411.160156 326.617188 411.652344 326.6875 412.140625 326.75 C 412.628906 326.804688 413.085938 326.847656 413.625 326.878906 C 415.699219 327.007812 417.738281 327 419.730469 326.769531 C 421.722656 326.546875 423.652344 326.089844 425.484375 325.386719 C 427.300781 324.660156 429.027344 323.722656 430.574219 322.511719 C 433.695312 320.113281 436.167969 316.824219 438.0625 313.183594 C 439.007812 311.355469 439.855469 309.457031 440.554688 307.488281 C 440.746094 307.003906 440.898438 306.5 441.066406 306.003906 C 441.226562 305.503906 441.40625 305.015625 441.546875 304.507812 C 441.546875 304.507812 441.992188 302.992188 441.992188 302.992188 C 442.144531 302.488281 442.242188 301.996094 442.367188 301.496094 C 442.640625 300.507812 442.773438 299.5 442.957031 298.5 C 443.027344 297.996094 443.066406 297.492188 443.125 296.988281 C 443.152344 296.734375 443.183594 296.484375 443.203125 296.230469 C 443.203125 296.230469 443.230469 295.476562 443.230469 295.476562 C 443.238281 294.972656 443.292969 294.464844 443.261719 293.960938 C 443.261719 293.960938 443.214844 292.449219 443.214844 292.449219 C 443.121094 291.449219 443.050781 290.445312 442.851562 289.460938 C 442.1875 285.496094 440.582031 281.714844 438.304688 278.351562 C 436.035156 274.976562 433.070312 272.042969 429.738281 269.617188 C 426.40625 267.199219 422.675781 265.257812 418.785156 264.074219 C 417.8125 263.769531 416.832031 263.550781 415.851562 263.359375 C 415.363281 263.285156 414.878906 263.203125 414.382812 263.15625 C 413.886719 263.125 413.394531 263.0625 412.898438 263.050781 C 410.910156 262.976562 408.917969 263.183594 406.976562 263.648438 C 403.082031 264.570312 399.417969 266.53125 396.191406 269.089844 C 392.964844 271.652344 390.136719 274.785156 387.78125 278.234375 C 385.449219 281.6875 383.472656 285.464844 382.378906 289.390625 C 382.378906 289.390625 382.371094 289.417969 382.371094 289.417969 C 382.113281 290.335938 381.160156 290.875 380.242188 290.617188 C 379.332031 290.363281 378.796875 289.425781 379.03125 288.519531 Z M 379.03125 288.519531 " fill-opacity="1" fill-rule="nonzero"></path></g></g></g></g></g><g clip-path="url(#487d27df70)"><g clip-path="url(#90222f1941)"><g clip-path="url(#409a68e836)"><g clip-path="url(#1ea0be092c)"><g clip-path="url(#33d16a9ea5)"><path fill="#ffffff" d="M 357.984375 289.671875 C 358.40625 285.820312 359.550781 282.265625 361.015625 278.929688 C 362.5 275.605469 364.328125 272.496094 366.371094 269.5625 C 368.417969 266.632812 370.6875 263.875 373.144531 261.304688 C 375.609375 258.746094 378.265625 256.375 381.074219 254.207031 C 383.886719 252.039062 386.855469 250.078125 389.96875 248.363281 C 393.082031 246.652344 396.355469 245.230469 399.71875 244.074219 C 403.089844 242.933594 406.5625 242.058594 410.101562 241.601562 C 413.636719 241.144531 417.21875 241.042969 420.769531 241.300781 C 420.769531 241.300781 423.429688 241.566406 423.429688 241.566406 C 423.429688 241.566406 426.0625 241.996094 426.0625 241.996094 C 427.820312 242.28125 429.574219 242.742188 431.285156 243.265625 C 434.714844 244.347656 437.957031 245.925781 440.976562 247.824219 C 447.027344 251.625 452.089844 256.820312 456 262.714844 C 463.832031 274.523438 467.089844 289.199219 465.132812 303.253906 C 464.1875 310.269531 462.027344 317.148438 458.632812 323.433594 C 455.25 329.714844 450.601562 335.335938 445.03125 339.859375 C 439.460938 344.386719 432.96875 347.785156 426.0625 349.820312 C 419.152344 351.84375 411.851562 352.511719 404.679688 351.816406 C 397.488281 351.140625 390.375 349 384.015625 345.417969 C 380.835938 343.632812 377.847656 341.496094 375.121094 339.058594 C 374.441406 338.449219 373.792969 337.804688 373.128906 337.179688 C 372.492188 336.523438 371.871094 335.855469 371.242188 335.191406 C 370.652344 334.496094 370.058594 333.800781 369.480469 333.09375 C 368.933594 332.363281 368.367188 331.644531 367.835938 330.902344 C 363.578125 324.957031 360.699219 318.113281 359.136719 311.066406 C 357.589844 304 357.339844 296.757812 357.984375 289.671875 Z M 363.78125 290.171875 C 363.308594 296.746094 363.679688 303.355469 365.191406 309.675781 C 366.699219 315.988281 369.308594 321.992188 372.996094 327.242188 C 374.84375 329.859375 376.957031 332.289062 379.304688 334.464844 C 381.65625 336.640625 384.246094 338.558594 387.015625 340.175781 C 392.558594 343.417969 398.824219 345.433594 405.265625 346.152344 C 411.730469 346.867188 418.339844 346.4375 424.640625 344.757812 C 430.933594 343.066406 436.898438 340.128906 442.070312 336.128906 C 447.253906 332.136719 451.609375 327.066406 454.859375 321.34375 C 458.109375 315.617188 460.269531 309.246094 461.292969 302.695312 C 462.304688 296.148438 462.09375 289.410156 460.714844 282.917969 C 459.320312 276.425781 456.734375 270.183594 453.097656 264.632812 C 452.644531 263.941406 452.152344 263.269531 451.683594 262.585938 C 451.1875 261.925781 450.679688 261.269531 450.171875 260.617188 C 449.628906 259.988281 449.101562 259.351562 448.550781 258.734375 C 447.980469 258.136719 447.433594 257.515625 446.839844 256.941406 C 444.496094 254.609375 441.910156 252.53125 439.121094 250.789062 C 436.328125 249.058594 433.335938 247.65625 430.207031 246.707031 C 428.636719 246.25 427.066406 245.851562 425.4375 245.609375 C 425.4375 245.609375 422.988281 245.257812 422.988281 245.257812 C 422.988281 245.257812 420.519531 245.070312 420.519531 245.070312 C 417.230469 244.90625 413.929688 245.074219 410.675781 245.570312 C 407.421875 246.066406 404.230469 246.949219 401.132812 248.074219 C 398.039062 249.210938 395.046875 250.632812 392.195312 252.304688 C 389.347656 253.984375 386.632812 255.890625 384.074219 257.984375 C 378.960938 262.175781 374.425781 267.105469 370.789062 272.574219 C 368.976562 275.308594 367.382812 278.175781 366.140625 281.144531 C 364.914062 284.109375 364.039062 287.191406 363.78125 290.171875 Z M 363.78125 290.171875 " fill-opacity="1" fill-rule="nonzero"></path></g></g></g></g></g><g clip-path="url(#37b3f92c7e)"><g clip-path="url(#9ef57796d3)"><g clip-path="url(#a99ce98ce1)"><g clip-path="url(#bfddf8ad82)"><g clip-path="url(#191a46c80a)"><path fill="#ffffff" d="M 400.683594 553.390625 C 399.355469 554.667969 398.007812 555.878906 396.648438 557.058594 C 395.363281 558.328125 394.046875 559.53125 392.761719 560.757812 C 392.761719 560.757812 390.914062 562.667969 390.914062 562.667969 C 390.304688 563.304688 389.644531 563.890625 389.089844 564.570312 C 389.089844 564.570312 387.347656 566.527344 387.347656 566.527344 C 387.0625 566.859375 386.753906 567.164062 386.480469 567.503906 C 386.480469 567.503906 385.671875 568.523438 385.671875 568.523438 C 385.136719 569.203125 384.589844 569.871094 384.042969 570.535156 C 383.53125 571.226562 383.058594 571.945312 382.546875 572.632812 C 382.546875 572.632812 381.792969 573.671875 381.792969 573.671875 C 381.53125 574.011719 381.335938 574.394531 381.101562 574.75 C 380.65625 575.476562 380.191406 576.1875 379.734375 576.90625 C 379.296875 577.632812 378.929688 578.398438 378.507812 579.136719 C 378.507812 579.136719 377.894531 580.246094 377.894531 580.246094 C 377.703125 580.625 377.542969 581.015625 377.363281 581.398438 C 377.019531 582.167969 376.652344 582.929688 376.320312 583.707031 C 376.320312 583.707031 375.445312 586.078125 375.445312 586.078125 C 375.125 586.859375 374.941406 587.6875 374.695312 588.492188 C 374.464844 589.300781 374.207031 590.105469 374.0625 590.9375 C 373.894531 591.761719 373.703125 592.582031 373.550781 593.410156 C 373.550781 593.410156 373.203125 595.917969 373.203125 595.917969 C 372.832031 599.277344 372.789062 602.675781 373.058594 606.074219 C 373.644531 612.863281 375.40625 619.621094 378.140625 625.988281 C 379.507812 629.171875 381.117188 632.253906 382.894531 635.21875 C 383.328125 635.96875 383.816406 636.675781 384.277344 637.40625 C 384.746094 638.128906 385.25 638.816406 385.734375 639.527344 C 386.75 640.886719 387.785156 642.253906 388.894531 643.453125 C 388.894531 643.453125 390.75 645.554688 390.75 645.554688 C 390.75 645.554688 391.71875 646.660156 391.71875 646.660156 C 391.71875 646.660156 392.199219 647.210938 392.199219 647.210938 C 392.199219 647.210938 392.640625 647.773438 392.640625 647.773438 C 393.804688 649.285156 395.035156 650.765625 396.09375 652.3125 C 396.09375 652.3125 397.730469 654.617188 397.730469 654.617188 C 398.273438 655.386719 398.777344 656.171875 399.300781 656.945312 C 399.300781 656.945312 400.855469 659.28125 400.855469 659.28125 C 400.855469 659.28125 402.351562 661.636719 402.351562 661.636719 C 406.347656 667.914062 410.007812 674.34375 413.558594 680.820312 C 417.089844 687.316406 420.46875 693.851562 423.664062 700.542969 C 423.664062 700.542969 418.425781 701.398438 418.425781 701.398438 C 418.425781 701.398438 418.425781 701.394531 418.425781 701.394531 C 419.097656 697.582031 420.292969 693.980469 421.707031 690.542969 C 423.125 687.105469 424.769531 683.820312 426.5 680.621094 C 429.976562 674.222656 433.789062 668.121094 437.53125 662.027344 C 441.289062 655.933594 444.996094 649.855469 448.460938 643.660156 C 451.921875 637.464844 455.148438 631.152344 457.941406 624.664062 C 459.339844 621.421875 460.652344 618.144531 461.804688 614.816406 C 462.410156 613.15625 462.925781 611.476562 463.46875 609.796875 C 463.730469 608.964844 463.925781 608.15625 464.15625 607.332031 C 464.359375 606.507812 464.507812 605.675781 464.691406 604.847656 C 465.871094 598.175781 465.148438 591.234375 462.648438 584.878906 C 461.425781 581.691406 459.839844 578.628906 457.953125 575.738281 C 456.070312 572.847656 453.953125 570.09375 451.621094 567.511719 C 446.96875 562.335938 441.628906 557.742188 435.941406 553.644531 C 435.941406 553.644531 436.328125 553.847656 436.328125 553.847656 C 436.328125 553.847656 436.324219 553.847656 436.324219 553.847656 C 435.445312 553.511719 435.003906 552.515625 435.34375 551.628906 C 435.679688 550.75 436.660156 550.300781 437.535156 550.625 C 437.535156 550.625 437.539062 550.625 437.539062 550.625 C 437.671875 550.675781 437.792969 550.738281 437.902344 550.816406 C 437.902344 550.816406 437.925781 550.832031 437.925781 550.832031 C 443.828125 554.976562 449.410156 559.644531 454.351562 565.003906 C 456.828125 567.675781 459.105469 570.554688 461.152344 573.609375 C 463.203125 576.664062 464.960938 579.945312 466.339844 583.40625 C 469.15625 590.300781 470.097656 598.097656 468.863281 605.550781 C 468.679688 606.472656 468.519531 607.402344 468.308594 608.320312 C 468.066406 609.222656 467.847656 610.160156 467.585938 611.035156 C 467.046875 612.773438 466.535156 614.519531 465.933594 616.234375 C 464.785156 619.683594 463.480469 623.078125 462.085938 626.425781 C 459.296875 633.128906 456.078125 639.625 452.636719 645.96875 C 449.191406 652.316406 445.519531 658.511719 441.839844 664.652344 C 438.164062 670.800781 434.46875 676.898438 431.1875 683.128906 C 429.550781 686.242188 428.027344 689.390625 426.753906 692.589844 C 425.488281 695.785156 424.46875 699.035156 423.9375 702.285156 C 423.9375 702.285156 423.9375 702.289062 423.9375 702.289062 C 423.695312 703.816406 422.269531 704.867188 420.746094 704.628906 C 419.886719 704.496094 419.179688 703.976562 418.773438 703.273438 C 418.773438 703.273438 418.699219 703.144531 418.699219 703.144531 C 415.101562 696.828125 411.414062 690.5 407.636719 684.273438 C 403.875 678.03125 399.988281 671.878906 395.960938 665.878906 C 395.960938 665.878906 394.441406 663.636719 394.441406 663.636719 C 394.441406 663.636719 392.882812 661.4375 392.882812 661.4375 C 392.359375 660.710938 391.851562 659.964844 391.316406 659.25 C 391.316406 659.25 389.703125 657.121094 389.703125 657.121094 C 388.644531 655.671875 387.515625 654.347656 386.417969 652.976562 C 386.417969 652.976562 386.003906 652.464844 386.003906 652.464844 C 386.003906 652.464844 385.570312 651.992188 385.570312 651.992188 C 385.570312 651.992188 384.710938 651.042969 384.710938 651.042969 C 384.710938 651.042969 383.851562 650.097656 383.851562 650.097656 C 383.851562 650.097656 383.40625 649.609375 383.40625 649.609375 C 383.40625 649.609375 382.894531 649.058594 382.894531 649.058594 C 380.140625 646.109375 377.851562 642.964844 375.78125 639.679688 C 373.710938 636.402344 371.925781 632.960938 370.367188 629.410156 C 368.808594 625.863281 367.535156 622.175781 366.539062 618.402344 C 365.550781 614.625 364.824219 610.753906 364.5 606.816406 C 364.210938 602.875 364.285156 598.890625 364.746094 594.933594 C 364.746094 594.933594 365.179688 591.976562 365.179688 591.976562 C 365.363281 590.996094 365.59375 590.023438 365.800781 589.046875 C 365.988281 588.0625 366.289062 587.109375 366.566406 586.152344 C 366.863281 585.195312 367.097656 584.222656 367.476562 583.296875 C 367.476562 583.296875 368.53125 580.496094 368.53125 580.496094 C 368.929688 579.582031 369.363281 578.683594 369.777344 577.777344 C 369.992188 577.328125 370.1875 576.867188 370.417969 576.425781 C 370.417969 576.425781 371.140625 575.125 371.140625 575.125 C 371.628906 574.257812 372.101562 573.378906 372.628906 572.542969 C 373.742188 570.90625 374.789062 569.21875 376.070312 567.722656 C 376.6875 566.957031 377.308594 566.195312 377.945312 565.449219 C 378.617188 564.738281 379.289062 564.027344 379.972656 563.332031 C 379.972656 563.332031 380.996094 562.28125 380.996094 562.28125 C 381.335938 561.933594 381.710938 561.625 382.074219 561.304688 C 382.074219 561.304688 384.261719 559.390625 384.261719 559.390625 C 384.625 559.074219 384.996094 558.761719 385.386719 558.480469 C 385.386719 558.480469 386.542969 557.617188 386.542969 557.617188 C 386.542969 557.617188 388.871094 555.921875 388.871094 555.921875 C 390.480469 554.882812 392.117188 553.894531 393.753906 552.9375 C 395.449219 552.074219 397.15625 551.242188 398.878906 550.476562 C 399.75 550.089844 400.769531 550.484375 401.152344 551.359375 C 401.453125 552.046875 401.273438 552.824219 400.765625 553.3125 C 400.765625 553.3125 400.683594 553.390625 400.683594 553.390625 Z M 400.683594 553.390625 " fill-opacity="1" fill-rule="nonzero"></path></g></g></g></g></g></svg>