<svg xmlns="http://www.w3.org/2000/svg" width="75.308" height="66" data-name="Layer 1" style="fill:white"><path d="M53.365 19.386c-9.869 32.285 6.124 31.833-7.139 41.23A29.194 29.194 0 0 1 5.34 53.419a29.753 29.753 0 0 1 7.138-41.23C25.74 2.79 63.234-12.9 53.365 19.386" data-name="Fill-1-Copy-9" style="fill-rule:evenodd;opacity:.05"/><path d="M36.18 46.441a1.044 1.044 0 0 0 .416-2.002 15.729 15.729 0 1 1 15.022-1.382 1.04 1.04 0 0 0-.283 1.45 1.054 1.054 0 0 0 1.456.282 17.844 17.844 0 1 0-17.028 1.566 1.05 1.05 0 0 0 .416.086Z" style="fill-rule:evenodd"/><path d="M74.29 28.341H64.109a1.018 1.018 0 0 0-.72 1.738l4.284 4.284-14.407 14.79-7.583-7.784a1.02 1.02 0 0 0-1.471 0L31.735 54.178a1.088 1.088 0 0 0 0 1.51 1.022 1.022 0 0 0 1.47 0l11.742-12.056 7.584 7.785a1.019 1.019 0 0 0 1.47 0l15.161-15.564 4.408 4.408a1.02 1.02 0 0 0 .72.298.998.998 0 0 0 .39-.078 1.018 1.018 0 0 0 .628-.94V29.359a1.018 1.018 0 0 0-1.018-1.018Zm-1.018 8.742-6.706-6.706h6.706ZM43 39a1.028 1.028 0 0 0 1-1.056v-1.03a4.519 4.519 0 0 0 4-4.199c0-2.009-1.311-3.36-4-4.07v-4.37a2.432 2.432 0 0 1 2.004 1.895 1.036 1.036 0 0 0 1.08.977 1.052 1.052 0 0 0 .912-1.16A4.518 4.518 0 0 0 44 22.085v-1.028a1.002 1.002 0 1 0-2 0v1.03a4.519 4.519 0 0 0-4 4.2c0 2.007 1.311 3.36 4 4.07v4.368a2.434 2.434 0 0 1-2.004-1.895 1.032 1.032 0 0 0-1.08-.977 1.052 1.052 0 0 0-.912 1.158A4.52 4.52 0 0 0 42 36.916v1.028A1.028 1.028 0 0 0 43 39Zm3-6.285c0 .91-.85 1.703-2 2.005v-3.878c1.35.412 2 1.016 2 1.873Zm-6-6.43c0-.91.85-1.703 2-2.005v3.877c-1.35-.412-2-1.016-2-1.872Z" style="fill-rule:evenodd; fillwhite"/></svg>