<svg xmlns="http://www.w3.org/2000/svg" width="75" height="66" data-name="Layer 1" style="fill:white"><path d="M53.365 19.386c-9.869 32.285 6.124 31.833-7.139 41.23A29.194 29.194 0 0 1 5.34 53.419a29.753 29.753 0 0 1 7.138-41.23C25.74 2.79 63.234-12.9 53.365 19.386" data-name="Fill-1-Copy-13" style="fill-rule:evenodd;opacity:.05"/><path d="M74.061 53.559 48.826 29.3a1.1 1.1 0 0 0-1.512 0 1 1 0 0 0 0 1.454L62.04 44.911l-1.852 1.482-11.362-10.92a1.1 1.1 0 0 0-1.512 0 1 1 0 0 0 0 1.453l22.025 21.172a3.305 3.305 0 0 0 4.538 0l.184-.176a3.004 3.004 0 0 0 0-4.363Zm-1.513 2.908-.183.177a1.1 1.1 0 0 1-1.514 0l-9.058-8.707 1.853-1.482 8.902 8.558a1.002 1.002 0 0 1 0 1.454Z" style="fill-rule:evenodd"/><path d="m47.254 33.797-.947-6.425 6.692-2.777a1.016 1.016 0 0 0 0-1.892l-6.692-2.777.947-6.424a1.02 1.02 0 0 0-.485-1.016 1.088 1.088 0 0 0-1.157.014l-5.79 3.735-5.79-3.735a1.088 1.088 0 0 0-1.157-.014 1.018 1.018 0 0 0-.485 1.016l.948 6.425-6.693 2.777a1.016 1.016 0 0 0 0 1.892l6.693 2.777-.948 6.424a1.018 1.018 0 0 0 .485 1.016 1.09 1.09 0 0 0 1.158-.014l5.789-3.736 5.79 3.736a1.09 1.09 0 0 0 1.157.014 1.02 1.02 0 0 0 .485-1.016ZM44.72 25.79a1.024 1.024 0 0 0-.634 1.092l.727 4.927-4.4-2.841a1.093 1.093 0 0 0-1.18 0l-4.4 2.841.727-4.927a1.025 1.025 0 0 0-.634-1.092l-5.162-2.142 5.162-2.141a1.024 1.024 0 0 0 .634-1.092l-.727-4.927 4.4 2.841a1.09 1.09 0 0 0 1.18 0l4.4-2.841-.727 4.927a1.024 1.024 0 0 0 .634 1.091l5.161 2.142Z" style="fill-rule:evenodd"/><path d="M40.005 14a1 1 0 0 0 0-2h-.02A.989.989 0 0 0 39 13a1.006 1.006 0 0 0 1.005 1ZM50.004 18a1 1 0 0 0 0-2h-.02A.988.988 0 0 0 49 17a1.006 1.006 0 0 0 1.004 1ZM29.005 18a1 1 0 0 0 0-2h-.02A.989.989 0 0 0 28 17a1.006 1.006 0 0 0 1.005 1ZM40.005 32h-.02A.989.989 0 0 0 39 33a1 1 0 1 0 1.005-1ZM29.005 28h-.02A.989.989 0 0 0 28 29a1 1 0 1 0 1.005-1Z" style="fill-rule:evenodd"/></svg>