<?xml version="1.0" encoding="UTF-8"?>
<!DOCTYPE svg PUBLIC "-//W3C//DTD SVG 1.1//EN" "http://www.w3.org/Graphics/SVG/1.1/DTD/svg11.dtd">
<!-- Creator: CorelDRAW 2019 (64-Bit) -->
<svg xmlns="http://www.w3.org/2000/svg" xml:space="preserve" width="33.1029mm" height="28.0905mm" version="1.1" style="shape-rendering:geometricPrecision; text-rendering:geometricPrecision; image-rendering:optimizeQuality; fill-rule:evenodd; clip-rule:evenodd"
viewBox="0 0 934.47 792.97"
 xmlns:xlink="http://www.w3.org/1999/xlink"
 xmlns:xodm="http://www.corel.com/coreldraw/odm/2003">
 <defs>
  <style type="text/css">
   <![CDATA[
    .str0 {stroke:black;stroke-width:14.11;stroke-linecap:round;stroke-linejoin:round;stroke-miterlimit:22.9256}
    .fil13 {fill:none}
    .fil0 {fill:black}
    .fil3 {fill:#CCD6E2}
    .fil4 {fill:#E31E24;fill-rule:nonzero}
    .fil7 {fill:#AB2421;fill-rule:nonzero}
    .fil12 {fill:#C8E8FB;fill-rule:nonzero}
    .fil9 {fill:#C2E6FA;fill-rule:nonzero}
    .fil5 {fill:#A2D9F7;fill-rule:nonzero}
    .fil11 {fill:#94C6E0;fill-rule:nonzero}
    .fil6 {fill:#8CBBD3;fill-rule:nonzero}
    .fil10 {fill:#055589;fill-rule:nonzero}
    .fil8 {fill:#FF7E55;fill-rule:nonzero}
    .fil2 {fill:url(#id0)}
    .fil1 {fill:url(#id1)}
   ]]>
  </style>
  <radialGradient id="id0" gradientUnits="userSpaceOnUse" gradientTransform="matrix(0.61312 0.259471 -0.483094 1.14153 409 -136)" cx="108.59" cy="758.97" r="31.28" fx="108.59" fy="758.97">
   <stop offset="0" style="stop-opacity:1; stop-color:#EDF0F5"/>
   <stop offset="1" style="stop-opacity:1; stop-color:#CCD6E2"/>
  </radialGradient>
  <radialGradient id="id1" gradientUnits="userSpaceOnUse" gradientTransform="matrix(0.524915 0.222143 -0.489778 1.15733 399 -139)" xlink:href="#id0" cx="150.09" cy="668.88" r="86.73" fx="150.09" fy="668.88">
  </radialGradient>
 </defs>
 <g id="Слой_x0020_1">
  <metadata id="CorelCorpID_0Corel-Layer"/>
  <g id="_1956894906816">
   <path class="fil0" d="M22.84 559.22c51.48,59.33 87.03,159.49 110.17,167.09l0.82 35.98c-68.91,0.15 -79.75,-75.35 -119.62,-113.02l8.63 -90.05z"/>
   <ellipse class="fil0" transform="matrix(0.497412 0.210504 0.212443 -0.501993 219.521 578.92)" rx="42.94" ry="38.9"/>
   <path class="fil1" d="M197.7 570.32c9.09,15.26 21.41,24.25 37.01,26.87l-104.39 159.43c-7.84,11.97 -24.78,14.18 -36.36,5.77l-10.98 -7.97c-11.58,-8.41 -14.82,-25.27 -5.77,-36.36l120.5 -147.73z"/>
   <path class="fil2" d="M86.77 791.81c-9.65,-4.84 -7.69,-23.47 4.36,-41.61 12.05,-18.14 29.64,-28.92 39.29,-24.08 9.65,4.84 7.69,23.47 -4.36,41.61 -12.05,18.14 -29.64,28.92 -39.29,24.08z"/>
   <path class="fil3" d="M99.98 743c10.42,-10.44 22.06,-15.6 29.28,-12.01 5.02,2.5 6.93,8.73 5.91,16.7 2.75,-10.48 1.25,-19.05 -4.85,-22.08 -7.33,-3.64 -19.21,1.72 -29.75,12.48 -3.35,3.41 -6.56,7.37 -9.45,11.75 -0.95,1.44 -1.83,2.88 -2.65,4.32 -0.8,1.4 -1.54,2.79 -2.22,4.18 -2.85,5.83 -4.62,11.47 -5.24,16.44 1.27,-4.84 3.45,-10.09 6.49,-15.39 0.65,-1.13 1.33,-2.25 2.06,-3.38 0.17,-0.26 0.34,-0.52 0.51,-0.78 3.02,-4.59 6.4,-8.71 9.91,-12.22z"/>
   <path class="fil3" d="M75.38 744.45l132.87 -160.6c-3.97,-3.79 -7.03,-8.96 -10.21,-14.3l-120.5 147.73c-6.4,7.84 -6.65,18.58 -2.15,27.16z"/>
   <g>
    <path class="fil4" d="M242.74 546.02c1.59,4.24 6.43,6.41 10.85,4.83l21.78 -7.79c4.4,-1.57 6.69,-6.29 5.1,-10.53l-18.15 -48.69c-1.58,-4.25 -6.44,-6.41 -10.83,-4.83l-21.79 7.77c-4.41,1.59 -6.69,6.3 -5.12,10.54l18.16 48.69z"/>
    <path class="fil5" d="M111.86 424.75c0,0 75.32,211.53 111.88,228.76 0,0 36.55,19.97 83.6,-6.93 0,0 -84.75,-193.84 -89.42,-236.64l-106.05 14.81z"/>
    <path class="fil6" d="M281.42 654.52c-12.5,-28.82 -80.86,-187.62 -93.64,-243.21l29.71 -4.15c4.67,42.8 89.42,236.64 89.42,236.64 -8.95,5.11 -17.5,8.53 -25.5,10.71z"/>
    <path class="fil7" d="M248.76 389.05l4.82 32.31c3,20.15 -11.47,39.01 -32.33,42.12l-80.23 11.96c-20.86,3.11 -40.2,-10.71 -43.21,-30.86l-4.82 -32.31 155.77 -23.23z"/>
    <path class="fil4" d="M129.51 448.41l94.87 -14.15c11.79,-1.76 21.81,-7.79 28.71,-16.18l0.49 3.28c3,20.15 -11.47,39.01 -32.33,42.12l-80.23 11.96c-20.86,3.11 -40.2,-10.71 -43.21,-30.86l-0.49 -3.27c9.06,6.01 20.4,8.86 32.18,7.1z"/>
    <path class="fil4" d="M113.49 435.7c-54.8,5.68 -104.56,-30.93 -112.43,-83.71 -7.87,-52.79 29.04,-102.32 83.12,-112.88l-0.02 -0.15 87.38 -13.03 29.34 196.74 -87.38 13.03 0 -0z"/>
    <path class="fil5" d="M544.6 0.03c-7.52,31.64 -0.38,140.26 18.68,268.1 19.05,127.73 43.89,233.64 60.31,261.81 -50.27,-42.93 -213.34,-138.41 -422.71,-107.19l-29.35 -196.82c209.43,-31.23 337.56,-170.19 373.07,-225.9z"/>
    <path class="fil7" d="M556.52 269.11c21.82,146.33 51.86,263.1 67.1,260.83 15.23,-2.27 9.9,-122.73 -11.92,-269.05 -21.82,-146.35 -51.87,-263.12 -67.1,-260.85 -3.31,0.49 -9.9,122.73 11.92,269.08z"/>
    <path class="fil8" d="M0.14 334.63l-0 -0.15c0.09,-2.44 0.3,-4.85 0.57,-7.25 0.06,-0.55 0.1,-1.1 0.18,-1.65 0.29,-2.27 0.69,-4.53 1.14,-6.76 0.12,-0.65 0.26,-1.29 0.4,-1.93 0.49,-2.18 1.04,-4.32 1.68,-6.44 0.2,-0.67 0.41,-1.34 0.63,-2 0.67,-2.09 1.39,-4.16 2.2,-6.19 0.25,-0.64 0.54,-1.27 0.81,-1.91 0.86,-2.04 1.75,-4.07 2.75,-6.05 0.25,-0.51 0.53,-0.99 0.8,-1.48 3.37,-6.44 7.45,-12.49 12.16,-18.09 0.46,-0.55 0.88,-1.13 1.35,-1.67 1.12,-1.28 2.33,-2.47 3.52,-3.7 0.92,-0.95 1.82,-1.93 2.79,-2.85 1.11,-1.07 2.29,-2.08 3.45,-3.09 1.14,-1 2.27,-1.99 3.46,-2.94 1.14,-0.92 2.31,-1.78 3.49,-2.65 1.32,-0.97 2.66,-1.91 4.02,-2.82 1.16,-0.77 2.34,-1.52 3.54,-2.25 1.48,-0.9 3,-1.76 4.53,-2.6 1.17,-0.64 2.35,-1.28 3.56,-1.87 1.67,-0.82 3.39,-1.59 5.12,-2.33 1.14,-0.49 2.28,-1 3.45,-1.46 1.98,-0.77 4.01,-1.44 6.05,-2.1 0.99,-0.32 1.96,-0.69 2.97,-0.98 3.09,-0.9 6.22,-1.68 9.43,-2.31l7.97 53.43 -7.99 -53.58 87.38 -13.03 7.96 53.38c-5.15,0.9 -10.35,1.76 -15.6,2.54l-71.75 10.7 -25.61 3.82 0.02 0.16c-26.85,5.25 -49.88,19.13 -66.42,38.1z"/>
    <path class="fil9" d="M171.53 225.93l0.03 -0.01c5.93,-0.88 11.77,-1.88 17.56,-2.93 1.78,-0.32 3.55,-0.67 5.32,-1.01 4.11,-0.79 8.21,-1.61 12.25,-2.48 1.85,-0.4 3.7,-0.8 5.54,-1.21 4.47,-1.01 8.88,-2.07 13.27,-3.17 1.16,-0.29 2.33,-0.55 3.49,-0.86 5.46,-1.41 10.85,-2.89 16.18,-4.43 1.41,-0.41 2.8,-0.84 4.21,-1.27 3.98,-1.19 7.92,-2.41 11.83,-3.66 1.74,-0.56 3.47,-1.13 5.2,-1.71 3.75,-1.25 7.47,-2.54 11.16,-3.85 1.47,-0.53 2.94,-1.03 4.4,-1.56 4.99,-1.84 9.94,-3.71 14.81,-5.65 0.82,-0.33 1.61,-0.67 2.42,-1 4.08,-1.65 8.12,-3.33 12.11,-5.05 1.6,-0.69 3.19,-1.4 4.77,-2.09 3.27,-1.45 6.51,-2.91 9.71,-4.4 1.56,-0.73 3.13,-1.45 4.68,-2.18 3.79,-1.8 7.53,-3.63 11.23,-5.49 0.79,-0.4 1.58,-0.78 2.37,-1.17 4.34,-2.21 8.62,-4.47 12.83,-6.74 1.48,-0.8 2.93,-1.61 4.39,-2.42 2.83,-1.56 5.64,-3.13 8.42,-4.72 1.61,-0.93 3.22,-1.85 4.8,-2.78 2.73,-1.6 5.42,-3.22 8.09,-4.84 1.39,-0.84 2.81,-1.69 4.18,-2.54 3.75,-2.33 7.45,-4.67 11.09,-7.04 1.45,-0.95 2.85,-1.9 4.29,-2.85 2.33,-1.55 4.65,-3.09 6.92,-4.65 1.69,-1.15 3.34,-2.31 5.01,-3.47 1.98,-1.39 3.94,-2.78 5.88,-4.17 1.67,-1.2 3.35,-2.39 4.97,-3.59 2.03,-1.48 4,-2.97 5.98,-4.46 2.8,-2.11 5.54,-4.21 8.25,-6.33 1.57,-1.23 3.16,-2.46 4.7,-3.69 1.83,-1.46 3.62,-2.92 5.41,-4.39 1.26,-1.03 2.52,-2.07 3.77,-3.1 1.84,-1.54 3.68,-3.07 5.48,-4.61 0.98,-0.83 1.93,-1.66 2.89,-2.49 6.6,-5.71 12.86,-11.36 18.77,-16.95 0.48,-0.46 0.97,-0.92 1.45,-1.37 1.99,-1.89 3.94,-3.77 5.85,-5.64 0.32,-0.31 0.63,-0.63 0.94,-0.94 26.71,-26.32 45.56,-50.31 56.14,-66.9 -3.19,13.45 -3.73,40.83 -1.84,77.64 -1.99,2.24 -4.01,4.49 -6.12,6.78 -64.41,69.95 -185.2,164.79 -357.14,194.85l-7.96 -53.38z"/>
    <path class="fil10" d="M645.43 264.09l-0.1 -0.06c-0.07,-0.4 -0.13,-0.78 -0.2,-1.17 0.11,0.41 0.21,0.82 0.3,1.23z"/>
    <path class="fil5" d="M553.09 199.8c45.61,-4.42 86.96,26.3 93.57,70.6 6.61,44.3 -23.98,85.75 -68.9,94.83l-24.67 -165.42z"/>
    <path class="fil7" d="M101.6 436.22c-2.35,-0.02 -4.69,-0.1 -7.02,-0.27 -0.88,-0.06 -1.76,-0.14 -2.63,-0.22 -2.38,-0.23 -4.73,-0.54 -7.06,-0.93 -0.67,-0.11 -1.37,-0.19 -2.04,-0.32 -5.99,-1.11 -11.8,-2.73 -17.4,-4.8 -0.77,-0.28 -1.52,-0.6 -2.27,-0.9 -1.99,-0.79 -3.95,-1.63 -5.88,-2.54 -0.88,-0.41 -1.76,-0.84 -2.63,-1.28 -1.84,-0.93 -3.63,-1.92 -5.39,-2.95 -0.78,-0.46 -1.58,-0.89 -2.36,-1.37 -2.39,-1.48 -4.73,-3.03 -6.98,-4.7 -0.63,-0.45 -1.2,-0.96 -1.81,-1.43 -1.63,-1.26 -3.24,-2.55 -4.79,-3.91 -0.93,-0.81 -1.82,-1.67 -2.72,-2.51 -1.17,-1.1 -2.32,-2.22 -3.43,-3.38 -0.91,-0.95 -1.82,-1.91 -2.7,-2.91 -1.03,-1.17 -2.04,-2.38 -3.01,-3.6 -0.82,-1.01 -1.66,-2 -2.42,-3.04 -1.48,-1.99 -2.89,-4.04 -4.21,-6.14 -0.72,-1.15 -1.38,-2.34 -2.05,-3.51 -0.65,-1.13 -1.28,-2.26 -1.88,-3.41 16.09,4.7 33.41,6.43 51.16,4.6l43.15 -6.43 65.99 -9.84 0.01 0.11c7.2,-1.07 14.34,-2 21.45,-2.83l8.2 55 -87.38 13.03c-3.18,0.33 -6.34,0.49 -9.48,0.53 -0.81,0.02 -1.6,-0.02 -2.41,-0.02z"/>
    <path class="fil11" d="M594.91 438.4c10.48,44.9 20.6,77.65 28.69,91.53 -25.93,-22.15 -81.95,-58.25 -158.8,-83.76 -0.4,-0.13 -0.8,-0.27 -1.21,-0.4 -3.3,-1.09 -6.64,-2.16 -10.02,-3.21 -0.48,-0.15 -0.96,-0.29 -1.44,-0.44 -9.88,-3.03 -20.07,-5.87 -30.57,-8.48 -1.35,-0.34 -2.69,-0.67 -4.04,-1 -2.88,-0.69 -5.78,-1.36 -8.7,-2.02 -1.7,-0.38 -3.41,-0.75 -5.12,-1.12 -2.84,-0.62 -5.67,-1.23 -8.55,-1.8 -1.9,-0.38 -3.84,-0.73 -5.76,-1.1 -4.67,-0.88 -9.38,-1.71 -14.15,-2.5 -2.4,-0.39 -4.79,-0.79 -7.21,-1.15 -2.52,-0.38 -5.06,-0.73 -7.6,-1.08 -2.55,-0.35 -5.1,-0.68 -7.67,-1 -2.47,-0.3 -4.93,-0.6 -7.42,-0.87 -3.05,-0.34 -6.12,-0.63 -9.22,-0.92 -2.22,-0.2 -4.43,-0.43 -6.66,-0.62 -4.7,-0.38 -9.44,-0.7 -14.21,-0.97 -2.13,-0.12 -4.29,-0.21 -6.44,-0.3 -3.27,-0.15 -6.56,-0.27 -9.87,-0.36 -2.24,-0.06 -4.5,-0.11 -6.75,-0.15 -3.55,-0.05 -7.12,-0.06 -10.71,-0.05 -1.93,0.01 -3.86,-0 -5.81,0.02 -5.36,0.08 -10.76,0.23 -16.21,0.47 -1.51,0.06 -3.06,0.17 -4.58,0.25 -4.18,0.21 -8.39,0.47 -12.62,0.78 -2.03,0.15 -4.08,0.32 -6.13,0.5 -3.97,0.34 -7.96,0.73 -11.97,1.15 -1.9,0.2 -3.79,0.39 -5.69,0.62 -5.74,0.67 -11.51,1.41 -17.33,2.28l-0.22 0.03 -8.21 -55.08c166.54,-19.64 307.98,23.92 402.23,70.73z"/>
    <path class="fil4" d="M544.6 0.03c-7.52,31.64 -0.38,140.26 18.68,268.1 19.05,127.73 43.89,233.64 60.31,261.81 -11.45,-9.78 -28.81,-22.29 -51.18,-35.4 -27.37,-69.29 -46.78,-141.11 -58.05,-214.17 -11.76,-76.3 -14.63,-153.97 -8.39,-231.52 17.57,-19.08 30.53,-36.12 38.62,-48.81z"/>
    <path class="fil8" d="M505.98 48.85c17.57,-19.08 30.53,-36.12 38.62,-48.81 -3.19,13.45 -3.73,40.83 -1.84,77.64 -1.99,2.24 -4.01,4.49 -6.12,6.78 -9.9,10.76 -21.16,22.1 -33.71,33.71 0.25,-23.09 1.2,-46.2 3.05,-69.31z"/>
    <path class="fil7" d="M623.62 529.93c-11.45,-9.78 -28.81,-22.28 -51.18,-35.39 -10.2,-25.84 -19.3,-52.03 -27.28,-78.51 17.78,7.2 34.4,14.74 49.77,22.37 10.47,44.9 20.6,77.65 28.69,91.53z"/>
    <path class="fil12" d="M592.54 275.23c3.18,21.32 15.96,37.1 28.54,35.22 12.59,-1.88 20.21,-20.69 17.03,-42.02 -3.18,-21.33 -15.96,-37.1 -28.55,-35.22 -12.58,1.88 -20.2,20.68 -17.02,42.02z"/>
   </g>
   <path class="fil0" d="M206.38 550.09c-10.35,-5.98 -35.12,5.63 -39.28,8.85 -6.02,4.67 -7.27,18.27 0.54,28.45 3.33,4.33 7.27,10.5 17.33,8.3 12.51,-2.74 51.58,-28.18 21.4,-45.6z"/>
   <path class="fil0" d="M245.2 523.52c9.68,-7.02 35.52,1.96 39.98,4.73 6.47,4.03 9.13,17.41 2.41,28.35 -2.86,4.66 -6.14,11.2 -16.37,10.05 -12.73,-1.43 -54.22,-22.68 -26.01,-43.13z"/>
   <line class="fil13 str0" x1="621.7" y1="124" x2="767.76" y2= "30.69" />
   <line class="fil13 str0" x1="692.09" y1="279.43" x2="927.41" y2= "263.2" />
   <line class="fil13 str0" x1="650.22" y1="442.21" x2="796.28" y2= "535.53" />
  </g>
 </g>
</svg>
