<svg xmlns="http://www.w3.org/2000/svg" width="74.708" height="66" data-name="Layer 1" style="fill:white"><path d="M53.365 19.386c-9.869 32.285 6.124 31.833-7.139 41.23A29.194 29.194 0 0 1 5.34 53.419a29.753 29.753 0 0 1 7.138-41.23C25.74 2.79 63.234-12.9 53.365 19.386" data-name="Fill-1-Copy-5" style="fill-rule:evenodd;opacity:.05"/><path d="M70.606 52.798a4.09 4.09 0 0 0-3.328 1.723l-8.83-4.416a.977.977 0 0 0-.599-.075 3.584 3.584 0 0 0 .003-2.05.985.985 0 0 0 .15.02 1.01 1.01 0 0 0 .447-.105l9.64-4.822a4.061 4.061 0 0 0 2.518.887 4.104 4.104 0 1 0-3.773-2.496l-9.28 4.641a.976.976 0 0 0-.422.436 4 4 0 1 0 0 4.918.977.977 0 0 0 .422.435l9.002 4.502a4.047 4.047 0 0 0-.05.503 4.101 4.101 0 1 0 4.1-4.101Zm0-14.99a2.05 2.05 0 1 1-2.05 2.05 2.053 2.053 0 0 1 2.05-2.05ZM54 51a2 2 0 1 1 2-2 2.002 2.002 0 0 1-2 2Zm16.607 7.95a2.053 2.053 0 0 1-2.05-2.05c0-.029.007-.054.008-.082a.975.975 0 0 0 .386-1.118 2.048 2.048 0 1 1 1.655 3.25Z" style="fill-rule:evenodd"/><path d="M50.675 54.886H32.147a3.125 3.125 0 0 1-3.088-3.155V21.383h41.173V32.8a1.029 1.029 0 1 0 2.058 0V15.973a5.209 5.209 0 0 0-5.147-5.258H32.147A5.21 5.21 0 0 0 27 15.973v35.758a5.21 5.21 0 0 0 5.146 5.259h18.529a1.052 1.052 0 0 0 0-2.104ZM32.147 12.818h34.996a3.126 3.126 0 0 1 3.09 3.155v2.904H29.058v-2.904a3.125 3.125 0 0 1 3.088-3.155Z" style="fill-rule:evenodd"/><circle cx="34" cy="16" r="1"/><path d="M37 17a1 1 0 1 0-1-1 1 1 0 0 0 1 1Z" style="fill-rule:evenodd"/><circle cx="40" cy="16" r="1"/></svg>