<svg xmlns="http://www.w3.org/2000/svg" xmlns:xlink="http://www.w3.org/1999/xlink" width="1080" viewBox="0 0 810 809.999993" height="1080" preserveAspectRatio="xMidYMid meet"><defs><clipPath id="b13e263195"><path d="M 333 116 L 498 116 L 498 225 L 333 225 Z M 333 116 " clip-rule="nonzero"></path></clipPath><clipPath id="b53165050e"><path d="M 69.851562 621.957031 L 305.546875 18.339844 L 740.09375 188.023438 L 504.398438 791.636719 Z M 69.851562 621.957031 " clip-rule="nonzero"></path></clipPath><clipPath id="de9aadba99"><path d="M 69.851562 621.957031 L 305.546875 18.339844 L 740.09375 188.023438 L 504.398438 791.636719 Z M 69.851562 621.957031 " clip-rule="nonzero"></path></clipPath><clipPath id="f52a328dbb"><path d="M 69.851562 621.953125 L 305.546875 18.34375 L 740.09375 188.023438 L 504.398438 791.636719 Z M 69.851562 621.953125 " clip-rule="nonzero"></path></clipPath><clipPath id="9c13e78b71"><path d="M 69.851562 621.953125 L 305.546875 18.34375 L 740.09375 188.023438 L 504.398438 791.636719 Z M 69.851562 621.953125 " clip-rule="nonzero"></path></clipPath><clipPath id="35f72504c0"><path d="M 327 109 L 504 109 L 504 231 L 327 231 Z M 327 109 " clip-rule="nonzero"></path></clipPath><clipPath id="5f52ed52f5"><path d="M 69.851562 621.957031 L 305.546875 18.339844 L 740.09375 188.023438 L 504.398438 791.636719 Z M 69.851562 621.957031 " clip-rule="nonzero"></path></clipPath><clipPath id="442812046b"><path d="M 69.851562 621.957031 L 305.546875 18.339844 L 740.09375 188.023438 L 504.398438 791.636719 Z M 69.851562 621.957031 " clip-rule="nonzero"></path></clipPath><clipPath id="997a37678a"><path d="M 69.851562 621.953125 L 305.546875 18.34375 L 740.09375 188.023438 L 504.398438 791.636719 Z M 69.851562 621.953125 " clip-rule="nonzero"></path></clipPath><clipPath id="267243379e"><path d="M 69.851562 621.953125 L 305.546875 18.34375 L 740.09375 188.023438 L 504.398438 791.636719 Z M 69.851562 621.953125 " clip-rule="nonzero"></path></clipPath><clipPath id="c375f35590"><path d="M 389 462 L 436 462 L 436 563 L 389 563 Z M 389 462 " clip-rule="nonzero"></path></clipPath><clipPath id="9f04328e71"><path d="M 69.851562 621.957031 L 305.546875 18.339844 L 740.09375 188.023438 L 504.398438 791.636719 Z M 69.851562 621.957031 " clip-rule="nonzero"></path></clipPath><clipPath id="97f60ba1f1"><path d="M 69.851562 621.957031 L 305.546875 18.339844 L 740.09375 188.023438 L 504.398438 791.636719 Z M 69.851562 621.957031 " clip-rule="nonzero"></path></clipPath><clipPath id="5883912cdf"><path d="M 69.851562 621.953125 L 305.546875 18.34375 L 740.09375 188.023438 L 504.398438 791.636719 Z M 69.851562 621.953125 " clip-rule="nonzero"></path></clipPath><clipPath id="aec432b7bd"><path d="M 69.851562 621.953125 L 305.546875 18.34375 L 740.09375 188.023438 L 504.398438 791.636719 Z M 69.851562 621.953125 " clip-rule="nonzero"></path></clipPath><clipPath id="2a544e19f8"><path d="M 383 456 L 443 456 L 443 569 L 383 569 Z M 383 456 " clip-rule="nonzero"></path></clipPath><clipPath id="6cc2bdf8c2"><path d="M 69.851562 621.957031 L 305.546875 18.339844 L 740.09375 188.023438 L 504.398438 791.636719 Z M 69.851562 621.957031 " clip-rule="nonzero"></path></clipPath><clipPath id="d36681b3c6"><path d="M 69.851562 621.957031 L 305.546875 18.339844 L 740.09375 188.023438 L 504.398438 791.636719 Z M 69.851562 621.957031 " clip-rule="nonzero"></path></clipPath><clipPath id="8e87050a87"><path d="M 69.851562 621.953125 L 305.546875 18.34375 L 740.09375 188.023438 L 504.398438 791.636719 Z M 69.851562 621.953125 " clip-rule="nonzero"></path></clipPath><clipPath id="5484fd29e9"><path d="M 69.851562 621.953125 L 305.546875 18.34375 L 740.09375 188.023438 L 504.398438 791.636719 Z M 69.851562 621.953125 " clip-rule="nonzero"></path></clipPath><clipPath id="7416b7c871"><path d="M 468 466 L 524 466 L 524 557 L 468 557 Z M 468 466 " clip-rule="nonzero"></path></clipPath><clipPath id="e6bf16beba"><path d="M 69.851562 621.957031 L 305.546875 18.339844 L 740.09375 188.023438 L 504.398438 791.636719 Z M 69.851562 621.957031 " clip-rule="nonzero"></path></clipPath><clipPath id="22ee967e8e"><path d="M 69.851562 621.957031 L 305.546875 18.339844 L 740.09375 188.023438 L 504.398438 791.636719 Z M 69.851562 621.957031 " clip-rule="nonzero"></path></clipPath><clipPath id="3ff13ec2ff"><path d="M 69.851562 621.953125 L 305.546875 18.34375 L 740.09375 188.023438 L 504.398438 791.636719 Z M 69.851562 621.953125 " clip-rule="nonzero"></path></clipPath><clipPath id="91fd048bac"><path d="M 69.851562 621.953125 L 305.546875 18.34375 L 740.09375 188.023438 L 504.398438 791.636719 Z M 69.851562 621.953125 " clip-rule="nonzero"></path></clipPath><clipPath id="bd785f084c"><path d="M 462 460 L 530 460 L 530 564 L 462 564 Z M 462 460 " clip-rule="nonzero"></path></clipPath><clipPath id="5e1f2d1283"><path d="M 69.851562 621.957031 L 305.546875 18.339844 L 740.09375 188.023438 L 504.398438 791.636719 Z M 69.851562 621.957031 " clip-rule="nonzero"></path></clipPath><clipPath id="6076d49f03"><path d="M 69.851562 621.957031 L 305.546875 18.339844 L 740.09375 188.023438 L 504.398438 791.636719 Z M 69.851562 621.957031 " clip-rule="nonzero"></path></clipPath><clipPath id="bd830d82c6"><path d="M 69.851562 621.953125 L 305.546875 18.34375 L 740.09375 188.023438 L 504.398438 791.636719 Z M 69.851562 621.953125 " clip-rule="nonzero"></path></clipPath><clipPath id="d565ab976a"><path d="M 69.851562 621.953125 L 305.546875 18.34375 L 740.09375 188.023438 L 504.398438 791.636719 Z M 69.851562 621.953125 " clip-rule="nonzero"></path></clipPath><clipPath id="6bad5a2c5e"><path d="M 302 466 L 358 466 L 358 560 L 302 560 Z M 302 466 " clip-rule="nonzero"></path></clipPath><clipPath id="cd5f740f50"><path d="M 69.851562 621.957031 L 305.546875 18.339844 L 740.09375 188.023438 L 504.398438 791.636719 Z M 69.851562 621.957031 " clip-rule="nonzero"></path></clipPath><clipPath id="77aecda8e7"><path d="M 69.851562 621.957031 L 305.546875 18.339844 L 740.09375 188.023438 L 504.398438 791.636719 Z M 69.851562 621.957031 " clip-rule="nonzero"></path></clipPath><clipPath id="d3e07e1ada"><path d="M 69.851562 621.953125 L 305.546875 18.34375 L 740.09375 188.023438 L 504.398438 791.636719 Z M 69.851562 621.953125 " clip-rule="nonzero"></path></clipPath><clipPath id="8fa1dac561"><path d="M 69.851562 621.953125 L 305.546875 18.34375 L 740.09375 188.023438 L 504.398438 791.636719 Z M 69.851562 621.953125 " clip-rule="nonzero"></path></clipPath><clipPath id="09f9573e24"><path d="M 296 460 L 364 460 L 364 566 L 296 566 Z M 296 460 " clip-rule="nonzero"></path></clipPath><clipPath id="660e839c92"><path d="M 69.851562 621.957031 L 305.546875 18.339844 L 740.09375 188.023438 L 504.398438 791.636719 Z M 69.851562 621.957031 " clip-rule="nonzero"></path></clipPath><clipPath id="7b5e918c5a"><path d="M 69.851562 621.957031 L 305.546875 18.339844 L 740.09375 188.023438 L 504.398438 791.636719 Z M 69.851562 621.957031 " clip-rule="nonzero"></path></clipPath><clipPath id="09561dba39"><path d="M 69.851562 621.953125 L 305.546875 18.34375 L 740.09375 188.023438 L 504.398438 791.636719 Z M 69.851562 621.953125 " clip-rule="nonzero"></path></clipPath><clipPath id="35ec7a87a4"><path d="M 69.851562 621.953125 L 305.546875 18.34375 L 740.09375 188.023438 L 504.398438 791.636719 Z M 69.851562 621.953125 " clip-rule="nonzero"></path></clipPath><clipPath id="82aa6d0052"><path d="M 307 111 L 522 111 L 522 556 L 307 556 Z M 307 111 " clip-rule="nonzero"></path></clipPath><clipPath id="28f39f8b53"><path d="M 69.851562 621.957031 L 305.546875 18.339844 L 740.09375 188.023438 L 504.398438 791.636719 Z M 69.851562 621.957031 " clip-rule="nonzero"></path></clipPath><clipPath id="b7dc64465c"><path d="M 69.851562 621.957031 L 305.546875 18.339844 L 740.09375 188.023438 L 504.398438 791.636719 Z M 69.851562 621.957031 " clip-rule="nonzero"></path></clipPath><clipPath id="f8817a909b"><path d="M 69.851562 621.953125 L 305.546875 18.34375 L 740.09375 188.023438 L 504.398438 791.636719 Z M 69.851562 621.953125 " clip-rule="nonzero"></path></clipPath><clipPath id="3796fb9361"><path d="M 69.851562 621.953125 L 305.546875 18.34375 L 740.09375 188.023438 L 504.398438 791.636719 Z M 69.851562 621.953125 " clip-rule="nonzero"></path></clipPath><clipPath id="b1bb61160c"><path d="M 332 210 L 498 210 L 498 227 L 332 227 Z M 332 210 " clip-rule="nonzero"></path></clipPath><clipPath id="cfd86b6193"><path d="M 69.851562 621.957031 L 305.546875 18.339844 L 740.09375 188.023438 L 504.398438 791.636719 Z M 69.851562 621.957031 " clip-rule="nonzero"></path></clipPath><clipPath id="8a98d72617"><path d="M 69.851562 621.957031 L 305.546875 18.339844 L 740.09375 188.023438 L 504.398438 791.636719 Z M 69.851562 621.957031 " clip-rule="nonzero"></path></clipPath><clipPath id="9eaeb3cee0"><path d="M 69.851562 621.953125 L 305.546875 18.34375 L 740.09375 188.023438 L 504.398438 791.636719 Z M 69.851562 621.953125 " clip-rule="nonzero"></path></clipPath><clipPath id="9bae15a0c3"><path d="M 69.851562 621.953125 L 305.546875 18.34375 L 740.09375 188.023438 L 504.398438 791.636719 Z M 69.851562 621.953125 " clip-rule="nonzero"></path></clipPath><clipPath id="f3fb6fb742"><path d="M 359 517 L 395 517 L 395 529 L 359 529 Z M 359 517 " clip-rule="nonzero"></path></clipPath><clipPath id="f7d5bb8bac"><path d="M 69.851562 621.957031 L 305.546875 18.339844 L 740.09375 188.023438 L 504.398438 791.636719 Z M 69.851562 621.957031 " clip-rule="nonzero"></path></clipPath><clipPath id="62bce6a052"><path d="M 69.851562 621.957031 L 305.546875 18.339844 L 740.09375 188.023438 L 504.398438 791.636719 Z M 69.851562 621.957031 " clip-rule="nonzero"></path></clipPath><clipPath id="44e8e65feb"><path d="M 69.851562 621.953125 L 305.546875 18.34375 L 740.09375 188.023438 L 504.398438 791.636719 Z M 69.851562 621.953125 " clip-rule="nonzero"></path></clipPath><clipPath id="f4cb3fa10b"><path d="M 69.851562 621.953125 L 305.546875 18.34375 L 740.09375 188.023438 L 504.398438 791.636719 Z M 69.851562 621.953125 " clip-rule="nonzero"></path></clipPath><clipPath id="5cca1f128a"><path d="M 430 519 L 467 519 L 467 530 L 430 530 Z M 430 519 " clip-rule="nonzero"></path></clipPath><clipPath id="9be900a62a"><path d="M 69.851562 621.957031 L 305.546875 18.339844 L 740.09375 188.023438 L 504.398438 791.636719 Z M 69.851562 621.957031 " clip-rule="nonzero"></path></clipPath><clipPath id="18c39fe293"><path d="M 69.851562 621.957031 L 305.546875 18.339844 L 740.09375 188.023438 L 504.398438 791.636719 Z M 69.851562 621.957031 " clip-rule="nonzero"></path></clipPath><clipPath id="6eb843b7fe"><path d="M 69.851562 621.953125 L 305.546875 18.34375 L 740.09375 188.023438 L 504.398438 791.636719 Z M 69.851562 621.953125 " clip-rule="nonzero"></path></clipPath><clipPath id="a1f8ab0b15"><path d="M 69.851562 621.953125 L 305.546875 18.34375 L 740.09375 188.023438 L 504.398438 791.636719 Z M 69.851562 621.953125 " clip-rule="nonzero"></path></clipPath><clipPath id="70939b0352"><path d="M 299 463 L 359 463 L 359 562 L 299 562 Z M 299 463 " clip-rule="nonzero"></path></clipPath><clipPath id="8360d8d947"><path d="M 69.851562 621.957031 L 305.546875 18.339844 L 740.09375 188.023438 L 504.398438 791.636719 Z M 69.851562 621.957031 " clip-rule="nonzero"></path></clipPath><clipPath id="4eacc1471b"><path d="M 69.851562 621.957031 L 305.546875 18.339844 L 740.09375 188.023438 L 504.398438 791.636719 Z M 69.851562 621.957031 " clip-rule="nonzero"></path></clipPath><clipPath id="9365ca27b8"><path d="M 69.851562 621.953125 L 305.546875 18.34375 L 740.09375 188.023438 L 504.398438 791.636719 Z M 69.851562 621.953125 " clip-rule="nonzero"></path></clipPath><clipPath id="82d25379dd"><path d="M 69.851562 621.953125 L 305.546875 18.34375 L 740.09375 188.023438 L 504.398438 791.636719 Z M 69.851562 621.953125 " clip-rule="nonzero"></path></clipPath><clipPath id="8e3b6de86d"><path d="M 466 462 L 527 462 L 527 560 L 466 560 Z M 466 462 " clip-rule="nonzero"></path></clipPath><clipPath id="e086f5ee55"><path d="M 69.851562 621.957031 L 305.546875 18.339844 L 740.09375 188.023438 L 504.398438 791.636719 Z M 69.851562 621.957031 " clip-rule="nonzero"></path></clipPath><clipPath id="de47acbccb"><path d="M 69.851562 621.957031 L 305.546875 18.339844 L 740.09375 188.023438 L 504.398438 791.636719 Z M 69.851562 621.957031 " clip-rule="nonzero"></path></clipPath><clipPath id="5a8a2df5f9"><path d="M 69.851562 621.953125 L 305.546875 18.34375 L 740.09375 188.023438 L 504.398438 791.636719 Z M 69.851562 621.953125 " clip-rule="nonzero"></path></clipPath><clipPath id="aaf99a67ae"><path d="M 69.851562 621.953125 L 305.546875 18.34375 L 740.09375 188.023438 L 504.398438 791.636719 Z M 69.851562 621.953125 " clip-rule="nonzero"></path></clipPath><clipPath id="2a9fc0ad4f"><path d="M 388 459 L 438 459 L 438 565 L 388 565 Z M 388 459 " clip-rule="nonzero"></path></clipPath><clipPath id="d8053c9caa"><path d="M 69.851562 621.957031 L 305.546875 18.339844 L 740.09375 188.023438 L 504.398438 791.636719 Z M 69.851562 621.957031 " clip-rule="nonzero"></path></clipPath><clipPath id="a8a57807cb"><path d="M 69.851562 621.957031 L 305.546875 18.339844 L 740.09375 188.023438 L 504.398438 791.636719 Z M 69.851562 621.957031 " clip-rule="nonzero"></path></clipPath><clipPath id="78b85494eb"><path d="M 69.851562 621.953125 L 305.546875 18.34375 L 740.09375 188.023438 L 504.398438 791.636719 Z M 69.851562 621.953125 " clip-rule="nonzero"></path></clipPath><clipPath id="5bea38c1b6"><path d="M 69.851562 621.953125 L 305.546875 18.34375 L 740.09375 188.023438 L 504.398438 791.636719 Z M 69.851562 621.953125 " clip-rule="nonzero"></path></clipPath><clipPath id="544ba74a19"><path d="M 379 259 L 450 259 L 450 333 L 379 333 Z M 379 259 " clip-rule="nonzero"></path></clipPath><clipPath id="340b6a52c6"><path d="M 69.851562 621.957031 L 305.546875 18.339844 L 740.09375 188.023438 L 504.398438 791.636719 Z M 69.851562 621.957031 " clip-rule="nonzero"></path></clipPath><clipPath id="7ba5b47baa"><path d="M 69.851562 621.957031 L 305.546875 18.339844 L 740.09375 188.023438 L 504.398438 791.636719 Z M 69.851562 621.957031 " clip-rule="nonzero"></path></clipPath><clipPath id="2cc8deaf7e"><path d="M 69.851562 621.953125 L 305.546875 18.34375 L 740.09375 188.023438 L 504.398438 791.636719 Z M 69.851562 621.953125 " clip-rule="nonzero"></path></clipPath><clipPath id="d8887d6048"><path d="M 69.851562 621.953125 L 305.546875 18.34375 L 740.09375 188.023438 L 504.398438 791.636719 Z M 69.851562 621.953125 " clip-rule="nonzero"></path></clipPath><clipPath id="482907115d"><path d="M 359 241 L 468 241 L 468 353 L 359 353 Z M 359 241 " clip-rule="nonzero"></path></clipPath><clipPath id="30ed82dc2a"><path d="M 69.851562 621.957031 L 305.546875 18.339844 L 740.09375 188.023438 L 504.398438 791.636719 Z M 69.851562 621.957031 " clip-rule="nonzero"></path></clipPath><clipPath id="b917aee859"><path d="M 69.851562 621.957031 L 305.546875 18.339844 L 740.09375 188.023438 L 504.398438 791.636719 Z M 69.851562 621.957031 " clip-rule="nonzero"></path></clipPath><clipPath id="9075ace7e1"><path d="M 69.851562 621.953125 L 305.546875 18.34375 L 740.09375 188.023438 L 504.398438 791.636719 Z M 69.851562 621.953125 " clip-rule="nonzero"></path></clipPath><clipPath id="48934c4b31"><path d="M 69.851562 621.953125 L 305.546875 18.34375 L 740.09375 188.023438 L 504.398438 791.636719 Z M 69.851562 621.953125 " clip-rule="nonzero"></path></clipPath><clipPath id="2409acc3e4"><path d="M 367 551 L 474 551 L 474 707 L 367 707 Z M 367 551 " clip-rule="nonzero"></path></clipPath><clipPath id="25a41817ac"><path d="M 69.851562 621.957031 L 305.546875 18.339844 L 740.09375 188.023438 L 504.398438 791.636719 Z M 69.851562 621.957031 " clip-rule="nonzero"></path></clipPath><clipPath id="084f3665f1"><path d="M 69.851562 621.957031 L 305.546875 18.339844 L 740.09375 188.023438 L 504.398438 791.636719 Z M 69.851562 621.957031 " clip-rule="nonzero"></path></clipPath><clipPath id="c157c0faac"><path d="M 69.851562 621.953125 L 305.546875 18.34375 L 740.09375 188.023438 L 504.398438 791.636719 Z M 69.851562 621.953125 " clip-rule="nonzero"></path></clipPath><clipPath id="93ccd5fd3a"><path d="M 69.851562 621.953125 L 305.546875 18.34375 L 740.09375 188.023438 L 504.398438 791.636719 Z M 69.851562 621.953125 " clip-rule="nonzero"></path></clipPath></defs><g clip-path="url(#b13e263195)"><g clip-path="url(#b53165050e)"><g clip-path="url(#de9aadba99)"><g clip-path="url(#f52a328dbb)"><g clip-path="url(#9c13e78b71)"><path fill="#ffed00" d="M 333.984375 224.792969 C 333.984375 224.792969 371.214844 216.652344 371.214844 216.652344 C 371.214844 216.652344 478.882812 220.707031 478.882812 220.707031 C 478.882812 220.707031 497.625 224.128906 497.625 224.128906 C 497.625 224.128906 478.78125 177.964844 478.78125 177.964844 C 478.78125 177.964844 437.347656 128.269531 437.347656 128.269531 C 437.347656 128.269531 420.066406 116.027344 420.066406 116.027344 C 420.066406 116.027344 393.761719 131.601562 393.761719 131.601562 C 393.761719 131.601562 348.78125 193.621094 348.78125 193.621094 C 348.78125 193.621094 333.984375 224.792969 333.984375 224.792969 Z M 333.984375 224.792969 " fill-opacity="1" fill-rule="nonzero"></path></g></g></g></g></g><g clip-path="url(#35f72504c0)"><g clip-path="url(#5f52ed52f5)"><g clip-path="url(#442812046b)"><g clip-path="url(#997a37678a)"><g clip-path="url(#267243379e)"><path stroke-linecap="butt" transform="matrix(0.157161, -0.402397, 0.402347, 0.157141, 428.987286, 190.703038)" fill="none" stroke-linejoin="miter" d="M -153.509626 -176.159718 C -153.509626 -176.159718 -104.603895 -102.729443 -104.603895 -102.729443 C -104.603895 -102.729443 -22.676257 132.868901 -22.676257 132.868901 C -22.676257 132.868901 -14.271171 176.167993 -14.271171 176.167993 C -14.271171 176.167993 69.399123 96.650911 69.399123 96.650911 C 69.399123 96.650911 141.659941 -34.55476 141.659941 -34.55476 C 141.659941 -34.55476 153.503554 -82.132153 153.503554 -82.132153 C 153.503554 -82.132153 97.770395 -125.740415 97.770395 -125.740415 C 97.770395 -125.740415 -73.835795 -170.504667 -73.835795 -170.504667 C -73.835795 -170.504667 -153.509626 -176.159718 -153.509626 -176.159718 Z M -153.509626 -176.159718 " stroke="#000000" stroke-width="1" stroke-opacity="1" stroke-miterlimit="10"></path></g></g></g></g></g><g clip-path="url(#c375f35590)"><g clip-path="url(#9f04328e71)"><g clip-path="url(#97f60ba1f1)"><g clip-path="url(#5883912cdf)"><g clip-path="url(#aec432b7bd)"><path fill="#ffed00" d="M 410.273438 462.667969 C 410.273438 462.667969 394.085938 489.6875 394.085938 489.6875 C 394.085938 489.6875 389.304688 519.917969 389.304688 519.917969 C 389.304688 519.917969 400.660156 543.757812 400.660156 543.757812 C 400.660156 543.757812 415.070312 562.585938 415.070312 562.585938 C 415.070312 562.585938 429.167969 534.558594 429.167969 534.558594 C 429.167969 534.558594 435.957031 506.042969 435.957031 506.042969 C 435.957031 506.042969 427.320312 480.9375 427.320312 480.9375 C 427.320312 480.9375 410.273438 462.667969 410.273438 462.667969 Z M 410.273438 462.667969 " fill-opacity="1" fill-rule="nonzero"></path></g></g></g></g></g><g clip-path="url(#2a544e19f8)"><g clip-path="url(#6cc2bdf8c2)"><g clip-path="url(#d36681b3c6)"><g clip-path="url(#8e87050a87)"><g clip-path="url(#5484fd29e9)"><path stroke-linecap="butt" transform="matrix(0.157161, -0.402397, 0.402347, 0.157141, 411.594415, 512.20629)" fill="none" stroke-linejoin="miter" d="M 105.702332 -44.571571 C 105.702332 -44.571571 33.810718 -56.72272 33.810718 -56.72272 C 33.810718 -56.72272 -35.398795 -41.572205 -35.398795 -41.572205 C -35.398795 -41.572205 -77.239605 2.99434 -77.239605 2.99434 C -77.239605 2.99434 -105.70168 49.927198 -105.70168 49.927198 C -105.70168 49.927198 -33.396935 56.722835 -33.396935 56.722835 C -33.396935 56.722835 33.805861 47.346421 33.805861 47.346421 C 33.805861 47.346421 80.665157 7.57684 80.665157 7.57684 C 80.665157 7.57684 105.702332 -44.571571 105.702332 -44.571571 Z M 105.702332 -44.571571 " stroke="#000000" stroke-width="1" stroke-opacity="1" stroke-miterlimit="10"></path></g></g></g></g></g><g clip-path="url(#7416b7c871)"><g clip-path="url(#e6bf16beba)"><g clip-path="url(#22ee967e8e)"><g clip-path="url(#3ff13ec2ff)"><g clip-path="url(#91fd048bac)"><path fill="#ffed00" d="M 468.863281 512.574219 C 468.863281 512.574219 496.1875 533.1875 496.1875 533.1875 C 496.1875 533.1875 518.117188 556.960938 518.117188 556.960938 C 518.117188 556.960938 523.851562 526.824219 523.851562 526.824219 C 523.851562 526.824219 517.789062 497.542969 517.789062 497.542969 C 517.789062 497.542969 503.382812 474.085938 503.382812 474.085938 C 503.382812 474.085938 492.789062 466.183594 492.789062 466.183594 C 492.789062 466.183594 468.863281 512.574219 468.863281 512.574219 Z M 468.863281 512.574219 " fill-opacity="1" fill-rule="nonzero"></path></g></g></g></g></g><g clip-path="url(#bd785f084c)"><g clip-path="url(#5e1f2d1283)"><g clip-path="url(#6076d49f03)"><g clip-path="url(#bd830d82c6)"><g clip-path="url(#d565ab976a)"><path stroke-linecap="butt" transform="matrix(0.157161, -0.402397, 0.402347, 0.157141, 502.935026, 510.589458)" fill="none" stroke-linejoin="miter" d="M -32.972372 -71.80325 C -32.972372 -71.80325 -54.408296 4.48199 -54.408296 4.48199 C -54.408296 4.48199 -87.201059 71.795649 -87.201059 71.795649 C -87.201059 71.795649 -17.391036 58.779485 -17.391036 58.779485 C -17.391036 58.779485 40.639925 21.044154 40.639925 21.044154 C 40.639925 21.044154 79.08616 -29.778908 79.08616 -29.778908 C 79.08616 -29.778908 87.203922 -59.279702 87.203922 -59.279702 C 87.203922 -59.279702 -32.972372 -71.80325 -32.972372 -71.80325 Z M -32.972372 -71.80325 " stroke="#000000" stroke-width="1" stroke-opacity="1" stroke-miterlimit="10"></path></g></g></g></g></g><g clip-path="url(#6bad5a2c5e)"><g clip-path="url(#cd5f740f50)"><g clip-path="url(#77aecda8e7)"><g clip-path="url(#d3e07e1ada)"><g clip-path="url(#8fa1dac561)"><path fill="#ffed00" d="M 332.441406 466.96875 C 332.441406 466.96875 311.597656 490.550781 311.597656 490.550781 C 311.597656 490.550781 302.382812 518.574219 302.382812 518.574219 C 302.382812 518.574219 305.140625 550.089844 305.140625 550.089844 C 305.140625 550.089844 307.945312 559.046875 307.945312 559.046875 C 307.945312 559.046875 329.984375 532.242188 329.984375 532.242188 C 329.984375 532.242188 353.222656 513.425781 353.222656 513.425781 C 353.222656 513.425781 357.203125 511.402344 357.203125 511.402344 C 357.203125 511.402344 332.441406 466.96875 332.441406 466.96875 Z M 332.441406 466.96875 " fill-opacity="1" fill-rule="nonzero"></path></g></g></g></g></g><g clip-path="url(#09f9573e24)"><g clip-path="url(#660e839c92)"><g clip-path="url(#7b5e918c5a)"><g clip-path="url(#09561dba39)"><g clip-path="url(#35ec7a87a4)"><path stroke-linecap="butt" transform="matrix(0.157161, -0.402397, 0.402347, 0.157141, 328.443621, 516.229746)" fill="none" stroke-linejoin="miter" d="M 109.583448 -32.868215 C 109.583448 -32.868215 41.182623 -57.955637 41.182623 -57.955637 C 41.182623 -57.955637 -27.001739 -54.224898 -27.001739 -54.224898 C -27.001739 -54.224898 -92.633445 -21.734176 -92.633445 -21.734176 C -92.633445 -21.734176 -109.584728 -8.14201 -109.584728 -8.14201 C -109.584728 -8.14201 -33.228588 16.80884 -33.228588 16.80884 C -33.228588 16.80884 26.913079 51.073787 26.913079 51.073787 C 26.913079 51.073787 34.628095 57.95336 34.628095 57.95336 C 34.628095 57.95336 109.583448 -32.868215 109.583448 -32.868215 Z M 109.583448 -32.868215 " stroke="#000000" stroke-width="1" stroke-opacity="1" stroke-miterlimit="10"></path></g></g></g></g></g><g clip-path="url(#82aa6d0052)"><g clip-path="url(#28f39f8b53)"><g clip-path="url(#b7dc64465c)"><g clip-path="url(#f8817a909b)"><g clip-path="url(#3796fb9361)"><path fill="#000000" d="M 406.777344 554.894531 C 401.453125 554.699219 396.125 554.300781 390.804688 553.527344 C 389.476562 553.335938 388.144531 553.113281 386.816406 552.859375 C 385.476562 552.597656 384.128906 552.285156 382.800781 551.902344 C 380.140625 551.144531 377.523438 550.109375 375.0625 548.71875 C 373.839844 548.015625 372.632812 547.253906 371.53125 546.351562 C 370.398438 545.488281 369.355469 544.507812 368.367188 543.480469 C 366.40625 541.402344 364.792969 539.015625 363.527344 536.496094 C 360.980469 531.449219 359.839844 525.972656 358.824219 520.816406 C 358.824219 520.816406 358.433594 518.894531 358.433594 518.894531 C 358.355469 518.535156 358.164062 518.023438 357.921875 517.496094 C 357.441406 516.4375 356.8125 515.316406 356.171875 514.207031 C 354.871094 511.976562 353.480469 509.730469 352.105469 507.472656 C 349.34375 502.953125 346.621094 498.375 344.046875 493.714844 C 338.882812 484.394531 334.25 474.761719 330.242188 464.875 C 322.152344 445.125 316.488281 424.429688 312.820312 403.4375 C 310.996094 392.933594 309.671875 382.351562 308.765625 371.738281 C 308.765625 371.738281 308.445312 367.757812 308.445312 367.757812 C 308.347656 366.429688 308.21875 365.101562 308.164062 363.773438 C 308.164062 363.773438 307.742188 355.796875 307.742188 355.796875 C 307.652344 354.46875 307.644531 353.136719 307.601562 351.804688 C 307.601562 351.804688 307.492188 347.816406 307.492188 347.816406 C 307.492188 347.816406 307.382812 343.824219 307.382812 343.824219 C 307.382812 343.824219 307.378906 339.832031 307.378906 339.832031 C 307.382812 337.167969 307.347656 334.511719 307.382812 331.84375 C 307.382812 331.84375 307.484375 327.832031 307.484375 327.832031 C 307.519531 326.496094 307.539062 325.15625 307.625 323.820312 C 307.625 323.820312 307.835938 319.816406 307.835938 319.816406 C 307.835938 319.816406 307.945312 317.8125 307.945312 317.8125 C 307.945312 317.8125 308.101562 315.8125 308.101562 315.8125 C 308.320312 313.144531 308.503906 310.476562 308.816406 307.820312 C 309.917969 297.179688 311.625 286.605469 313.882812 276.152344 C 314.449219 273.539062 315.078125 270.941406 315.683594 268.335938 C 316.359375 265.75 316.992188 263.152344 317.707031 260.578125 C 317.707031 260.578125 318.792969 256.71875 318.792969 256.71875 C 318.792969 256.71875 319.34375 254.792969 319.34375 254.792969 C 319.34375 254.792969 319.925781 252.875 319.925781 252.875 C 319.925781 252.875 321.097656 249.039062 321.097656 249.039062 C 321.488281 247.765625 321.921875 246.5 322.335938 245.230469 C 325.667969 235.074219 329.488281 225.082031 333.804688 215.304688 C 338.128906 205.53125 342.878906 195.949219 348.078125 186.609375 C 353.277344 177.265625 358.925781 168.164062 365.101562 159.402344 C 371.273438 150.640625 377.90625 142.175781 385.292969 134.277344 C 385.292969 134.277344 388.078125 131.328125 388.078125 131.328125 C 389.027344 130.359375 390.015625 129.417969 390.980469 128.464844 C 390.980469 128.464844 392.4375 127.039062 392.4375 127.039062 C 392.925781 126.566406 393.449219 126.121094 393.953125 125.660156 C 394.976562 124.75 395.980469 123.820312 397.023438 122.925781 C 401.265625 119.402344 405.632812 115.972656 411.195312 113.476562 C 412.59375 112.863281 414.089844 112.316406 415.789062 111.964844 C 416.207031 111.871094 416.667969 111.816406 417.109375 111.746094 C 417.558594 111.6875 418.050781 111.671875 418.519531 111.640625 C 419.015625 111.640625 419.519531 111.652344 420.039062 111.699219 C 420.039062 111.699219 420.839844 111.8125 420.839844 111.8125 C 420.972656 111.835938 421.105469 111.855469 421.238281 111.882812 C 421.238281 111.882812 421.65625 111.992188 421.65625 111.992188 C 421.929688 112.066406 422.207031 112.148438 422.480469 112.230469 C 422.480469 112.230469 423.042969 112.464844 423.042969 112.464844 C 423.042969 112.464844 424.160156 112.929688 424.160156 112.929688 C 424.933594 113.226562 425.566406 113.613281 426.246094 113.972656 C 426.246094 113.972656 427.253906 114.519531 427.253906 114.519531 C 427.253906 114.519531 428.183594 115.109375 428.183594 115.109375 C 428.183594 115.109375 429.109375 115.707031 429.109375 115.707031 C 429.425781 115.902344 429.730469 116.105469 430.011719 116.316406 C 434.695312 119.65625 438.703125 123.410156 442.496094 127.296875 C 446.289062 131.1875 449.851562 135.21875 453.300781 139.328125 C 456.742188 143.4375 460.070312 147.625 463.300781 151.871094 C 469.761719 160.371094 475.914062 169.050781 481.785156 177.980469 C 483.25 180.222656 484.695312 182.464844 486.117188 184.816406 C 486.292969 185.105469 486.472656 185.410156 486.652344 185.71875 C 486.652344 185.71875 486.921875 186.183594 486.921875 186.183594 C 486.921875 186.183594 487.054688 186.414062 487.054688 186.414062 C 487.054688 186.414062 487.199219 186.675781 487.199219 186.675781 C 487.585938 187.359375 487.945312 188.109375 488.226562 188.734375 C 488.8125 190.019531 489.347656 191.257812 489.867188 192.507812 C 491.945312 197.492188 493.832031 202.480469 495.636719 207.507812 C 499.25 217.558594 502.460938 227.726562 505.355469 237.988281 C 508.253906 248.246094 510.796875 258.609375 512.976562 269.050781 C 515.15625 279.496094 516.972656 290.019531 518.378906 300.609375 C 519.742188 311.207031 520.671875 321.871094 521.105469 332.566406 C 521.367188 337.914062 521.371094 343.277344 521.371094 348.632812 C 521.371094 348.632812 521.152344 356.675781 521.152344 356.675781 C 521.152344 356.675781 521.125 357.679688 521.125 357.679688 C 521.125 357.679688 521.070312 358.683594 521.070312 358.683594 C 521.070312 358.683594 520.953125 360.6875 520.953125 360.6875 C 520.953125 360.6875 520.726562 364.695312 520.726562 364.695312 C 520.015625 375.382812 518.78125 386.035156 516.988281 396.585938 C 515.199219 407.140625 512.878906 417.601562 510.0625 427.921875 C 509.390625 430.511719 508.605469 433.066406 507.863281 435.636719 C 507.5 436.921875 507.074219 438.191406 506.679688 439.46875 C 506.277344 440.746094 505.886719 442.023438 505.46875 443.292969 C 504.609375 445.824219 503.792969 448.371094 502.867188 450.878906 C 502.867188 450.878906 501.511719 454.652344 501.511719 454.652344 C 501.511719 454.652344 500.089844 458.402344 500.089844 458.402344 C 496.277344 468.390625 491.953125 478.183594 487.160156 487.742188 C 484.769531 492.519531 482.246094 497.238281 479.601562 501.886719 C 476.953125 506.535156 474.191406 511.121094 471.261719 515.613281 C 471.261719 515.613281 470.164062 517.292969 470.164062 517.292969 C 470.164062 517.292969 469.660156 518.0625 469.660156 518.0625 C 469.570312 518.203125 469.476562 518.371094 469.382812 518.566406 C 469.003906 519.339844 468.679688 520.414062 468.421875 521.546875 C 467.902344 523.863281 467.570312 526.425781 467.214844 529.046875 C 466.855469 531.671875 466.496094 534.371094 465.90625 537.132812 C 465.59375 538.519531 465.265625 539.910156 464.785156 541.328125 C 464.34375 542.734375 463.71875 544.167969 462.964844 545.578125 C 462.53125 546.277344 462.148438 546.980469 461.589844 547.648438 C 461.589844 547.648438 461.199219 548.152344 461.199219 548.152344 C 461.199219 548.152344 461 548.402344 461 548.402344 C 460.921875 548.492188 460.816406 548.59375 460.722656 548.6875 C 460.347656 549.050781 459.933594 549.472656 459.570312 549.707031 C 458.039062 550.851562 456.609375 551.457031 455.210938 551.992188 C 452.410156 553.042969 449.691406 553.640625 446.976562 554.117188 C 441.554688 555.050781 436.175781 555.382812 430.808594 555.4375 C 430.808594 555.4375 430.492188 555.441406 430.492188 555.441406 C 430.207031 555.445312 429.929688 555.378906 429.691406 555.269531 C 429.691406 555.269531 429.6875 555.269531 429.6875 555.269531 C 429.6875 555.269531 430.804688 555.4375 430.804688 555.4375 C 429.148438 555.40625 427.488281 555.363281 425.835938 555.300781 C 424.179688 555.234375 422.527344 555.167969 420.878906 555.050781 C 419.925781 554.984375 419.203125 554.15625 419.269531 553.203125 C 419.328125 552.382812 419.941406 551.738281 420.71875 551.609375 C 420.71875 551.609375 420.804688 551.597656 420.804688 551.597656 C 422.414062 551.332031 424.023438 551.113281 425.628906 550.898438 C 427.234375 550.683594 428.835938 550.492188 430.4375 550.308594 C 430.730469 550.277344 431.011719 550.304688 431.277344 550.390625 C 431.277344 550.390625 431.558594 550.480469 431.558594 550.480469 C 431.558594 550.480469 431.5625 550.480469 431.5625 550.480469 C 431.5625 550.480469 430.441406 550.308594 430.441406 550.308594 C 433.027344 549.941406 435.597656 549.570312 438.144531 549.136719 C 440.695312 548.714844 443.222656 548.234375 445.6875 547.671875 C 448.144531 547.105469 450.582031 546.449219 452.707031 545.585938 C 453.257812 545.382812 453.71875 545.140625 454.203125 544.914062 C 454.203125 544.914062 454.828125 544.550781 454.828125 544.550781 C 454.828125 544.550781 454.984375 544.460938 454.984375 544.460938 C 454.984375 544.460938 455.101562 544.371094 455.101562 544.371094 C 455.101562 544.371094 455.335938 544.199219 455.335938 544.199219 C 455.535156 544.082031 455.550781 543.992188 455.660156 543.914062 C 455.6875 543.890625 455.707031 543.878906 455.738281 543.847656 C 455.738281 543.847656 455.839844 543.703125 455.839844 543.703125 C 455.839844 543.703125 456.050781 543.421875 456.050781 543.421875 C 456.351562 543.082031 456.582031 542.609375 456.847656 542.191406 C 457.828125 540.367188 458.488281 538.078125 458.980469 535.6875 C 459.46875 533.277344 459.789062 530.734375 460.117188 528.125 C 460.445312 525.511719 460.746094 522.824219 461.351562 519.972656 C 461.671875 518.535156 462.054688 517.046875 462.804688 515.429688 C 462.996094 515.023438 463.214844 514.613281 463.476562 514.191406 C 463.476562 514.191406 464.042969 513.296875 464.042969 513.296875 C 464.042969 513.296875 465.09375 511.652344 465.09375 511.652344 C 467.890625 507.265625 470.535156 502.773438 473.0625 498.214844 C 475.59375 493.65625 478.003906 489.027344 480.289062 484.339844 C 484.863281 474.964844 488.984375 465.359375 492.601562 455.574219 C 499.871094 436.019531 505.25 415.769531 508.597656 395.199219 C 510.269531 384.914062 511.394531 374.546875 512.015625 364.148438 C 512.015625 364.148438 512.207031 360.25 512.207031 360.25 C 512.207031 360.25 512.304688 358.300781 512.304688 358.300781 C 512.304688 358.300781 512.355469 357.324219 512.355469 357.324219 C 512.355469 357.324219 512.375 356.347656 512.375 356.347656 C 512.375 356.347656 512.527344 348.550781 512.527344 348.550781 C 512.507812 343.347656 512.488281 338.144531 512.21875 332.941406 C 511.757812 322.535156 510.820312 312.136719 509.453125 301.785156 C 508.066406 291.4375 506.277344 281.136719 504.132812 270.902344 C 501.984375 260.671875 499.480469 250.507812 496.667969 240.429688 C 493.847656 230.359375 490.714844 220.367188 487.203125 210.527344 C 485.453125 205.609375 483.609375 200.71875 481.632812 195.945312 C 481.140625 194.757812 480.628906 193.570312 480.125 192.453125 C 479.859375 191.875 479.648438 191.429688 479.386719 190.96875 C 479.386719 190.96875 479.296875 190.792969 479.296875 190.792969 C 479.296875 190.792969 479.179688 190.597656 479.179688 190.597656 C 479.179688 190.597656 478.953125 190.203125 478.953125 190.203125 C 478.800781 189.941406 478.644531 189.675781 478.476562 189.402344 C 477.171875 187.230469 475.761719 185.027344 474.34375 182.847656 C 468.628906 174.113281 462.574219 165.542969 456.273438 157.210938 C 449.957031 148.902344 443.390625 140.757812 436.269531 133.355469 C 432.714844 129.671875 428.972656 126.183594 425.058594 123.371094 C 424.816406 123.183594 424.570312 123.019531 424.324219 122.867188 C 424.324219 122.867188 423.589844 122.390625 423.589844 122.390625 C 423.589844 122.390625 422.851562 121.910156 422.851562 121.910156 C 422.851562 121.910156 422.117188 121.515625 422.117188 121.515625 C 421.632812 121.257812 421.136719 120.941406 420.667969 120.777344 C 420.667969 120.777344 419.960938 120.476562 419.960938 120.476562 C 419.960938 120.476562 419.613281 120.324219 419.613281 120.324219 C 419.570312 120.316406 419.527344 120.308594 419.484375 120.292969 C 419.152344 120.175781 418.386719 120.167969 417.5 120.355469 C 416.613281 120.527344 415.605469 120.871094 414.589844 121.316406 C 413.570312 121.761719 412.535156 122.28125 411.503906 122.886719 C 410.472656 123.472656 409.453125 124.136719 408.4375 124.824219 C 407.425781 125.53125 406.414062 126.242188 405.433594 127.03125 C 405.433594 127.03125 402.488281 129.394531 402.488281 129.394531 C 401.527344 130.214844 400.585938 131.078125 399.632812 131.917969 C 399.160156 132.34375 398.675781 132.753906 398.210938 133.195312 C 398.210938 133.195312 396.835938 134.535156 396.835938 134.535156 C 395.917969 135.429688 394.988281 136.308594 394.082031 137.222656 C 394.082031 137.222656 391.417969 140.015625 391.417969 140.015625 C 384.335938 147.515625 377.863281 155.6875 371.835938 164.164062 C 370.359375 166.308594 368.863281 168.4375 367.398438 170.589844 C 367.398438 170.589844 363.125 177.132812 363.125 177.132812 C 363.125 177.132812 359.023438 183.792969 359.023438 183.792969 C 357.679688 186.023438 356.40625 188.300781 355.089844 190.554688 C 349.953125 199.632812 345.25 208.960938 340.960938 218.480469 C 336.679688 228 332.878906 237.734375 329.558594 247.628906 C 326.242188 257.523438 323.375 267.570312 321.089844 277.75 C 318.796875 287.925781 317.035156 298.21875 315.867188 308.578125 C 315.539062 311.167969 315.339844 313.765625 315.101562 316.359375 C 315.101562 316.359375 314.929688 318.308594 314.929688 318.308594 C 314.929688 318.308594 314.808594 320.257812 314.808594 320.257812 C 314.808594 320.257812 314.566406 324.160156 314.566406 324.160156 C 314.46875 325.460938 314.441406 326.761719 314.394531 328.066406 C 314.394531 328.066406 314.261719 331.972656 314.261719 331.972656 C 314.199219 334.582031 314.210938 337.207031 314.183594 339.824219 C 314.183594 339.824219 314.152344 343.753906 314.152344 343.753906 C 314.152344 343.753906 314.226562 347.683594 314.226562 347.683594 C 314.226562 347.683594 314.296875 351.613281 314.296875 351.613281 C 314.328125 352.921875 314.324219 354.230469 314.398438 355.539062 C 314.398438 355.539062 314.742188 363.386719 314.742188 363.386719 C 314.785156 364.695312 314.898438 366 314.984375 367.304688 C 314.984375 367.304688 315.253906 371.222656 315.253906 371.222656 C 316.03125 381.667969 317.210938 392.078125 318.886719 402.410156 C 320.5625 412.738281 322.761719 422.980469 325.464844 433.085938 C 328.179688 443.183594 331.445312 453.132812 335.246094 462.875 C 339.039062 472.621094 343.441406 482.121094 348.386719 491.351562 C 350.851562 495.972656 353.464844 500.511719 356.144531 505.042969 C 357.484375 507.316406 358.84375 509.578125 360.167969 511.929688 C 360.828125 513.113281 361.484375 514.304688 362.078125 515.660156 C 362.371094 516.339844 362.664062 517.0625 362.859375 517.996094 C 362.859375 517.996094 363.230469 519.964844 363.230469 519.964844 C 363.710938 522.570312 364.183594 525.101562 364.828125 527.558594 C 365.464844 530.011719 366.273438 532.386719 367.351562 534.601562 C 368.421875 536.820312 369.773438 538.867188 371.414062 540.65625 C 372.238281 541.542969 373.113281 542.386719 374.070312 543.140625 C 374.992188 543.933594 376.019531 544.605469 377.070312 545.238281 C 379.1875 546.484375 381.496094 547.449219 383.898438 548.183594 C 385.101562 548.550781 386.324219 548.855469 387.570312 549.125 C 388.828125 549.390625 390.101562 549.625 391.378906 549.835938 C 396.5 550.667969 401.710938 551.15625 406.933594 551.441406 C 406.933594 551.441406 406.9375 551.441406 406.9375 551.441406 C 407.890625 551.496094 408.621094 552.308594 408.566406 553.261719 C 408.515625 554.203125 407.71875 554.929688 406.777344 554.894531 Z M 406.777344 554.894531 " fill-opacity="1" fill-rule="nonzero"></path></g></g></g></g></g><g clip-path="url(#b1bb61160c)"><g clip-path="url(#cfd86b6193)"><g clip-path="url(#8a98d72617)"><g clip-path="url(#9eaeb3cee0)"><g clip-path="url(#9bae15a0c3)"><path fill="#000000" d="M 332.375 224.164062 C 332.375 224.164062 332.375 224.160156 332.375 224.160156 C 332.507812 223.726562 332.824219 223.398438 333.214844 223.238281 C 333.214844 223.238281 333.425781 223.152344 333.425781 223.152344 C 335.027344 222.5 336.640625 221.859375 338.261719 221.234375 C 338.261719 221.234375 343.179688 219.535156 343.179688 219.535156 C 343.179688 219.535156 348.167969 218.042969 348.167969 218.042969 C 349.835938 217.5625 351.515625 217.148438 353.199219 216.722656 C 359.941406 215.09375 366.769531 213.808594 373.636719 212.925781 C 375.351562 212.667969 377.074219 212.503906 378.796875 212.320312 C 380.515625 212.140625 382.238281 211.953125 383.960938 211.804688 C 383.960938 211.804688 389.136719 211.441406 389.136719 211.441406 C 389.136719 211.441406 391.726562 211.273438 391.726562 211.273438 C 391.726562 211.273438 394.316406 211.167969 394.316406 211.167969 C 397.769531 211.03125 401.222656 210.910156 404.675781 210.921875 C 404.675781 210.921875 409.851562 210.914062 409.851562 210.914062 C 411.578125 210.9375 413.300781 210.996094 415.027344 211.035156 C 415.027344 211.035156 420.195312 211.179688 420.195312 211.179688 C 420.195312 211.179688 425.359375 211.460938 425.359375 211.460938 C 425.359375 211.460938 430.515625 211.769531 430.515625 211.769531 C 430.515625 211.769531 435.664062 212.203125 435.664062 212.203125 C 435.664062 212.203125 440.808594 212.640625 440.808594 212.640625 C 441.667969 212.703125 442.519531 212.808594 443.375 212.898438 C 443.375 212.898438 445.941406 213.183594 445.941406 213.183594 C 445.941406 213.183594 451.0625 213.78125 451.0625 213.78125 C 451.917969 213.886719 452.773438 213.972656 453.625 214.089844 C 453.625 214.089844 456.175781 214.445312 456.175781 214.445312 C 459.582031 214.917969 462.984375 215.398438 466.375 215.929688 C 469.765625 216.484375 473.152344 217.039062 476.527344 217.679688 C 483.277344 218.933594 489.996094 220.324219 496.664062 221.929688 C 497.59375 222.15625 498.167969 223.089844 497.941406 224.019531 C 497.734375 224.882812 496.910156 225.4375 496.050781 225.332031 C 482.5 223.675781 468.992188 222.011719 455.453125 220.851562 C 455.453125 220.851562 452.917969 220.601562 452.917969 220.601562 C 452.074219 220.523438 451.226562 220.472656 450.378906 220.40625 C 450.378906 220.40625 445.304688 220.023438 445.304688 220.023438 C 443.613281 219.90625 441.925781 219.726562 440.230469 219.628906 C 440.230469 219.628906 435.15625 219.328125 435.15625 219.328125 C 435.15625 219.328125 430.082031 219.027344 430.082031 219.027344 C 430.082031 219.027344 425.003906 218.839844 425.003906 218.839844 C 425.003906 218.839844 419.929688 218.628906 419.929688 218.628906 C 419.929688 218.628906 414.855469 218.535156 414.855469 218.535156 C 413.167969 218.507812 411.476562 218.457031 409.785156 218.441406 C 409.785156 218.441406 404.714844 218.460938 404.714844 218.460938 C 404.714844 218.460938 402.179688 218.460938 402.179688 218.460938 C 402.179688 218.460938 400.914062 218.464844 400.914062 218.464844 C 400.914062 218.464844 399.648438 218.5 399.648438 218.5 C 399.648438 218.5 394.585938 218.621094 394.585938 218.621094 C 394.585938 218.621094 392.054688 218.683594 392.054688 218.683594 C 392.054688 218.683594 389.527344 218.808594 389.527344 218.808594 C 389.527344 218.808594 384.472656 219.03125 384.472656 219.03125 C 384.472656 219.03125 379.429688 219.375 379.429688 219.375 C 379.429688 219.375 376.90625 219.546875 376.90625 219.546875 C 376.0625 219.59375 375.226562 219.703125 374.386719 219.773438 C 360.960938 220.941406 347.621094 222.976562 334.542969 226.421875 C 334.542969 226.421875 335.59375 225.414062 335.59375 225.414062 C 335.59375 225.414062 335.59375 225.417969 335.59375 225.417969 C 335.179688 226.28125 334.144531 226.648438 333.28125 226.234375 C 332.496094 225.859375 332.125 224.96875 332.375 224.164062 Z M 332.375 224.164062 " fill-opacity="1" fill-rule="nonzero"></path></g></g></g></g></g><g clip-path="url(#f3fb6fb742)"><g clip-path="url(#f7d5bb8bac)"><g clip-path="url(#62bce6a052)"><g clip-path="url(#44e8e65feb)"><g clip-path="url(#f4cb3fa10b)"><path fill="#000000" d="M 361.300781 517.324219 C 363.957031 518.089844 366.613281 518.835938 369.277344 519.539062 C 371.945312 520.230469 374.621094 520.886719 377.308594 521.5 C 379.996094 522.101562 382.691406 522.671875 385.398438 523.203125 C 388.101562 523.742188 390.8125 524.253906 393.527344 524.769531 C 393.527344 524.769531 393.535156 524.769531 393.535156 524.769531 C 394.472656 524.949219 395.089844 525.851562 394.910156 526.792969 C 394.746094 527.667969 393.945312 528.261719 393.082031 528.195312 C 390.265625 527.980469 387.464844 527.636719 384.679688 527.183594 C 381.894531 526.726562 379.125 526.179688 376.378906 525.527344 C 373.628906 524.886719 370.902344 524.160156 368.203125 523.332031 C 365.5 522.519531 362.828125 521.613281 360.195312 520.597656 C 359.304688 520.253906 358.859375 519.253906 359.207031 518.363281 C 359.53125 517.519531 360.441406 517.078125 361.289062 517.320312 C 361.289062 517.320312 361.300781 517.324219 361.300781 517.324219 Z M 361.300781 517.324219 " fill-opacity="1" fill-rule="nonzero"></path></g></g></g></g></g><g clip-path="url(#5cca1f128a)"><g clip-path="url(#9be900a62a)"><g clip-path="url(#18c39fe293)"><g clip-path="url(#6eb843b7fe)"><g clip-path="url(#a1f8ab0b15)"><path fill="#000000" d="M 431.859375 525.558594 C 431.859375 525.558594 439.988281 524.214844 439.988281 524.214844 C 439.988281 524.214844 444.039062 523.527344 444.039062 523.527344 C 444.039062 523.527344 448.082031 522.808594 448.082031 522.808594 C 448.082031 522.808594 456.15625 521.289062 456.15625 521.289062 C 458.855469 520.796875 461.546875 520.273438 464.28125 519.859375 C 464.28125 519.859375 464.285156 519.859375 464.285156 519.859375 C 465.234375 519.714844 466.121094 520.367188 466.261719 521.316406 C 466.386719 522.140625 465.914062 522.914062 465.164062 523.199219 C 462.539062 524.199219 459.84375 524.984375 457.128906 525.6875 C 454.40625 526.363281 451.664062 526.953125 448.894531 527.410156 C 447.511719 527.648438 446.128906 527.863281 444.734375 528.046875 C 443.347656 528.242188 441.953125 528.398438 440.558594 528.535156 C 437.765625 528.808594 434.964844 528.988281 432.160156 529.003906 C 432.160156 529.003906 432.152344 529.003906 432.152344 529.003906 C 431.195312 529.007812 430.414062 528.234375 430.410156 527.277344 C 430.40625 526.414062 431.035156 525.695312 431.859375 525.558594 Z M 431.859375 525.558594 " fill-opacity="1" fill-rule="nonzero"></path></g></g></g></g></g><g clip-path="url(#70939b0352)"><g clip-path="url(#8360d8d947)"><g clip-path="url(#4eacc1471b)"><g clip-path="url(#9365ca27b8)"><g clip-path="url(#82d25379dd)"><path fill="#000000" d="M 335.394531 468.449219 C 332.039062 470.953125 328.867188 473.707031 325.910156 476.675781 C 322.96875 479.65625 320.246094 482.84375 317.800781 486.230469 C 312.941406 493.019531 309.242188 500.617188 307.078125 508.664062 C 305.988281 512.683594 305.273438 516.804688 304.914062 520.964844 C 304.558594 525.128906 304.609375 529.328125 304.9375 533.511719 C 304.9375 533.511719 305.074219 535.078125 305.074219 535.078125 C 305.121094 535.601562 305.15625 536.125 305.238281 536.644531 C 305.238281 536.644531 305.667969 539.769531 305.667969 539.769531 C 305.816406 540.8125 306.042969 541.84375 306.222656 542.882812 C 306.222656 542.882812 306.511719 544.4375 306.511719 544.4375 C 306.511719 544.4375 306.871094 545.976562 306.871094 545.976562 C 306.871094 545.976562 307.597656 549.0625 307.597656 549.0625 C 307.597656 549.0625 308.460938 552.113281 308.460938 552.113281 C 308.609375 552.621094 308.742188 553.132812 308.898438 553.640625 C 308.898438 553.640625 309.398438 555.148438 309.398438 555.148438 C 309.398438 555.148438 310.394531 558.167969 310.394531 558.167969 C 310.394531 558.167969 305.789062 557.585938 305.789062 557.585938 C 307.515625 555.152344 309.253906 552.851562 311.050781 550.542969 C 311.949219 549.394531 312.863281 548.261719 313.773438 547.125 C 314.699219 546 315.617188 544.867188 316.554688 543.753906 C 320.304688 539.296875 324.214844 534.964844 328.34375 530.839844 C 332.472656 526.710938 336.804688 522.761719 341.425781 519.140625 C 341.425781 519.140625 344.96875 516.507812 344.96875 516.507812 C 346.179688 515.667969 347.429688 514.875 348.660156 514.0625 C 351.128906 512.449219 353.761719 511.039062 356.492188 509.828125 C 357.363281 509.441406 358.382812 509.835938 358.769531 510.710938 C 359.152344 511.566406 358.777344 512.570312 357.933594 512.96875 C 357.933594 512.96875 357.917969 512.976562 357.917969 512.976562 C 355.40625 514.167969 352.964844 515.550781 350.648438 517.148438 C 349.496094 517.960938 348.328125 518.742188 347.1875 519.570312 C 347.1875 519.570312 343.851562 522.183594 343.851562 522.183594 C 339.484375 525.789062 335.375 529.730469 331.449219 533.855469 C 327.523438 537.980469 323.808594 542.320312 320.242188 546.78125 C 319.351562 547.894531 318.480469 549.027344 317.597656 550.148438 C 316.738281 551.285156 315.871094 552.417969 315.019531 553.5625 C 313.332031 555.847656 311.652344 558.195312 310.101562 560.507812 C 310.101562 560.507812 310.082031 560.535156 310.082031 560.535156 C 309.285156 561.71875 307.683594 562.035156 306.5 561.238281 C 306.011719 560.910156 305.667969 560.441406 305.492188 559.925781 C 305.492188 559.925781 304.429688 556.777344 304.429688 556.777344 C 304.429688 556.777344 303.894531 555.199219 303.894531 555.199219 C 303.726562 554.671875 303.582031 554.136719 303.425781 553.605469 C 303.425781 553.605469 302.496094 550.40625 302.496094 550.40625 C 302.496094 550.40625 301.707031 547.164062 301.707031 547.164062 C 301.707031 547.164062 301.316406 545.542969 301.316406 545.542969 C 301.316406 545.542969 301 543.902344 301 543.902344 C 300.800781 542.804688 300.554688 541.71875 300.390625 540.613281 C 300.390625 540.613281 299.914062 537.300781 299.914062 537.300781 C 299.820312 536.75 299.777344 536.191406 299.722656 535.636719 C 299.722656 535.636719 299.566406 533.964844 299.566406 533.964844 C 299.183594 529.511719 299.097656 525.011719 299.449219 520.527344 C 299.804688 516.046875 300.542969 511.585938 301.691406 507.226562 C 303.972656 498.5 307.929688 490.234375 313.113281 482.890625 C 315.714844 479.222656 318.617188 475.78125 321.742188 472.566406 C 324.886719 469.367188 328.257812 466.402344 331.832031 463.695312 C 333.140625 462.703125 335.003906 462.960938 335.996094 464.269531 C 336.984375 465.578125 336.726562 467.441406 335.421875 468.429688 C 335.421875 468.429688 335.402344 468.441406 335.402344 468.441406 C 335.402344 468.441406 335.394531 468.449219 335.394531 468.449219 Z M 335.394531 468.449219 " fill-opacity="1" fill-rule="nonzero"></path></g></g></g></g></g><g clip-path="url(#8e3b6de86d)"><g clip-path="url(#e086f5ee55)"><g clip-path="url(#de47acbccb)"><g clip-path="url(#5a8a2df5f9)"><g clip-path="url(#aaf99a67ae)"><path fill="#000000" d="M 470.082031 510.785156 C 470.082031 510.785156 477.929688 516.179688 477.929688 516.179688 C 477.929688 516.179688 477.441406 515.914062 477.441406 515.914062 C 477.441406 515.914062 477.445312 515.917969 477.445312 515.917969 C 477.613281 515.980469 477.765625 516.0625 477.902344 516.160156 C 477.902344 516.160156 477.933594 516.179688 477.933594 516.179688 C 485.765625 521.726562 493.425781 527.546875 500.703125 533.902344 C 504.335938 537.085938 507.871094 540.398438 511.21875 543.957031 C 514.554688 547.519531 517.726562 551.304688 520.375 555.621094 C 520.375 555.621094 515.757812 555.8125 515.757812 555.8125 C 515.757812 555.8125 515.894531 555.519531 515.894531 555.519531 C 515.894531 555.519531 516.042969 555.191406 516.042969 555.191406 C 516.144531 554.960938 516.246094 554.738281 516.339844 554.503906 C 516.535156 554.039062 516.71875 553.566406 516.902344 553.089844 C 517.265625 552.136719 517.601562 551.164062 517.921875 550.183594 C 518.546875 548.222656 519.097656 546.226562 519.558594 544.210938 C 520.484375 540.171875 521.066406 536.050781 521.328125 531.90625 C 521.589844 527.765625 521.507812 523.601562 521.09375 519.464844 C 521.09375 519.464844 520.925781 517.917969 520.925781 517.917969 C 520.875 517.402344 520.8125 516.886719 520.722656 516.371094 C 520.558594 515.347656 520.40625 514.320312 520.230469 513.292969 C 520.230469 513.292969 519.589844 510.242188 519.589844 510.242188 C 519.496094 509.730469 519.351562 509.230469 519.222656 508.726562 C 519.222656 508.726562 518.824219 507.214844 518.824219 507.214844 C 518.6875 506.714844 518.574219 506.207031 518.417969 505.710938 C 518.417969 505.710938 517.941406 504.222656 517.941406 504.222656 C 517.941406 504.222656 517.46875 502.734375 517.46875 502.734375 C 517.390625 502.484375 517.316406 502.234375 517.230469 501.988281 C 517.230469 501.988281 516.953125 501.257812 516.953125 501.257812 C 516.953125 501.257812 515.847656 498.332031 515.847656 498.332031 C 515.449219 497.371094 515.011719 496.421875 514.597656 495.464844 C 514.386719 494.988281 514.183594 494.507812 513.964844 494.03125 C 513.964844 494.03125 513.253906 492.636719 513.253906 492.636719 C 512.777344 491.707031 512.324219 490.765625 511.828125 489.84375 C 511.828125 489.84375 510.257812 487.125 510.257812 487.125 C 509.992188 486.675781 509.75 486.210938 509.464844 485.769531 C 509.464844 485.769531 508.609375 484.453125 508.609375 484.453125 C 504.078125 477.402344 498.605469 470.933594 492.5 465.105469 C 492.5 465.105469 492.496094 465.101562 492.496094 465.101562 C 491.804688 464.445312 491.78125 463.351562 492.441406 462.660156 C 493.09375 461.976562 494.171875 461.945312 494.863281 462.582031 C 501.238281 468.464844 507.027344 475.046875 511.878906 482.320312 C 511.878906 482.320312 512.792969 483.679688 512.792969 483.679688 C 513.097656 484.132812 513.363281 484.613281 513.648438 485.078125 C 513.648438 485.078125 515.335938 487.890625 515.335938 487.890625 C 515.875 488.847656 516.367188 489.824219 516.886719 490.789062 C 516.886719 490.789062 517.652344 492.242188 517.652344 492.242188 C 517.890625 492.734375 518.113281 493.238281 518.347656 493.734375 C 518.800781 494.730469 519.277344 495.722656 519.710938 496.726562 C 519.710938 496.726562 520.929688 499.789062 520.929688 499.789062 C 520.929688 499.789062 521.234375 500.550781 521.234375 500.550781 C 521.328125 500.808594 521.414062 501.074219 521.503906 501.332031 C 521.503906 501.332031 522.03125 502.894531 522.03125 502.894531 C 522.03125 502.894531 522.554688 504.457031 522.554688 504.457031 C 522.730469 504.976562 522.859375 505.511719 523.015625 506.039062 C 523.015625 506.039062 523.460938 507.628906 523.460938 507.628906 C 523.609375 508.15625 523.769531 508.683594 523.882812 509.222656 C 523.882812 509.222656 524.613281 512.441406 524.613281 512.441406 C 524.816406 513.523438 525 514.609375 525.191406 515.695312 C 525.296875 516.234375 525.371094 516.78125 525.4375 517.328125 C 525.4375 517.328125 525.644531 518.964844 525.644531 518.964844 C 526.160156 523.339844 526.324219 527.761719 526.125 532.164062 C 525.921875 536.570312 525.382812 540.960938 524.46875 545.289062 C 524.011719 547.449219 523.460938 549.59375 522.820312 551.722656 C 522.496094 552.78125 522.152344 553.839844 521.769531 554.894531 C 521.582031 555.421875 521.386719 555.945312 521.175781 556.472656 C 521.074219 556.738281 520.960938 557.003906 520.851562 557.269531 C 520.851562 557.269531 520.675781 557.671875 520.675781 557.671875 C 520.675781 557.671875 520.480469 558.109375 520.480469 558.109375 C 519.855469 559.410156 518.289062 559.960938 516.984375 559.335938 C 516.5 559.101562 516.121094 558.742188 515.867188 558.3125 C 515.867188 558.3125 515.863281 558.300781 515.863281 558.300781 C 513.570312 554.445312 510.644531 550.824219 507.511719 547.390625 C 504.367188 543.953125 500.980469 540.6875 497.480469 537.535156 C 490.46875 531.238281 482.996094 525.390625 475.335938 519.804688 C 475.335938 519.804688 475.824219 520.070312 475.824219 520.070312 C 475.824219 520.070312 475.820312 520.066406 475.820312 520.066406 C 475.820312 520.066406 475.816406 520.066406 475.816406 520.066406 C 475.644531 519.996094 475.480469 519.902344 475.335938 519.804688 C 475.335938 519.804688 467.648438 514.363281 467.648438 514.363281 C 467.648438 514.363281 467.605469 514.332031 467.605469 514.332031 C 466.632812 513.640625 466.398438 512.292969 467.089844 511.316406 C 467.773438 510.351562 469.109375 510.117188 470.082031 510.785156 Z M 470.082031 510.785156 " fill-opacity="1" fill-rule="nonzero"></path></g></g></g></g></g><g clip-path="url(#2a9fc0ad4f)"><g clip-path="url(#d8053c9caa)"><g clip-path="url(#a8a57807cb)"><g clip-path="url(#78b85494eb)"><g clip-path="url(#5bea38c1b6)"><path fill="#000000" d="M 409.761719 459.460938 C 410.242188 459.40625 410.820312 459.449219 411.339844 459.628906 C 411.601562 459.714844 411.84375 459.828125 412.058594 459.957031 C 412.058594 459.957031 412.183594 460.035156 412.183594 460.035156 C 412.183594 460.035156 412.394531 460.171875 412.394531 460.171875 C 412.539062 460.265625 412.675781 460.359375 412.808594 460.449219 C 413.070312 460.636719 413.34375 460.816406 413.59375 461.007812 C 414.109375 461.378906 414.605469 461.761719 415.097656 462.148438 C 416.078125 462.921875 417.019531 463.730469 417.941406 464.558594 C 419.773438 466.226562 421.484375 468.011719 423.105469 469.867188 C 426.296875 473.628906 429.0625 477.753906 431.25 482.175781 C 433.4375 486.59375 435.015625 491.308594 435.988281 496.121094 C 436.945312 500.945312 437.246094 505.863281 437.03125 510.71875 C 436.988281 513.160156 436.625 515.558594 436.355469 517.96875 C 436.355469 517.96875 435.699219 521.535156 435.699219 521.535156 C 435.578125 522.125 435.5 522.726562 435.34375 523.308594 C 435.34375 523.308594 434.902344 525.058594 434.902344 525.058594 C 434.59375 526.222656 434.332031 527.402344 433.984375 528.550781 C 433.984375 528.550781 432.878906 531.976562 432.878906 531.976562 C 432.691406 532.546875 432.519531 533.121094 432.320312 533.6875 C 432.320312 533.6875 431.667969 535.359375 431.667969 535.359375 C 431.667969 535.359375 430.363281 538.699219 430.363281 538.699219 C 430.160156 539.261719 429.882812 539.792969 429.644531 540.335938 C 429.644531 540.335938 428.898438 541.964844 428.898438 541.964844 C 428.394531 543.046875 427.921875 544.140625 427.394531 545.207031 C 427.394531 545.207031 425.738281 548.367188 425.738281 548.367188 C 425.738281 548.367188 424.910156 549.945312 424.910156 549.945312 C 424.632812 550.472656 424.363281 551 424.050781 551.507812 C 424.050781 551.507812 422.238281 554.570312 422.238281 554.570312 C 422.238281 554.570312 421.332031 556.101562 421.332031 556.101562 C 421.027344 556.609375 420.742188 557.128906 420.40625 557.617188 C 420.40625 557.617188 416.503906 563.546875 416.503906 563.546875 C 416.503906 563.546875 416.5 563.558594 416.5 563.558594 C 415.980469 564.34375 414.921875 564.5625 414.136719 564.046875 C 414.054688 563.992188 413.96875 563.921875 413.898438 563.859375 C 413.898438 563.859375 413.894531 563.855469 413.894531 563.855469 C 412.964844 562.996094 412.152344 562.171875 411.320312 561.300781 C 410.496094 560.441406 409.699219 559.558594 408.917969 558.667969 C 407.355469 556.875 405.859375 555.03125 404.441406 553.125 C 401.597656 549.320312 399.035156 545.296875 396.816406 541.070312 C 394.597656 536.847656 392.722656 532.417969 391.300781 527.824219 C 389.886719 523.230469 388.929688 518.472656 388.511719 513.648438 C 388.125 508.820312 388.246094 503.929688 388.984375 499.125 C 389.148438 497.917969 389.394531 496.730469 389.621094 495.535156 C 389.894531 494.351562 390.140625 493.160156 390.476562 491.992188 C 390.777344 490.8125 391.152344 489.65625 391.515625 488.5 C 391.699219 487.921875 391.914062 487.351562 392.113281 486.78125 C 392.3125 486.207031 392.515625 485.632812 392.746094 485.074219 C 392.746094 485.074219 393.417969 483.382812 393.417969 483.382812 C 393.417969 483.382812 394.152344 481.71875 394.152344 481.71875 C 394.152344 481.71875 394.519531 480.886719 394.519531 480.886719 C 394.519531 480.886719 394.914062 480.070312 394.914062 480.070312 C 394.914062 480.070312 395.707031 478.4375 395.707031 478.4375 C 396.824219 476.292969 397.988281 474.167969 399.285156 472.136719 C 399.605469 471.625 399.917969 471.109375 400.25 470.605469 C 400.25 470.605469 401.261719 469.109375 401.261719 469.109375 C 401.917969 468.097656 402.652344 467.144531 403.351562 466.164062 C 404.054688 465.1875 404.8125 464.257812 405.542969 463.304688 C 405.542969 463.304688 405.683594 463.125 405.683594 463.125 C 405.683594 463.125 405.90625 462.859375 405.90625 462.859375 C 406.0625 462.675781 406.226562 462.488281 406.394531 462.308594 C 406.730469 461.941406 407.089844 461.585938 407.464844 461.246094 C 408.210938 460.566406 409.007812 459.96875 409.761719 459.460938 Z M 410.785156 465.875 C 410.785156 466.25 410.832031 466.542969 410.824219 466.746094 C 410.820312 466.851562 410.800781 466.9375 410.761719 467.015625 C 410.742188 467.054688 410.71875 467.09375 410.6875 467.128906 C 410.6875 467.128906 410.628906 467.195312 410.628906 467.195312 C 410.628906 467.195312 410.492188 467.359375 410.492188 467.359375 C 409.789062 468.234375 409.050781 469.089844 408.367188 469.980469 C 407.691406 470.878906 406.980469 471.753906 406.34375 472.675781 C 406.34375 472.675781 405.363281 474.042969 405.363281 474.042969 C 405.039062 474.503906 404.738281 474.976562 404.425781 475.441406 C 403.167969 477.300781 402.042969 479.234375 400.957031 481.183594 C 400.957031 481.183594 400.183594 482.671875 400.183594 482.671875 C 400.183594 482.671875 399.796875 483.414062 399.796875 483.414062 C 399.796875 483.414062 399.4375 484.171875 399.4375 484.171875 C 399.4375 484.171875 398.722656 485.683594 398.722656 485.683594 C 398.722656 485.683594 398.066406 487.21875 398.066406 487.21875 C 397.835938 487.726562 397.636719 488.246094 397.441406 488.769531 C 397.242188 489.289062 397.03125 489.804688 396.847656 490.328125 C 396.488281 491.382812 396.113281 492.429688 395.8125 493.5 C 395.472656 494.5625 395.222656 495.644531 394.9375 496.71875 C 394.703125 497.804688 394.449219 498.890625 394.269531 499.984375 C 393.472656 504.363281 393.238281 508.835938 393.472656 513.292969 C 393.738281 517.75 394.5 522.191406 395.707031 526.527344 C 396.921875 530.859375 398.574219 535.089844 400.574219 539.160156 C 402.570312 543.230469 404.917969 547.148438 407.542969 550.871094 C 408.855469 552.734375 410.242188 554.546875 411.691406 556.304688 C 412.417969 557.179688 413.160156 558.042969 413.921875 558.886719 C 414.675781 559.722656 415.476562 560.574219 416.238281 561.3125 C 416.238281 561.3125 413.632812 561.625 413.632812 561.625 C 413.632812 561.625 417.292969 555.714844 417.292969 555.714844 C 417.609375 555.230469 417.875 554.714844 418.160156 554.210938 C 418.160156 554.210938 419.003906 552.695312 419.003906 552.695312 C 419.003906 552.695312 420.683594 549.667969 420.683594 549.667969 C 420.976562 549.167969 421.222656 548.644531 421.476562 548.128906 C 421.476562 548.128906 422.238281 546.574219 422.238281 546.574219 C 422.238281 546.574219 423.761719 543.472656 423.761719 543.472656 C 424.242188 542.425781 424.671875 541.359375 425.128906 540.304688 C 425.128906 540.304688 425.804688 538.71875 425.804688 538.71875 C 426.019531 538.1875 426.273438 537.667969 426.453125 537.125 C 426.453125 537.125 427.617188 533.886719 427.617188 533.886719 C 427.617188 533.886719 428.199219 532.273438 428.199219 532.273438 C 428.375 531.726562 428.523438 531.175781 428.6875 530.628906 C 428.6875 530.628906 429.648438 527.34375 429.648438 527.34375 C 429.949219 526.242188 430.164062 525.125 430.425781 524.015625 C 430.425781 524.015625 430.800781 522.351562 430.800781 522.351562 C 430.933594 521.800781 430.988281 521.234375 431.085938 520.675781 C 431.085938 520.675781 431.617188 517.316406 431.617188 517.316406 C 431.800781 515.066406 432.082031 512.820312 432.058594 510.570312 C 432.132812 506.074219 431.738281 501.585938 430.75 497.238281 C 429.746094 492.898438 428.210938 488.695312 426.136719 484.773438 C 424.0625 480.855469 421.472656 477.214844 418.515625 473.910156 C 417.015625 472.285156 415.4375 470.722656 413.765625 469.285156 C 412.925781 468.566406 412.070312 467.871094 411.195312 467.222656 C 410.757812 466.894531 410.320312 466.574219 409.878906 466.273438 C 409.65625 466.117188 409.4375 465.980469 409.21875 465.835938 C 409.105469 465.761719 409 465.695312 408.894531 465.628906 C 408.894531 465.628906 408.738281 465.53125 408.738281 465.53125 C 408.738281 465.53125 408.71875 465.519531 408.71875 465.519531 C 408.746094 465.535156 408.636719 465.46875 408.769531 465.550781 C 408.953125 465.660156 409.164062 465.753906 409.394531 465.820312 C 409.851562 465.960938 410.371094 465.96875 410.785156 465.875 Z M 410.785156 465.875 " fill-opacity="1" fill-rule="nonzero"></path></g></g></g></g></g><g clip-path="url(#544ba74a19)"><g clip-path="url(#340b6a52c6)"><g clip-path="url(#7ba5b47baa)"><g clip-path="url(#2cc8deaf7e)"><g clip-path="url(#d8887d6048)"><path fill="#000000" d="M 380.648438 289.511719 C 381.222656 287.261719 382.011719 285.117188 382.972656 283.0625 C 383.929688 281.007812 385.035156 279.03125 386.273438 277.140625 C 388.746094 273.367188 391.738281 269.902344 395.265625 266.988281 C 398.789062 264.085938 402.914062 261.734375 407.480469 260.566406 C 409.757812 259.984375 412.128906 259.707031 414.488281 259.761719 C 415.078125 259.769531 415.667969 259.828125 416.253906 259.859375 C 416.84375 259.910156 417.433594 259.996094 418.019531 260.082031 C 419.179688 260.285156 420.324219 260.53125 421.433594 260.863281 C 425.878906 262.152344 429.996094 264.234375 433.734375 266.863281 C 437.464844 269.5 440.828125 272.722656 443.472656 276.535156 C 444.796875 278.433594 445.941406 280.472656 446.867188 282.617188 C 447.796875 284.757812 448.441406 287.027344 448.867188 289.324219 C 449.101562 290.472656 449.203125 291.636719 449.316406 292.800781 C 449.316406 292.800781 449.386719 294.550781 449.386719 294.550781 C 449.421875 295.132812 449.367188 295.710938 449.363281 296.296875 C 449.363281 296.296875 449.335938 297.167969 449.335938 297.167969 C 449.316406 297.457031 449.28125 297.746094 449.257812 298.035156 C 449.195312 298.613281 449.152344 299.191406 449.078125 299.765625 C 448.882812 300.90625 448.730469 302.058594 448.4375 303.171875 C 448.300781 303.726562 448.1875 304.304688 448.03125 304.84375 C 448.03125 304.84375 447.570312 306.460938 447.570312 306.460938 C 447.425781 307.003906 447.234375 307.535156 447.066406 308.074219 C 446.890625 308.609375 446.730469 309.144531 446.527344 309.675781 C 445.789062 311.808594 444.878906 313.902344 443.84375 315.945312 C 441.765625 320.015625 438.953125 323.894531 435.179688 326.84375 C 433.316406 328.328125 431.195312 329.511719 428.984375 330.410156 C 426.757812 331.285156 424.429688 331.851562 422.101562 332.132812 C 419.773438 332.417969 417.449219 332.441406 415.183594 332.3125 C 414.636719 332.285156 414.011719 332.230469 413.417969 332.164062 C 412.828125 332.089844 412.242188 332.007812 411.671875 331.898438 C 411.09375 331.808594 410.535156 331.667969 409.964844 331.550781 C 409.40625 331.414062 408.84375 331.285156 408.292969 331.128906 C 403.867188 329.902344 399.65625 328.042969 395.796875 325.546875 C 393.871094 324.300781 392.03125 322.894531 390.339844 321.316406 C 388.652344 319.730469 387.121094 317.96875 385.785156 316.0625 C 383.082031 312.269531 381.277344 307.839844 380.480469 303.292969 C 380.113281 301.019531 379.898438 298.71875 379.96875 296.441406 C 379.953125 295.296875 380.070312 294.167969 380.15625 293.035156 C 380.191406 292.46875 380.296875 291.914062 380.371094 291.351562 C 380.371094 291.351562 380.617188 289.675781 380.617188 289.675781 C 380.753906 288.734375 381.632812 288.078125 382.574219 288.21875 C 383.5 288.351562 384.148438 289.203125 384.039062 290.125 C 384.039062 290.125 384.03125 290.199219 384.03125 290.199219 C 383.542969 294.355469 383.53125 298.550781 384.378906 302.546875 C 384.378906 302.546875 384.726562 304.035156 384.726562 304.035156 C 384.855469 304.523438 385.019531 305.007812 385.160156 305.492188 C 385.238281 305.734375 385.296875 305.980469 385.386719 306.21875 C 385.386719 306.21875 385.660156 306.929688 385.660156 306.929688 C 385.847656 307.398438 385.996094 307.882812 386.226562 308.335938 C 387.015625 310.195312 388.074219 311.933594 389.261719 313.5625 C 391.652344 316.828125 394.761719 319.558594 398.226562 321.746094 C 399.960938 322.839844 401.792969 323.800781 403.683594 324.621094 C 405.570312 325.449219 407.523438 326.140625 409.5 326.679688 C 409.996094 326.820312 410.492188 326.929688 410.988281 327.054688 C 411.488281 327.152344 411.984375 327.273438 412.480469 327.351562 C 412.976562 327.441406 413.46875 327.507812 413.957031 327.570312 C 414.445312 327.621094 414.902344 327.664062 415.441406 327.6875 C 417.515625 327.808594 419.558594 327.789062 421.546875 327.550781 C 423.535156 327.316406 425.464844 326.847656 427.292969 326.136719 C 429.105469 325.402344 430.828125 324.453125 432.371094 323.234375 C 435.476562 320.820312 437.933594 317.519531 439.808594 313.867188 C 440.742188 312.035156 441.578125 310.132812 442.265625 308.15625 C 442.457031 307.671875 442.605469 307.167969 442.773438 306.671875 C 442.933594 306.171875 443.109375 305.679688 443.246094 305.171875 C 443.246094 305.171875 443.683594 303.65625 443.683594 303.65625 C 443.832031 303.148438 443.925781 302.65625 444.050781 302.160156 C 444.316406 301.167969 444.445312 300.160156 444.625 299.15625 C 444.691406 298.652344 444.730469 298.148438 444.785156 297.644531 C 444.808594 297.394531 444.839844 297.140625 444.855469 296.890625 C 444.855469 296.890625 444.878906 296.132812 444.878906 296.132812 C 444.886719 295.628906 444.9375 295.121094 444.90625 294.617188 C 444.90625 294.617188 444.851562 293.109375 444.851562 293.109375 C 444.75 292.109375 444.675781 291.101562 444.472656 290.117188 C 443.785156 286.15625 442.160156 282.382812 439.863281 279.035156 C 437.578125 275.671875 434.597656 272.753906 431.253906 270.34375 C 427.910156 267.945312 424.171875 266.023438 420.269531 264.859375 C 419.296875 264.558594 418.316406 264.34375 417.335938 264.160156 C 416.84375 264.085938 416.363281 264.007812 415.867188 263.964844 C 415.371094 263.933594 414.875 263.878906 414.378906 263.867188 C 412.394531 263.800781 410.402344 264.019531 408.460938 264.496094 C 404.574219 265.4375 400.917969 267.417969 397.707031 269.992188 C 394.492188 272.570312 391.679688 275.722656 389.339844 279.183594 C 387.03125 282.648438 385.070312 286.4375 383.996094 290.363281 C 383.996094 290.363281 383.988281 290.394531 383.988281 290.394531 C 383.738281 291.3125 382.789062 291.855469 381.867188 291.605469 C 380.957031 291.355469 380.417969 290.421875 380.648438 289.511719 Z M 380.648438 289.511719 " fill-opacity="1" fill-rule="nonzero"></path></g></g></g></g></g><g clip-path="url(#482907115d)"><g clip-path="url(#30ed82dc2a)"><g clip-path="url(#b917aee859)"><g clip-path="url(#9075ace7e1)"><g clip-path="url(#48934c4b31)"><path fill="#000000" d="M 359.609375 290.773438 C 360.007812 286.921875 361.136719 283.359375 362.582031 280.019531 C 364.046875 276.683594 365.859375 273.566406 367.886719 270.621094 C 369.921875 267.679688 372.175781 264.910156 374.617188 262.332031 C 377.070312 259.753906 379.710938 257.371094 382.511719 255.1875 C 385.308594 253.007812 388.269531 251.03125 391.371094 249.300781 C 394.476562 247.570312 397.746094 246.132812 401.101562 244.960938 C 404.464844 243.800781 407.933594 242.910156 411.472656 242.433594 C 415.003906 241.957031 418.585938 241.839844 422.140625 242.078125 C 422.140625 242.078125 424.796875 242.328125 424.796875 242.328125 C 424.796875 242.328125 427.433594 242.742188 427.433594 242.742188 C 429.191406 243.015625 430.949219 243.472656 432.664062 243.984375 C 436.097656 245.046875 439.351562 246.613281 442.378906 248.496094 C 448.449219 252.265625 453.539062 257.429688 457.480469 263.304688 C 465.371094 275.074219 468.707031 289.730469 466.824219 303.796875 C 465.917969 310.816406 463.792969 317.707031 460.433594 324.007812 C 457.082031 330.304688 452.460938 335.953125 446.914062 340.503906 C 441.371094 345.0625 434.894531 348.496094 428 350.5625 C 421.097656 352.625 413.800781 353.332031 406.625 352.675781 C 399.429688 352.035156 392.308594 349.933594 385.929688 346.382812 C 382.738281 344.617188 379.738281 342.496094 377.003906 340.074219 C 376.320312 339.46875 375.667969 338.824219 375 338.203125 C 374.359375 337.550781 373.734375 336.882812 373.101562 336.222656 C 372.507812 335.53125 371.910156 334.839844 371.328125 334.132812 C 370.777344 333.40625 370.207031 332.691406 369.671875 331.953125 C 365.386719 326.03125 362.46875 319.203125 360.871094 312.164062 C 359.289062 305.105469 358.996094 297.863281 359.609375 290.773438 Z M 365.40625 291.246094 C 364.96875 297.820312 365.375 304.429688 366.917969 310.742188 C 368.460938 317.046875 371.101562 323.035156 374.8125 328.265625 C 376.675781 330.875 378.800781 333.292969 381.160156 335.457031 C 383.523438 337.617188 386.125 339.523438 388.902344 341.125 C 394.460938 344.339844 400.738281 346.324219 407.183594 347.007812 C 413.652344 347.6875 420.257812 347.222656 426.546875 345.511719 C 432.832031 343.789062 438.78125 340.820312 443.933594 336.789062 C 449.09375 332.769531 453.425781 327.679688 456.648438 321.9375 C 459.867188 316.199219 461.992188 309.8125 462.984375 303.257812 C 463.957031 296.703125 463.714844 289.96875 462.296875 283.484375 C 460.875 276.996094 458.253906 270.769531 454.589844 265.238281 C 454.132812 264.546875 453.636719 263.882812 453.164062 263.199219 C 452.664062 262.539062 452.152344 261.890625 451.640625 261.238281 C 451.097656 260.613281 450.566406 259.976562 450.011719 259.363281 C 449.433594 258.769531 448.882812 258.152344 448.289062 257.578125 C 445.933594 255.261719 443.335938 253.195312 440.539062 251.46875 C 437.738281 249.75 434.734375 248.367188 431.605469 247.433594 C 430.03125 246.984375 428.457031 246.59375 426.828125 246.359375 C 426.828125 246.359375 424.375 246.019531 424.375 246.019531 C 424.375 246.019531 421.910156 245.847656 421.910156 245.847656 C 418.617188 245.703125 415.316406 245.886719 412.066406 246.398438 C 408.8125 246.910156 405.628906 247.808594 402.539062 248.953125 C 399.449219 250.101562 396.464844 251.542969 393.621094 253.226562 C 390.78125 254.921875 388.078125 256.84375 385.527344 258.949219 C 380.4375 263.167969 375.929688 268.125 372.324219 273.609375 C 370.523438 276.351562 368.945312 279.230469 367.71875 282.203125 C 366.503906 285.175781 365.648438 288.261719 365.40625 291.246094 Z M 365.40625 291.246094 " fill-opacity="1" fill-rule="nonzero"></path></g></g></g></g></g><g clip-path="url(#2409acc3e4)"><g clip-path="url(#25a41817ac)"><g clip-path="url(#084f3665f1)"><g clip-path="url(#c157c0faac)"><g clip-path="url(#93ccd5fd3a)"><path fill="#000000" d="M 403.515625 554.226562 C 402.179688 555.511719 400.828125 556.734375 399.464844 557.921875 C 398.175781 559.203125 396.855469 560.417969 395.570312 561.652344 C 395.570312 561.652344 393.71875 563.578125 393.71875 563.578125 C 393.105469 564.21875 392.445312 564.808594 391.890625 565.496094 C 391.890625 565.496094 390.144531 567.46875 390.144531 567.46875 C 389.863281 567.800781 389.550781 568.109375 389.277344 568.449219 C 389.277344 568.449219 388.46875 569.476562 388.46875 569.476562 C 387.933594 570.160156 387.386719 570.835938 386.839844 571.503906 C 386.324219 572.199219 385.855469 572.921875 385.34375 573.617188 C 385.34375 573.617188 384.589844 574.660156 384.589844 574.660156 C 384.328125 575.003906 384.132812 575.386719 383.902344 575.746094 C 383.457031 576.476562 382.992188 577.195312 382.535156 577.917969 C 382.101562 578.648438 381.734375 579.417969 381.316406 580.160156 C 381.316406 580.160156 380.703125 581.28125 380.703125 581.28125 C 380.511719 581.660156 380.351562 582.050781 380.175781 582.4375 C 379.832031 583.210938 379.46875 583.980469 379.136719 584.757812 C 379.136719 584.757812 378.273438 587.144531 378.273438 587.144531 C 377.953125 587.933594 377.777344 588.761719 377.535156 589.570312 C 377.304688 590.386719 377.054688 591.195312 376.914062 592.03125 C 376.75 592.859375 376.5625 593.683594 376.414062 594.519531 C 376.414062 594.519531 376.082031 597.039062 376.082031 597.039062 C 375.734375 600.414062 375.714844 603.828125 376.011719 607.242188 C 376.652344 614.0625 378.480469 620.84375 381.292969 627.234375 C 382.695312 630.429688 384.34375 633.519531 386.160156 636.492188 C 386.601562 637.242188 387.101562 637.953125 387.570312 638.6875 C 388.050781 639.410156 388.5625 640.101562 389.058594 640.8125 C 390.09375 642.175781 391.148438 643.542969 392.277344 644.75 C 392.277344 644.75 394.167969 646.855469 394.167969 646.855469 C 394.167969 646.855469 395.152344 647.957031 395.152344 647.957031 C 395.152344 647.957031 395.640625 648.511719 395.640625 648.511719 C 395.640625 648.511719 396.09375 649.078125 396.09375 649.078125 C 397.277344 650.589844 398.535156 652.074219 399.613281 653.625 C 399.613281 653.625 401.28125 655.9375 401.28125 655.9375 C 401.835938 656.707031 402.347656 657.492188 402.882812 658.269531 C 402.882812 658.269531 404.472656 660.609375 404.472656 660.609375 C 404.472656 660.609375 406 662.972656 406 662.972656 C 410.078125 669.269531 413.824219 675.71875 417.457031 682.210938 C 421.070312 688.726562 424.527344 695.28125 427.804688 701.992188 C 427.804688 701.992188 422.523438 702.871094 422.523438 702.871094 C 422.523438 702.871094 422.523438 702.867188 422.523438 702.867188 C 423.175781 699.035156 424.355469 695.410156 425.753906 691.953125 C 427.160156 688.496094 428.796875 685.191406 430.523438 681.96875 C 433.984375 675.53125 437.785156 669.390625 441.523438 663.253906 C 445.269531 657.125 448.964844 651.003906 452.421875 644.769531 C 455.867188 638.53125 459.078125 632.183594 461.851562 625.65625 C 463.238281 622.394531 464.539062 619.09375 465.679688 615.746094 C 466.277344 614.078125 466.785156 612.386719 467.320312 610.703125 C 467.578125 609.863281 467.769531 609.050781 468 608.222656 C 468.195312 607.394531 468.339844 606.554688 468.519531 605.722656 C 469.660156 599.019531 468.878906 592.042969 466.308594 585.667969 C 465.050781 582.46875 463.429688 579.394531 461.5 576.5 C 459.578125 573.601562 457.417969 570.839844 455.042969 568.253906 C 450.308594 563.066406 444.886719 558.472656 439.113281 554.371094 C 439.113281 554.371094 439.507812 554.574219 439.507812 554.574219 C 439.507812 554.574219 439.503906 554.574219 439.503906 554.574219 C 438.609375 554.238281 438.15625 553.242188 438.492188 552.347656 C 438.828125 551.460938 439.8125 551.011719 440.699219 551.332031 C 440.699219 551.332031 440.703125 551.332031 440.703125 551.332031 C 440.835938 551.382812 440.960938 551.445312 441.070312 551.523438 C 441.070312 551.523438 441.09375 551.539062 441.09375 551.539062 C 447.085938 555.683594 452.753906 560.355469 457.785156 565.726562 C 460.304688 568.402344 462.625 571.289062 464.714844 574.351562 C 466.808594 577.414062 468.605469 580.707031 470.023438 584.179688 C 472.921875 591.097656 473.929688 598.925781 472.738281 606.417969 C 472.558594 607.34375 472.402344 608.28125 472.195312 609.203125 C 471.960938 610.109375 471.746094 611.050781 471.484375 611.929688 C 470.957031 613.679688 470.453125 615.433594 469.859375 617.160156 C 468.726562 620.628906 467.429688 624.042969 466.050781 627.410156 C 463.285156 634.152344 460.078125 640.691406 456.652344 647.078125 C 453.222656 653.460938 449.558594 659.695312 445.890625 665.878906 C 442.226562 672.066406 438.539062 678.207031 435.269531 684.476562 C 433.644531 687.609375 432.128906 690.777344 430.867188 693.996094 C 429.609375 697.207031 428.609375 700.480469 428.097656 703.746094 C 427.863281 705.285156 426.429688 706.34375 424.890625 706.109375 C 424.019531 705.976562 423.300781 705.457031 422.886719 704.753906 C 422.886719 704.753906 422.8125 704.625 422.8125 704.625 C 419.132812 698.289062 415.363281 691.941406 411.503906 685.699219 C 407.660156 679.441406 403.691406 673.269531 399.578125 667.253906 C 399.578125 667.253906 398.03125 665.007812 398.03125 665.007812 C 398.03125 665.007812 396.4375 662.804688 396.4375 662.804688 C 395.902344 662.074219 395.382812 661.324219 394.839844 660.609375 C 394.839844 660.609375 393.195312 658.476562 393.195312 658.476562 C 392.117188 657.023438 390.96875 655.695312 389.847656 654.320312 C 389.847656 654.320312 389.425781 653.808594 389.425781 653.808594 C 389.425781 653.808594 388.984375 653.335938 388.984375 653.335938 C 388.984375 653.335938 388.109375 652.386719 388.109375 652.386719 C 388.109375 652.386719 387.234375 651.4375 387.234375 651.4375 C 387.234375 651.4375 386.785156 650.949219 386.785156 650.949219 C 386.785156 650.949219 386.257812 650.394531 386.257812 650.394531 C 383.457031 647.441406 381.125 644.292969 379.011719 640.996094 C 376.894531 637.710938 375.066406 634.257812 373.46875 630.695312 C 371.867188 627.136719 370.554688 623.4375 369.519531 619.648438 C 368.496094 615.855469 367.734375 611.96875 367.378906 608.015625 C 367.054688 604.058594 367.097656 600.054688 367.539062 596.078125 C 367.539062 596.078125 367.953125 593.101562 367.953125 593.101562 C 368.128906 592.117188 368.355469 591.136719 368.558594 590.15625 C 368.738281 589.171875 369.035156 588.210938 369.3125 587.246094 C 369.601562 586.289062 369.832031 585.308594 370.207031 584.378906 C 370.207031 584.378906 371.253906 581.558594 371.253906 581.558594 C 371.644531 580.636719 372.078125 579.734375 372.488281 578.824219 C 372.703125 578.371094 372.898438 577.910156 373.125 577.464844 C 373.125 577.464844 373.84375 576.152344 373.84375 576.152344 C 374.332031 575.28125 374.800781 574.398438 375.328125 573.554688 C 376.441406 571.910156 377.484375 570.207031 378.769531 568.703125 C 379.382812 567.929688 380.007812 567.164062 380.644531 566.410156 C 381.316406 565.695312 381.992188 564.980469 382.675781 564.277344 C 382.675781 564.277344 383.699219 563.222656 383.699219 563.222656 C 384.042969 562.871094 384.417969 562.558594 384.78125 562.234375 C 384.78125 562.234375 386.976562 560.304688 386.976562 560.304688 C 387.34375 559.984375 387.710938 559.667969 388.105469 559.386719 C 388.105469 559.386719 389.269531 558.515625 389.269531 558.515625 C 389.269531 558.515625 391.605469 556.804688 391.605469 556.804688 C 393.222656 555.757812 394.867188 554.761719 396.515625 553.792969 C 398.21875 552.917969 399.933594 552.078125 401.667969 551.304688 C 402.546875 550.910156 403.578125 551.304688 403.972656 552.183594 C 404.28125 552.871094 404.105469 553.652344 403.59375 554.148438 C 403.59375 554.148438 403.515625 554.226562 403.515625 554.226562 Z M 403.515625 554.226562 " fill-opacity="1" fill-rule="nonzero"></path></g></g></g></g></g></svg>